<?xml version="1.0" encoding="utf-8"?>
<!-- Generator: Adobe Illustrator 22.1.0, SVG Export Plug-In . SVG Version: 6.00 Build 0)  -->
<svg version="1.1" id="lay_3" xmlns="http://www.w3.org/2000/svg" xmlns:xlink="http://www.w3.org/1999/xlink" x="0px" y="0px"
	 viewBox="0 0 36.4 31.7" style="enable-background:new 0 0 36.4 31.7;" xml:space="preserve">
<style type="text/css">
	#lay_3 .st0{fill:#0f0e9f;}
</style>
<g>
	<path class="st0" d="M13.9,25.1c-1.8,0-3.3,1.5-3.3,3.3c0,1.8,1.5,3.3,3.3,3.3c1.8,0,3.3-1.5,3.3-3.3
		C17.2,26.6,15.7,25.1,13.9,25.1z"/>
	<path class="st0" d="M27.1,25.1c-1.8,0-3.3,1.5-3.3,3.3c0,1.8,1.5,3.3,3.3,3.3c1.8,0,3.3-1.5,3.3-3.3
		C30.4,26.6,28.9,25.1,27.1,25.1z"/>
	<path class="st0" d="M35.1,9.1C34.9,9,34.7,9,34.5,9l0,0H18.1c-1,0-1.9,0.8-1.9,1.9c0,1,0.8,1.9,1.9,1.9h13.8l-0.6,1.9H16.8
		c-1,0-1.9,0.8-1.9,1.9c0,1,0.8,1.9,1.9,1.9h13.1l-0.8,2.3H13.3L10.5,2.6c0-0.9-0.7-1.7-1.7-1.8L4.6,0.3L2.1,0c-1-0.1-2,0.6-2.1,1.7
		c-0.1,1,0.6,2,1.7,2.1l0.3,0l0,0l2.2,0.2L7,4.4l2.8,18.5c0.2,1,1.1,1.7,2.1,1.6c0.1,0,0.1,0,0.2,0h18.4c0.8,0,1.5-0.5,1.8-1.3h0
		l4-11.8C36.6,10.5,36.1,9.4,35.1,9.1z"/>
</g>
</svg>
