<?xml version="1.0" encoding="utf-8" ?>
<svg xmlns="http://www.w3.org/2000/svg" xmlns:xlink="http://www.w3.org/1999/xlink" width="32" height="32">
	<path fill="rgb(255,255,255)" stroke="none" d="M0 15.9983C0 7.16268 7.16268 0 15.9983 0C24.8292 0.0113244 31.9852 7.1674 31.9966 15.9983C31.9966 24.8339 24.8339 31.9966 15.9983 31.9966C7.16268 31.9966 0 24.8339 0 15.9983ZM16.6846 27.7757L16.6846 30.5896C24.2129 30.2337 30.2369 24.2128 30.5965 16.6846L27.7757 16.6846C27.3966 16.6846 27.0893 16.3773 27.0893 15.9983C27.0893 15.6193 27.3966 15.312 27.7757 15.312L30.5896 15.312C30.2303 7.78629 24.2103 1.76626 16.6846 1.40697L16.6846 4.22091C16.6846 4.59994 16.3773 4.90724 15.9983 4.90724C15.6193 4.90724 15.312 4.59994 15.312 4.22091L15.312 1.40697C7.78629 1.76626 1.76626 7.78629 1.40697 15.312L4.22091 15.312C4.59994 15.312 4.90724 15.6193 4.90724 15.9983C4.90724 16.3773 4.59994 16.6846 4.22091 16.6846L1.40697 16.6846C1.76626 24.2103 7.78629 30.2303 15.312 30.5896L15.312 27.7757C15.312 27.3966 15.6193 27.0893 15.9983 27.0893C16.3773 27.0893 16.6846 27.3966 16.6846 27.7757Z" fill-rule="evenodd"/>
	<path fill="rgb(255,255,255)" stroke="none" transform="translate(15.312 8.10553)" d="M7.92708 14.2756L1.37265 7.61137L1.37265 0.686327C1.37265 0.307303 1.06535 0 0.686327 0C0.307303 0 0 0.307303 0 0.686327L0 7.89276C0.000772118 8.07284 0.0722359 8.24536 0.199035 8.37319L6.94563 15.2365C7.21098 15.5075 7.64577 15.5121 7.91678 15.2468C8.1878 14.9814 8.19243 14.5466 7.92708 14.2756Z"/>

</svg>