<?xml version="1.0" encoding="utf-8" ?>
<svg xmlns="http://www.w3.org/2000/svg" xmlns:xlink="http://www.w3.org/1999/xlink" width="38" height="38">
	<defs>
		<clipPath id="clip_0">
			<rect x="-466" y="-395" width="1366" height="1708" clip-rule="evenodd"/>
		</clipPath>
	</defs>
	<g clip-path="url(#clip_0)">
		<path fill="rgb(0,189,45)" stroke="none" transform="translate(4.75 25.3333)" d="M1.58331 0C0.710496 0 0 0.710496 0 1.58331C0 2.45612 0.710496 3.16669 1.58331 3.16669C2.45612 3.16669 3.16662 2.45619 3.16662 1.58338C3.16662 0.71057 2.4562 0 1.58331 0Z"/>
	</g>
	<defs>
		<clipPath id="clip_1">
			<rect x="-466" y="-395" width="1366" height="1708" clip-rule="evenodd"/>
		</clipPath>
	</defs>
	<g clip-path="url(#clip_1)">
		<path fill="rgb(0,189,45)" stroke="none" transform="translate(12.6665 4.75)" d="M1.58331 0C0.710496 0 0 0.710496 0 1.58331C0 2.45612 0.710496 3.16662 1.58331 3.16662C2.45612 3.16662 3.16662 2.45612 3.16662 1.58331C3.16662 0.710496 2.45612 0 1.58331 0Z"/>
	</g>
	<defs>
		<clipPath id="clip_2">
			<rect x="-466" y="-395" width="1366" height="1708" clip-rule="evenodd"/>
		</clipPath>
	</defs>
	<g clip-path="url(#clip_2)">
		<path fill="rgb(0,189,45)" stroke="none" transform="translate(25.3335 7.91669)" d="M0 6.33331C0 2.84117 2.84117 0 6.33331 0C9.82545 0 12.6666 2.84117 12.6666 6.33331C12.6666 9.5688 7.54552 16.3443 6.96187 17.1068C6.89077 17.1995 6.79903 17.2706 6.69824 17.3233C6.69372 17.3256 6.69193 17.331 6.68741 17.3333L6.68399 17.335L6.68362 17.3351L5.27102 18.0414C5.15739 18.0978 5.03678 18.1249 4.91773 18.1249C4.62702 18.1249 4.34796 17.9649 4.2088 17.6873C4.02399 17.317 4.15625 16.8717 4.50181 16.6591C4.14846 16.4596 4.00002 16.0189 4.17169 15.6424C4.22824 15.518 4.31857 15.4246 4.42054 15.3473C2.71952 12.9276 0 8.69317 0 6.33331ZM1.58331 6.33331C1.58331 8.34887 4.59303 12.9056 6.33331 15.2999C8.07359 12.9055 11.0833 8.34879 11.0833 6.33331C11.0833 3.71398 8.95264 1.58331 6.33331 1.58331C3.71398 1.58331 1.58331 3.71398 1.58331 6.33331Z" fill-rule="evenodd"/>
	</g>
	<defs>
		<clipPath id="clip_3">
			<rect x="-466" y="-395" width="1366" height="1708" clip-rule="evenodd"/>
		</clipPath>
	</defs>
	<g clip-path="url(#clip_3)">
		<path fill="rgb(0,189,45)" stroke="none" transform="translate(30.0835 12.6667)" d="M1.58331 0C0.710496 0 0 0.710496 0 1.58331C0 2.45612 0.710496 3.16662 1.58331 3.16662C2.45612 3.16662 3.16662 2.45612 3.16662 1.58331C3.16662 0.710496 2.45612 0 1.58331 0Z"/>
	</g>
	<defs>
		<clipPath id="clip_4">
			<rect x="-466" y="-395" width="1366" height="1708" clip-rule="evenodd"/>
		</clipPath>
	</defs>
	<g clip-path="url(#clip_4)">
		<path fill="rgb(0,189,45)" stroke="none" transform="translate(0 20.5834)" d="M12.6667 6.33331C12.6667 8.68374 9.96899 12.8934 8.26671 15.3176C8.3436 15.384 8.4095 15.4659 8.45782 15.5626C8.65339 15.9538 8.49493 16.4293 8.10372 16.6249L6.68741 17.333L6.68555 17.3336C6.59426 17.3789 6.49169 17.3963 6.38793 17.4039C6.36975 17.4051 6.35231 17.4166 6.33413 17.4166L6.33375 17.4165L6.33338 17.4166C6.19667 17.4166 6.06894 17.3748 5.95279 17.3102C5.91746 17.2907 5.89349 17.2599 5.8612 17.235C5.80754 17.1936 5.74698 17.1616 5.70482 17.1066C5.12109 16.3443 0 9.5688 0 6.33331C0 2.84117 2.84117 -7.42187e-05 6.33338 0C9.82552 0 12.6667 2.84117 12.6667 6.33331ZM1.58331 6.33323C1.58331 8.34879 4.59303 12.9055 6.33331 15.2998C8.07359 12.9055 11.0833 8.34879 11.0833 6.33323C11.0833 3.71391 8.95264 1.58323 6.33331 1.58323C3.71398 1.58323 1.58331 3.71391 1.58331 6.33323Z" fill-rule="evenodd"/>
	</g>
	<defs>
		<clipPath id="clip_5">
			<rect x="-466" y="-395" width="1366" height="1708" clip-rule="evenodd"/>
		</clipPath>
	</defs>
	<g clip-path="url(#clip_5)">
		<path fill="rgb(0,189,45)" stroke="none" transform="translate(24.4585 25.7084)" d="M2.93816 0.0826384L0.437879 1.33278C0.0466715 1.52835 -0.111786 2.00387 0.0837808 2.39507C0.222941 2.67265 0.502004 2.83267 0.792718 2.83267C0.911765 2.83267 1.03237 2.80558 1.146 2.74917L3.64628 1.49903C4.03749 1.30346 4.19595 0.827943 4.00038 0.436736C3.80489 0.0462712 3.32862 -0.110627 2.93816 0.0826384Z"/>
	</g>
	<defs>
		<clipPath id="clip_6">
			<rect x="-466" y="-395" width="1366" height="1708" clip-rule="evenodd"/>
		</clipPath>
	</defs>
	<g clip-path="url(#clip_6)">
		<path fill="rgb(0,189,45)" stroke="none" transform="translate(9.45801 33.209)" d="M2.93816 0.082804L0.437878 1.33295C0.0466715 1.52851 -0.111786 2.00403 0.0837808 2.39524C0.222941 2.67282 0.502003 2.83283 0.792718 2.83283C0.911765 2.83283 1.03237 2.80574 1.146 2.74934L3.64628 1.4992C4.03749 1.30363 4.19594 0.828109 4.00038 0.436902C3.80407 0.0456947 3.32855 -0.110536 2.93816 0.082804Z"/>
	</g>
	<defs>
		<clipPath id="clip_7">
			<rect x="-466" y="-395" width="1366" height="1708" clip-rule="evenodd"/>
		</clipPath>
	</defs>
	<g clip-path="url(#clip_7)">
		<path fill="rgb(0,189,45)" stroke="none" transform="translate(19.458 28.2079)" d="M2.93816 0.0834552L0.437879 1.3336C0.0466715 1.52916 -0.111786 2.00468 0.0837808 2.39589C0.222941 2.67347 0.502004 2.83348 0.792718 2.83348C0.911765 2.83348 1.03237 2.80639 1.146 2.74999L3.64628 1.49985C4.03749 1.30428 4.19595 0.82876 4.00038 0.437553C3.80407 0.0463458 3.32937 -0.111369 2.93816 0.0834552Z"/>
	</g>
	<defs>
		<clipPath id="clip_8">
			<rect x="-466" y="-395" width="1366" height="1708" clip-rule="evenodd"/>
		</clipPath>
	</defs>
	<g clip-path="url(#clip_8)">
		<path fill="rgb(0,189,45)" stroke="none" transform="translate(14.4585 30.7084)" d="M2.93734 0.0831296L0.437878 1.33327C0.0466715 1.52884 -0.111786 2.00436 0.0837808 2.39556C0.222941 2.67314 0.502003 2.83316 0.792718 2.83316C0.911765 2.83316 1.03237 2.80607 1.146 2.74966L3.64546 1.49952C4.03667 1.30395 4.19513 0.828434 3.99956 0.437227C3.80325 0.0460202 3.32699 -0.110952 2.93734 0.0831296Z"/>
	</g>
	<defs>
		<clipPath id="clip_9">
			<rect x="-466" y="-395" width="1366" height="1708" clip-rule="evenodd"/>
		</clipPath>
	</defs>
	<g clip-path="url(#clip_9)">
		<path fill="rgb(0,189,45)" stroke="none" transform="translate(17.8071 17.8093)" d="M0.0712466 0.464758C-0.109699 0.862942 0.0658286 1.33223 0.464012 1.5131L3.37012 2.83434C3.47685 2.88303 3.58818 2.90544 3.69713 2.90544C3.99868 2.90544 4.28628 2.73303 4.41846 2.44157C4.59941 2.04339 4.42388 1.57411 4.0257 1.39323L1.11959 0.0719924C0.719176 -0.111254 0.250633 0.068133 0.0712466 0.464758Z"/>
	</g>
	<defs>
		<clipPath id="clip_10">
			<rect x="-466" y="-395" width="1366" height="1708" clip-rule="evenodd"/>
		</clipPath>
	</defs>
	<g clip-path="url(#clip_10)">
		<path fill="rgb(0,189,45)" stroke="none" transform="translate(23.6201 20.4521)" d="M3.69795 2.90509C3.9995 2.90509 4.28709 2.73268 4.41928 2.44122C4.60022 2.04304 4.4247 1.57375 4.02651 1.39288L1.11959 0.0716411C0.716801 -0.110789 0.251375 0.0677817 0.0712466 0.464407C-0.109699 0.86259 0.0658286 1.33188 0.464012 1.51275L3.37094 2.83399C3.47759 2.88268 3.58892 2.90509 3.69795 2.90509Z"/>
	</g>
	<defs>
		<clipPath id="clip_11">
			<rect x="-466" y="-395" width="1366" height="1708" clip-rule="evenodd"/>
		</clipPath>
	</defs>
	<g clip-path="url(#clip_11)">
		<path fill="rgb(0,189,45)" stroke="none" transform="translate(7.9165 0)" d="M8.49493 17.6077C8.36275 17.8991 8.07515 18.0715 7.7736 18.0715C7.66464 18.0715 7.55332 18.0491 7.44659 18.0003L6.00563 17.3455C6.00148 17.3436 5.99903 17.3397 5.99487 17.3378C5.96763 17.3249 5.94819 17.3015 5.92258 17.2855C5.85 17.2401 5.7829 17.191 5.73036 17.1276C5.72308 17.119 5.71165 17.1156 5.70482 17.1066C5.12109 16.3443 0 9.5688 0 6.33331C0 2.84117 2.84117 0 6.33331 0C9.82545 0 12.6666 2.84117 12.6666 6.33331C12.6666 9.05372 9.05506 14.2637 7.55539 16.3108L8.10216 16.5593C8.49961 16.7402 8.67587 17.2095 8.49493 17.6077ZM6.33331 1.58331C3.71398 1.58331 1.58331 3.71398 1.58331 6.33331C1.58331 8.34887 4.59303 12.9055 6.33331 15.2999C8.07359 12.9055 11.0833 8.34879 11.0833 6.33331C11.0833 3.71398 8.95264 1.58331 6.33331 1.58331Z" fill-rule="evenodd"/>
	</g>

</svg>