<?xml version="1.0" encoding="utf-8" ?>
<svg xmlns="http://www.w3.org/2000/svg" xmlns:xlink="http://www.w3.org/1999/xlink" width="14" height="26">
	<path fill="rgb(255,255,255)" stroke="none" transform="matrix(0.9921 0 0 0.9921 0.0966797 0.712296)" d="M8.64758 25.2L4.69753 25.2C4.03774 25.2 3.50104 24.6517 3.50104 23.9776L3.50104 14.8752L1.19649 14.8752C0.53671 14.8752 0 14.3267 0 13.6528L0 9.75243C0 9.07836 0.53671 8.53003 1.19649 8.53003L3.50104 8.53003L3.50104 6.57686C3.50104 4.64021 4.09627 2.99254 5.2222 1.81225C6.3532 0.626578 7.93378 0 9.79307 0L12.8056 0.00499875C13.4642 0.00615234 14 0.55448 14 1.22739L14 4.84882C14 5.52288 13.4635 6.07121 12.8039 6.07121L10.7756 6.07198C10.157 6.07198 9.99952 6.19868 9.96583 6.23752C9.91032 6.30192 9.84426 6.48399 9.84426 6.98676L9.84426 8.52984L12.6515 8.52984C12.8628 8.52984 13.0675 8.5831 13.2435 8.68346C13.6231 8.90013 13.859 9.30984 13.859 9.75262L13.8575 13.653C13.8575 14.3267 13.3208 14.875 12.661 14.875L9.84426 14.875L9.84426 23.9776C9.84426 24.6517 9.30736 25.2 8.64758 25.2ZM4.94707 23.7227L8.39804 23.7227L8.39804 14.2138C8.39804 13.7638 8.75654 13.3977 9.1969 13.3977L12.4115 13.3977L12.4128 10.0074L9.19671 10.0074C8.75635 10.0074 8.39804 9.6413 8.39804 9.19122L8.39804 6.98676C8.39804 6.40959 8.45544 5.75321 8.88187 5.25987C9.39713 4.66348 10.2092 4.59465 10.7752 4.59465L12.554 4.59388L12.554 1.48195L9.79195 1.47733C6.80391 1.47733 4.94707 3.43147 4.94707 6.57686L4.94707 9.19122C4.94707 9.64111 4.58876 10.0074 4.1484 10.0074L1.44603 10.0074L1.44603 13.3977L4.1484 13.3977C4.58876 13.3977 4.94707 13.7638 4.94707 14.2138L4.94707 23.7227Z" fill-rule="evenodd"/>

</svg>