<?xml version="1.0" encoding="utf-8" ?>
<svg xmlns="http://www.w3.org/2000/svg" xmlns:xlink="http://www.w3.org/1999/xlink" width="29" height="37">
	<defs>
		<clipPath id="clip_0">
			<path d="M270 -31L-28 -31Q-28.1538 -31 -28.3052 -30.986Q-28.4565 -30.972 -28.6043 -30.9442Q-28.7521 -30.9163 -28.8951 -30.8748Q-29.038 -30.8334 -29.175 -30.7786Q-29.312 -30.7238 -29.4419 -30.6561Q-29.5717 -30.5885 -29.6935 -30.5085Q-29.8152 -30.4286 -29.9278 -30.337Q-30.0404 -30.2454 -30.1429 -30.1429Q-30.2454 -30.0404 -30.337 -29.9278Q-30.4286 -29.8152 -30.5085 -29.6935Q-30.5885 -29.5717 -30.6561 -29.4419Q-30.7238 -29.312 -30.7786 -29.175Q-30.8334 -29.038 -30.8749 -28.8951Q-30.9163 -28.7521 -30.9442 -28.6043Q-30.972 -28.4565 -30.986 -28.3052Q-31 -28.1538 -31 -28L-31 143Q-31 143.154 -30.986 143.305Q-30.972 143.457 -30.9442 143.604Q-30.9163 143.752 -30.8749 143.895Q-30.8334 144.038 -30.7786 144.175Q-30.7238 144.312 -30.6561 144.442Q-30.5885 144.572 -30.5085 144.693Q-30.4286 144.815 -30.337 144.928Q-30.2454 145.04 -30.1429 145.143Q-30.0404 145.245 -29.9278 145.337Q-29.8152 145.429 -29.6935 145.509Q-29.5717 145.588 -29.4419 145.656Q-29.312 145.724 -29.175 145.779Q-29.038 145.833 -28.8951 145.875Q-28.7521 145.916 -28.6043 145.944Q-28.4565 145.972 -28.3052 145.986Q-28.1538 146 -28 146L270 146Q270.154 146 270.305 145.986Q270.457 145.972 270.604 145.944Q270.752 145.916 270.895 145.875Q271.038 145.833 271.175 145.779Q271.312 145.724 271.442 145.656Q271.572 145.588 271.693 145.509Q271.815 145.429 271.928 145.337Q272.04 145.245 272.143 145.143Q272.245 145.04 272.337 144.928Q272.429 144.815 272.509 144.693Q272.588 144.572 272.656 144.442Q272.724 144.312 272.779 144.175Q272.833 144.038 272.875 143.895Q272.916 143.752 272.944 143.604Q272.972 143.457 272.986 143.305Q273 143.154 273 143L273 -28Q273 -28.1538 272.986 -28.3052Q272.972 -28.4565 272.944 -28.6043Q272.916 -28.7521 272.875 -28.8951Q272.833 -29.038 272.779 -29.175Q272.724 -29.312 272.656 -29.4419Q272.588 -29.5717 272.509 -29.6935Q272.429 -29.8152 272.337 -29.9278Q272.245 -30.0404 272.143 -30.1429Q272.04 -30.2454 271.928 -30.337Q271.815 -30.4286 271.693 -30.5085Q271.572 -30.5885 271.442 -30.6561Q271.312 -30.7238 271.175 -30.7786Q271.038 -30.8334 270.895 -30.8748Q270.752 -30.9163 270.604 -30.9442Q270.457 -30.972 270.305 -30.986Q270.154 -31 270 -31Z" clip-rule="evenodd"/>
		</clipPath>
	</defs>
	<g clip-path="url(#clip_0)">
		<path fill="rgb(0,123,31)" stroke="none" transform="translate(7.85413 15.1041)" d="M15.7083 0L0.604167 0C0.270667 0 0 0.270062 0 0.604167C0 0.938271 0.270667 1.20833 0.604167 1.20833L15.7083 1.20833C16.0418 1.20833 16.3125 0.938271 16.3125 0.604167C16.3125 0.270062 16.0418 0 15.7083 0Z"/>
	</g>
	<defs>
		<clipPath id="clip_1">
			<path d="M270 -31L-28 -31Q-28.1538 -31 -28.3052 -30.986Q-28.4565 -30.972 -28.6043 -30.9442Q-28.7521 -30.9163 -28.8951 -30.8748Q-29.038 -30.8334 -29.175 -30.7786Q-29.312 -30.7238 -29.4419 -30.6561Q-29.5717 -30.5885 -29.6935 -30.5085Q-29.8152 -30.4286 -29.9278 -30.337Q-30.0404 -30.2454 -30.1429 -30.1429Q-30.2454 -30.0404 -30.337 -29.9278Q-30.4286 -29.8152 -30.5085 -29.6935Q-30.5885 -29.5717 -30.6561 -29.4419Q-30.7238 -29.312 -30.7786 -29.175Q-30.8334 -29.038 -30.8749 -28.8951Q-30.9163 -28.7521 -30.9442 -28.6043Q-30.972 -28.4565 -30.986 -28.3052Q-31 -28.1538 -31 -28L-31 143Q-31 143.154 -30.986 143.305Q-30.972 143.457 -30.9442 143.604Q-30.9163 143.752 -30.8749 143.895Q-30.8334 144.038 -30.7786 144.175Q-30.7238 144.312 -30.6561 144.442Q-30.5885 144.572 -30.5085 144.693Q-30.4286 144.815 -30.337 144.928Q-30.2454 145.04 -30.1429 145.143Q-30.0404 145.245 -29.9278 145.337Q-29.8152 145.429 -29.6935 145.509Q-29.5717 145.588 -29.4419 145.656Q-29.312 145.724 -29.175 145.779Q-29.038 145.833 -28.8951 145.875Q-28.7521 145.916 -28.6043 145.944Q-28.4565 145.972 -28.3052 145.986Q-28.1538 146 -28 146L270 146Q270.154 146 270.305 145.986Q270.457 145.972 270.604 145.944Q270.752 145.916 270.895 145.875Q271.038 145.833 271.175 145.779Q271.312 145.724 271.442 145.656Q271.572 145.588 271.693 145.509Q271.815 145.429 271.928 145.337Q272.04 145.245 272.143 145.143Q272.245 145.04 272.337 144.928Q272.429 144.815 272.509 144.693Q272.588 144.572 272.656 144.442Q272.724 144.312 272.779 144.175Q272.833 144.038 272.875 143.895Q272.916 143.752 272.944 143.604Q272.972 143.457 272.986 143.305Q273 143.154 273 143L273 -28Q273 -28.1538 272.986 -28.3052Q272.972 -28.4565 272.944 -28.6043Q272.916 -28.7521 272.875 -28.8951Q272.833 -29.038 272.779 -29.175Q272.724 -29.312 272.656 -29.4419Q272.588 -29.5717 272.509 -29.6935Q272.429 -29.8152 272.337 -29.9278Q272.245 -30.0404 272.143 -30.1429Q272.04 -30.2454 271.928 -30.337Q271.815 -30.4286 271.693 -30.5085Q271.572 -30.5885 271.442 -30.6561Q271.312 -30.7238 271.175 -30.7786Q271.038 -30.8334 270.895 -30.8748Q270.752 -30.9163 270.604 -30.9442Q270.457 -30.972 270.305 -30.986Q270.154 -31 270 -31Z" clip-rule="evenodd"/>
		</clipPath>
	</defs>
	<g clip-path="url(#clip_1)">
		<path fill="rgb(0,123,31)" stroke="none" transform="translate(7.85413 10.2709)" d="M0.604167 1.20833L6.64583 1.20833C6.97933 1.20833 7.25 0.938271 7.25 0.604167C7.25 0.270062 6.97933 0 6.64583 0L0.604167 0C0.270667 0 0 0.270062 0 0.604167C0 0.938271 0.270667 1.20833 0.604167 1.20833Z"/>
	</g>
	<defs>
		<clipPath id="clip_2">
			<path d="M270 -31L-28 -31Q-28.1538 -31 -28.3052 -30.986Q-28.4565 -30.972 -28.6043 -30.9442Q-28.7521 -30.9163 -28.8951 -30.8748Q-29.038 -30.8334 -29.175 -30.7786Q-29.312 -30.7238 -29.4419 -30.6561Q-29.5717 -30.5885 -29.6935 -30.5085Q-29.8152 -30.4286 -29.9278 -30.337Q-30.0404 -30.2454 -30.1429 -30.1429Q-30.2454 -30.0404 -30.337 -29.9278Q-30.4286 -29.8152 -30.5085 -29.6935Q-30.5885 -29.5717 -30.6561 -29.4419Q-30.7238 -29.312 -30.7786 -29.175Q-30.8334 -29.038 -30.8749 -28.8951Q-30.9163 -28.7521 -30.9442 -28.6043Q-30.972 -28.4565 -30.986 -28.3052Q-31 -28.1538 -31 -28L-31 143Q-31 143.154 -30.986 143.305Q-30.972 143.457 -30.9442 143.604Q-30.9163 143.752 -30.8749 143.895Q-30.8334 144.038 -30.7786 144.175Q-30.7238 144.312 -30.6561 144.442Q-30.5885 144.572 -30.5085 144.693Q-30.4286 144.815 -30.337 144.928Q-30.2454 145.04 -30.1429 145.143Q-30.0404 145.245 -29.9278 145.337Q-29.8152 145.429 -29.6935 145.509Q-29.5717 145.588 -29.4419 145.656Q-29.312 145.724 -29.175 145.779Q-29.038 145.833 -28.8951 145.875Q-28.7521 145.916 -28.6043 145.944Q-28.4565 145.972 -28.3052 145.986Q-28.1538 146 -28 146L270 146Q270.154 146 270.305 145.986Q270.457 145.972 270.604 145.944Q270.752 145.916 270.895 145.875Q271.038 145.833 271.175 145.779Q271.312 145.724 271.442 145.656Q271.572 145.588 271.693 145.509Q271.815 145.429 271.928 145.337Q272.04 145.245 272.143 145.143Q272.245 145.04 272.337 144.928Q272.429 144.815 272.509 144.693Q272.588 144.572 272.656 144.442Q272.724 144.312 272.779 144.175Q272.833 144.038 272.875 143.895Q272.916 143.752 272.944 143.604Q272.972 143.457 272.986 143.305Q273 143.154 273 143L273 -28Q273 -28.1538 272.986 -28.3052Q272.972 -28.4565 272.944 -28.6043Q272.916 -28.7521 272.875 -28.8951Q272.833 -29.038 272.779 -29.175Q272.724 -29.312 272.656 -29.4419Q272.588 -29.5717 272.509 -29.6935Q272.429 -29.8152 272.337 -29.9278Q272.245 -30.0404 272.143 -30.1429Q272.04 -30.2454 271.928 -30.337Q271.815 -30.4286 271.693 -30.5085Q271.572 -30.5885 271.442 -30.6561Q271.312 -30.7238 271.175 -30.7786Q271.038 -30.8334 270.895 -30.8748Q270.752 -30.9163 270.604 -30.9442Q270.457 -30.972 270.305 -30.986Q270.154 -31 270 -31Z" clip-rule="evenodd"/>
		</clipPath>
	</defs>
	<g clip-path="url(#clip_2)">
		<path fill="rgb(0,123,31)" stroke="none" transform="translate(7.85413 19.9375)" d="M15.7083 0L0.604167 0C0.270667 0 0 0.270063 0 0.604167C0 0.938271 0.270667 1.20833 0.604167 1.20833L15.7083 1.20833C16.0418 1.20833 16.3125 0.938271 16.3125 0.604167C16.3125 0.270063 16.0418 0 15.7083 0Z"/>
	</g>
	<defs>
		<clipPath id="clip_3">
			<path d="M270 -31L-28 -31Q-28.1538 -31 -28.3052 -30.986Q-28.4565 -30.972 -28.6043 -30.9442Q-28.7521 -30.9163 -28.8951 -30.8748Q-29.038 -30.8334 -29.175 -30.7786Q-29.312 -30.7238 -29.4419 -30.6561Q-29.5717 -30.5885 -29.6935 -30.5085Q-29.8152 -30.4286 -29.9278 -30.337Q-30.0404 -30.2454 -30.1429 -30.1429Q-30.2454 -30.0404 -30.337 -29.9278Q-30.4286 -29.8152 -30.5085 -29.6935Q-30.5885 -29.5717 -30.6561 -29.4419Q-30.7238 -29.312 -30.7786 -29.175Q-30.8334 -29.038 -30.8749 -28.8951Q-30.9163 -28.7521 -30.9442 -28.6043Q-30.972 -28.4565 -30.986 -28.3052Q-31 -28.1538 -31 -28L-31 143Q-31 143.154 -30.986 143.305Q-30.972 143.457 -30.9442 143.604Q-30.9163 143.752 -30.8749 143.895Q-30.8334 144.038 -30.7786 144.175Q-30.7238 144.312 -30.6561 144.442Q-30.5885 144.572 -30.5085 144.693Q-30.4286 144.815 -30.337 144.928Q-30.2454 145.04 -30.1429 145.143Q-30.0404 145.245 -29.9278 145.337Q-29.8152 145.429 -29.6935 145.509Q-29.5717 145.588 -29.4419 145.656Q-29.312 145.724 -29.175 145.779Q-29.038 145.833 -28.8951 145.875Q-28.7521 145.916 -28.6043 145.944Q-28.4565 145.972 -28.3052 145.986Q-28.1538 146 -28 146L270 146Q270.154 146 270.305 145.986Q270.457 145.972 270.604 145.944Q270.752 145.916 270.895 145.875Q271.038 145.833 271.175 145.779Q271.312 145.724 271.442 145.656Q271.572 145.588 271.693 145.509Q271.815 145.429 271.928 145.337Q272.04 145.245 272.143 145.143Q272.245 145.04 272.337 144.928Q272.429 144.815 272.509 144.693Q272.588 144.572 272.656 144.442Q272.724 144.312 272.779 144.175Q272.833 144.038 272.875 143.895Q272.916 143.752 272.944 143.604Q272.972 143.457 272.986 143.305Q273 143.154 273 143L273 -28Q273 -28.1538 272.986 -28.3052Q272.972 -28.4565 272.944 -28.6043Q272.916 -28.7521 272.875 -28.8951Q272.833 -29.038 272.779 -29.175Q272.724 -29.312 272.656 -29.4419Q272.588 -29.5717 272.509 -29.6935Q272.429 -29.8152 272.337 -29.9278Q272.245 -30.0404 272.143 -30.1429Q272.04 -30.2454 271.928 -30.337Q271.815 -30.4286 271.693 -30.5085Q271.572 -30.5885 271.442 -30.6561Q271.312 -30.7238 271.175 -30.7786Q271.038 -30.8334 270.895 -30.8748Q270.752 -30.9163 270.604 -30.9442Q270.457 -30.972 270.305 -30.986Q270.154 -31 270 -31Z" clip-rule="evenodd"/>
		</clipPath>
	</defs>
	<g clip-path="url(#clip_3)">
		<path fill="rgb(0,123,31)" stroke="none" transform="translate(7.85413 24.7709)" d="M15.7083 0L0.604167 0C0.270667 0 0 0.270063 0 0.604167C0 0.938271 0.270667 1.20833 0.604167 1.20833L15.7083 1.20833C16.0418 1.20833 16.3125 0.938271 16.3125 0.604167C16.3125 0.270063 16.0418 0 15.7083 0Z"/>
	</g>
	<defs>
		<clipPath id="clip_4">
			<path d="M270 -31L-28 -31Q-28.1538 -31 -28.3052 -30.986Q-28.4565 -30.972 -28.6043 -30.9442Q-28.7521 -30.9163 -28.8951 -30.8748Q-29.038 -30.8334 -29.175 -30.7786Q-29.312 -30.7238 -29.4419 -30.6561Q-29.5717 -30.5885 -29.6935 -30.5085Q-29.8152 -30.4286 -29.9278 -30.337Q-30.0404 -30.2454 -30.1429 -30.1429Q-30.2454 -30.0404 -30.337 -29.9278Q-30.4286 -29.8152 -30.5085 -29.6935Q-30.5885 -29.5717 -30.6561 -29.4419Q-30.7238 -29.312 -30.7786 -29.175Q-30.8334 -29.038 -30.8749 -28.8951Q-30.9163 -28.7521 -30.9442 -28.6043Q-30.972 -28.4565 -30.986 -28.3052Q-31 -28.1538 -31 -28L-31 143Q-31 143.154 -30.986 143.305Q-30.972 143.457 -30.9442 143.604Q-30.9163 143.752 -30.8749 143.895Q-30.8334 144.038 -30.7786 144.175Q-30.7238 144.312 -30.6561 144.442Q-30.5885 144.572 -30.5085 144.693Q-30.4286 144.815 -30.337 144.928Q-30.2454 145.04 -30.1429 145.143Q-30.0404 145.245 -29.9278 145.337Q-29.8152 145.429 -29.6935 145.509Q-29.5717 145.588 -29.4419 145.656Q-29.312 145.724 -29.175 145.779Q-29.038 145.833 -28.8951 145.875Q-28.7521 145.916 -28.6043 145.944Q-28.4565 145.972 -28.3052 145.986Q-28.1538 146 -28 146L270 146Q270.154 146 270.305 145.986Q270.457 145.972 270.604 145.944Q270.752 145.916 270.895 145.875Q271.038 145.833 271.175 145.779Q271.312 145.724 271.442 145.656Q271.572 145.588 271.693 145.509Q271.815 145.429 271.928 145.337Q272.04 145.245 272.143 145.143Q272.245 145.04 272.337 144.928Q272.429 144.815 272.509 144.693Q272.588 144.572 272.656 144.442Q272.724 144.312 272.779 144.175Q272.833 144.038 272.875 143.895Q272.916 143.752 272.944 143.604Q272.972 143.457 272.986 143.305Q273 143.154 273 143L273 -28Q273 -28.1538 272.986 -28.3052Q272.972 -28.4565 272.944 -28.6043Q272.916 -28.7521 272.875 -28.8951Q272.833 -29.038 272.779 -29.175Q272.724 -29.312 272.656 -29.4419Q272.588 -29.5717 272.509 -29.6935Q272.429 -29.8152 272.337 -29.9278Q272.245 -30.0404 272.143 -30.1429Q272.04 -30.2454 271.928 -30.337Q271.815 -30.4286 271.693 -30.5085Q271.572 -30.5885 271.442 -30.6561Q271.312 -30.7238 271.175 -30.7786Q271.038 -30.8334 270.895 -30.8748Q270.752 -30.9163 270.604 -30.9442Q270.457 -30.972 270.305 -30.986Q270.154 -31 270 -31Z" clip-rule="evenodd"/>
		</clipPath>
	</defs>
	<g clip-path="url(#clip_4)">
		<path fill="rgb(0,123,31)" stroke="none" transform="translate(7.85413 29.6041)" d="M15.7083 0L0.604167 0C0.270667 0 0 0.270063 0 0.604167C0 0.938271 0.270667 1.20833 0.604167 1.20833L15.7083 1.20833C16.0418 1.20833 16.3125 0.938271 16.3125 0.604167C16.3125 0.270063 16.0418 0 15.7083 0Z"/>
	</g>
	<defs>
		<clipPath id="clip_5">
			<path d="M270 -31L-28 -31Q-28.1538 -31 -28.3052 -30.986Q-28.4565 -30.972 -28.6043 -30.9442Q-28.7521 -30.9163 -28.8951 -30.8748Q-29.038 -30.8334 -29.175 -30.7786Q-29.312 -30.7238 -29.4419 -30.6561Q-29.5717 -30.5885 -29.6935 -30.5085Q-29.8152 -30.4286 -29.9278 -30.337Q-30.0404 -30.2454 -30.1429 -30.1429Q-30.2454 -30.0404 -30.337 -29.9278Q-30.4286 -29.8152 -30.5085 -29.6935Q-30.5885 -29.5717 -30.6561 -29.4419Q-30.7238 -29.312 -30.7786 -29.175Q-30.8334 -29.038 -30.8749 -28.8951Q-30.9163 -28.7521 -30.9442 -28.6043Q-30.972 -28.4565 -30.986 -28.3052Q-31 -28.1538 -31 -28L-31 143Q-31 143.154 -30.986 143.305Q-30.972 143.457 -30.9442 143.604Q-30.9163 143.752 -30.8749 143.895Q-30.8334 144.038 -30.7786 144.175Q-30.7238 144.312 -30.6561 144.442Q-30.5885 144.572 -30.5085 144.693Q-30.4286 144.815 -30.337 144.928Q-30.2454 145.04 -30.1429 145.143Q-30.0404 145.245 -29.9278 145.337Q-29.8152 145.429 -29.6935 145.509Q-29.5717 145.588 -29.4419 145.656Q-29.312 145.724 -29.175 145.779Q-29.038 145.833 -28.8951 145.875Q-28.7521 145.916 -28.6043 145.944Q-28.4565 145.972 -28.3052 145.986Q-28.1538 146 -28 146L270 146Q270.154 146 270.305 145.986Q270.457 145.972 270.604 145.944Q270.752 145.916 270.895 145.875Q271.038 145.833 271.175 145.779Q271.312 145.724 271.442 145.656Q271.572 145.588 271.693 145.509Q271.815 145.429 271.928 145.337Q272.04 145.245 272.143 145.143Q272.245 145.04 272.337 144.928Q272.429 144.815 272.509 144.693Q272.588 144.572 272.656 144.442Q272.724 144.312 272.779 144.175Q272.833 144.038 272.875 143.895Q272.916 143.752 272.944 143.604Q272.972 143.457 272.986 143.305Q273 143.154 273 143L273 -28Q273 -28.1538 272.986 -28.3052Q272.972 -28.4565 272.944 -28.6043Q272.916 -28.7521 272.875 -28.8951Q272.833 -29.038 272.779 -29.175Q272.724 -29.312 272.656 -29.4419Q272.588 -29.5717 272.509 -29.6935Q272.429 -29.8152 272.337 -29.9278Q272.245 -30.0404 272.143 -30.1429Q272.04 -30.2454 271.928 -30.337Q271.815 -30.4286 271.693 -30.5085Q271.572 -30.5885 271.442 -30.6561Q271.312 -30.7238 271.175 -30.7786Q271.038 -30.8334 270.895 -30.8748Q270.752 -30.9163 270.604 -30.9442Q270.457 -30.972 270.305 -30.986Q270.154 -31 270 -31Z" clip-rule="evenodd"/>
		</clipPath>
	</defs>
	<g clip-path="url(#clip_5)">
		<path fill="rgb(0,123,31)" stroke="none" d="M25.9792 0L25.9792 8.81238L29 11.8332L29 36.25L3.02083 36.25L3.02083 33.2292L0 33.2292L0 0L25.9792 0ZM1.20833 32.0208L1.20833 1.20833L24.7708 1.20833L24.7708 7.60404L20.1876 3.02083L3.02083 3.02083L3.02083 32.0208L1.20833 32.0208ZM4.22917 33.2292L4.22917 35.0417L27.7917 35.0417L27.7917 12.6875L19.3333 12.6875L19.3333 4.22917L4.22917 4.22917L4.22917 33.2292ZM25.9792 10.521L20.5417 5.08346L20.5417 11.4792L26.9374 11.4792L25.9792 10.521Z" fill-rule="evenodd"/>
	</g>

</svg>