<?xml version="1.0" encoding="utf-8" ?>
<svg xmlns="http://www.w3.org/2000/svg" xmlns:xlink="http://www.w3.org/1999/xlink" width="74" height="33">
	<path fill="rgb(0,189,45)" stroke="none" transform="translate(61.6086 22.4763)" d="M0 4.0232C0 1.8014 1.8014 0 4.0232 0C6.24499 0 8.04639 1.8014 8.04639 4.0232C8.04639 6.24499 6.24499 8.04639 4.0232 8.04639C1.8014 8.04639 0 6.24499 0 4.0232ZM2.68213 4.0232C2.68213 4.76379 3.2826 5.36426 4.0232 5.36426C4.76379 5.36426 5.36426 4.76379 5.36426 4.0232C5.36426 3.2826 4.76379 2.68213 4.0232 2.68213C3.2826 2.68213 2.68213 3.2826 2.68213 4.0232Z" fill-rule="evenodd"/>
	<path fill="rgb(0,189,45)" stroke="none" transform="translate(33.4463 22.4763)" d="M0 2.0116C0 0.900701 1.8014 0 4.0232 0C6.24499 0 8.04639 0.900701 8.04639 2.0116C8.04639 3.1225 6.24499 4.0232 4.0232 4.0232C1.8014 4.0232 0 3.1225 0 2.0116ZM2.68213 2.0116C2.68213 2.3819 3.2826 2.68213 4.0232 2.68213C4.76379 2.68213 5.36426 2.3819 5.36426 2.0116C5.36426 1.6413 4.76379 1.34107 4.0232 1.34107C3.2826 1.34107 2.68213 1.6413 2.68213 2.0116Z" fill-rule="evenodd"/>
	<path fill="rgb(0,189,45)" stroke="none" transform="translate(36.1284 25.1584)" d="M2.68213 0.694085C2.68213 1.07739 2.08166 1.38817 1.34107 1.38817C0.600467 1.38817 0 1.07739 0 0.694085C0 0.310779 0.600467 0 1.34107 0C2.08166 0 2.68213 0.310779 2.68213 0.694085Z"/>
	<path fill="rgb(0,189,45)" stroke="none" transform="translate(64.2908 25.1584)" d="M2.68213 1.34107C2.68213 2.08166 2.08167 2.68213 1.34107 2.68213C0.600468 2.68213 0 2.08166 0 1.34107C0 0.600467 0.600468 0 1.34107 0C2.08167 0 2.68213 0.600467 2.68213 1.34107Z"/>
	<path fill="rgb(0,189,45)" stroke="none" transform="translate(31.4346 2.20471)" d="M30.174 4.73888L27.4918 4.17876L27.4918 20.9421L27.4918 0L-9.58035e-15 0L-9.58035e-15 24.2947L2.0116 24.2947C2.0116 22.073 3.813 20.2715 6.0348 20.2715C8.25659 20.2715 10.058 22.073 10.058 24.2947L30.174 24.2947C30.174 22.073 31.9754 20.2715 34.1972 20.2715C36.419 20.2715 38.2204 22.073 38.2204 24.2947L40.232 24.2947L40.232 14.2368L30.174 14.2368L30.174 4.73888Z"/>
	<path fill="rgb(0,123,31)" stroke="none" transform="translate(23.7432 0.796326)" d="M48.4598 13.2312L42.425 5.18479C42.2986 5.01617 42.0999 4.91664 41.8887 4.91664L35.8539 4.91664L35.8539 0.670533C35.8539 0.300234 35.5537 0 35.1834 0L0.670533 0C0.300234 0 0 0.300234 0 0.670533L0 25.7032C0 26.0735 0.300234 26.3737 0.670533 26.3737L37.2486 26.3737C37.58 28.6816 39.5572 30.3949 41.8887 30.3949C44.2202 30.3949 46.1974 28.6816 46.5287 26.3737L47.9235 26.3737C48.2938 26.3737 48.594 26.0735 48.594 25.7032L48.594 13.6336C48.594 13.4885 48.5469 13.3474 48.4598 13.2312ZM34.5128 21.68L34.5128 1.44272L8.36204 1.44272L8.36204 21.68L11.0442 21.68C11.1152 21.6826 11.1856 21.697 11.2521 21.7222C12.7647 20.7717 14.6879 20.7717 16.2005 21.7222C16.267 21.697 16.3374 21.6826 16.4084 21.68L34.5128 21.68ZM37.195 15.6452L37.195 6.25771L35.8539 6.25771L35.8539 21.68L39.2066 21.68C39.2776 21.6826 39.348 21.697 39.4145 21.7222C40.9271 20.7717 42.8503 20.7717 44.3629 21.7222C44.4294 21.697 44.4998 21.6826 44.5708 21.68L47.2529 21.68L47.2529 16.3157L37.8655 16.3157C37.4952 16.3157 37.195 16.0155 37.195 15.6452ZM47.2529 13.8569L47.2529 14.9746L38.536 14.9746L38.536 6.25771L41.5534 6.25771L47.2529 13.8569ZM10.3736 24.0268C10.3736 24.9526 11.8748 25.7032 13.7263 25.7032C15.5771 25.702 17.0767 24.9522 17.079 24.0268C17.079 23.1011 15.5778 22.3505 13.7263 22.3505C11.8748 22.3505 10.3736 23.1011 10.3736 24.0268ZM41.8887 29.0558C40.0372 29.0558 38.536 27.5547 38.536 25.7032C38.536 23.8517 40.0372 22.3505 41.8887 22.3505C43.7402 22.3505 45.2413 23.8517 45.2413 25.7032C45.2391 27.554 43.7395 29.0535 41.8887 29.0558ZM8.36204 23.021L9.88023 23.021C9.46115 23.6199 9.1894 24.3091 9.08627 25.0326L8.36204 25.0326L8.36204 23.021ZM37.2486 25.0326L18.3663 25.0326C18.2632 24.3091 17.9915 23.6199 17.5724 23.021L38.0426 23.021C37.6235 23.6199 37.3518 24.3091 37.2486 25.0326ZM45.7347 23.021C46.1538 23.6199 46.4256 24.3091 46.5287 25.0326L47.2529 25.0326L47.2529 23.021L45.7347 23.021Z" fill-rule="evenodd"/>
	<path fill="rgb(0,123,31)" stroke="none" transform="translate(35.4578 24.4879)" d="M0 1.0058C0 0.450351 0.900701 0 2.0116 0C3.1225 0 4.0232 0.450351 4.0232 1.0058C4.0232 1.56125 3.1225 2.0116 2.0116 2.0116C0.900701 2.0116 0 1.56125 0 1.0058ZM1.34107 1.0058C1.34107 1.19095 1.6413 1.34107 2.0116 1.34107C2.3819 1.34107 2.68213 1.19095 2.68213 1.0058C2.68213 0.82065 2.3819 0.670533 2.0116 0.670533C1.6413 0.670533 1.34107 0.82065 1.34107 1.0058Z" fill-rule="evenodd"/>
	<path fill="rgb(0,123,31)" stroke="none" transform="translate(63.6204 24.4879)" d="M0 2.0116C0 0.900701 0.900701 0 2.0116 0C3.1225 0 4.0232 0.900701 4.0232 2.0116C4.0232 3.1225 3.1225 4.0232 2.0116 4.0232C0.900701 4.0232 0 3.1225 0 2.0116ZM1.34107 2.0116C1.34107 2.3819 1.6413 2.68213 2.0116 2.68213C2.3819 2.68213 2.68213 2.3819 2.68213 2.0116C2.68213 1.6413 2.3819 1.34107 2.0116 1.34107C1.6413 1.34107 1.34107 1.6413 1.34107 2.0116Z" fill-rule="evenodd"/>
	<path fill="rgb(0,123,31)" stroke="none" transform="translate(60.6968 18.2921)" d="M0.670533 1.34107L3.35266 1.34107C3.72296 1.34107 4.0232 1.04083 4.0232 0.670533C4.0232 0.300234 3.72296 0 3.35266 0L0.670533 0C0.300234 0 0 0.300234 0 0.670533C0 1.04083 0.300234 1.34107 0.670533 1.34107Z"/>
	<path fill="rgb(0,189,45)" stroke="none" transform="translate(25.3098 2.25482)" d="M0 0L7.11725 0L11.8478 19.4902C11.8478 19.4902 10.9345 19.1622 9.30115 20.6156C7.66777 22.069 7.11725 23.5435 7.11725 23.5435L0 23.5435L0 0Z"/>
	<defs>
		<clipPath id="clip_0">
			<path d="M40.7418 22.4495L24.1125 22.4495L24.1125 23.8376L35.1995 23.8376C35.1995 23.8376 36.4023 22.8528 37.5008 22.8528C38.5992 22.8528 39.5862 23.8376 39.5862 23.8376L40.7418 23.8376L40.7418 22.4495Z" clip-rule="evenodd"/>
		</clipPath>
	</defs>
	<g clip-path="url(#clip_0)">
		<path fill="none" stroke="rgb(0,123,31)" stroke-width="2" stroke-miterlimit="4" transform="translate(24.1125 22.4495)" d="M0 0L16.6292 0L16.6292 1.38817L15.4737 1.38817C15.4737 1.38817 14.4867 0.403348 13.3882 0.403348C12.2897 0.403348 11.087 1.38817 11.087 1.38817L0 1.38817L0 0Z"/>
	</g>
	<path fill="rgb(0,189,45)" stroke="none" transform="translate(60.6504 11.8093)" d="M1.17943 0.0134441L8.19572 0.581899Q8.2981 0.590194 8.40301 0.615593Q8.50792 0.640991 8.61195 0.682667Q8.71597 0.724343 8.81573 0.780939Q8.91548 0.837536 9.00771 0.907209Q9.09994 0.976883 9.18165 1.05737Q9.26336 1.13785 9.33188 1.22652Q9.4004 1.31519 9.45351 1.40916Q9.50662 1.50314 9.54258 1.59935L10.6517 4.56653Q10.6877 4.66275 10.7036 4.75522Q10.7196 4.84769 10.715 4.93341Q10.7105 5.01912 10.6855 5.09529Q10.6606 5.17146 10.6161 5.2356Q10.5716 5.29975 10.509 5.34978Q10.4463 5.39981 10.3677 5.43409Q10.289 5.46838 10.1968 5.48581Q10.1046 5.50323 10.0018 5.50323L0.967216 5.50323Q0.864498 5.50323 0.766498 5.48464Q0.668497 5.46605 0.578404 5.42948Q0.48831 5.3929 0.409058 5.33953Q0.329805 5.28616 0.263974 5.21773Q0.198142 5.1493 0.147875 5.06805Q0.0976081 4.98679 0.0645419 4.89535Q0.0314757 4.80391 0.016687 4.70527Q0.00189835 4.60662 0.00586866 4.50398L0.144041 0.931942Q0.148011 0.829301 0.170371 0.732158Q0.19273 0.635014 0.232751 0.54653Q0.272771 0.458046 0.32915 0.381103Q0.385529 0.30416 0.456431 0.241263Q0.527333 0.178366 0.610448 0.131562Q0.693564 0.0847585 0.786188 0.0555723Q0.878812 0.0263861 0.977929 0.0157676Q1.07705 0.00514917 1.17943 0.0134441Z"/>
	<path fill="rgb(247,247,247)" stroke="none" transform="translate(59.6377 4.98877)" d="M1.87892e-16 0L11.868 0L13.539 12.4719L1.51311 9.10628L0 7.93257L1.87892e-16 0Z"/>
	<path fill="rgb(216,216,216)" stroke="none" transform="translate(59.0337 12.2455)" d="M0 0C0 0 12.0126 3.64243 12.6487 3.89179C13.2848 4.14115 13.3034 5.2151 13.3034 5.2151L0 1.25724L0 0Z"/>
	<defs>
		<clipPath id="clip_1">
			<path d="M71.6824 16.1373C71.0463 15.888 59.0337 12.2455 59.0337 12.2455L59.0337 13.5028L72.3371 17.4606C72.3371 17.4606 72.3185 16.3867 71.6824 16.1373Z" clip-rule="evenodd"/>
		</clipPath>
	</defs>
	<g clip-path="url(#clip_1)">
		<path fill="none" stroke="rgb(0,123,31)" stroke-width="2" stroke-miterlimit="4" transform="translate(59.0337 12.2455)" d="M0 0C0 0 12.0126 3.64243 12.6487 3.89179C13.2848 4.14115 13.3034 5.2151 13.3034 5.2151L0 1.25724L0 0Z"/>
	</g>
	<path fill="rgb(255,255,255)" stroke="none" transform="translate(58.3096 0.808044)" d="M0.998159 0.00859623L13.0107 0.738586Q13.1132 0.744816 13.2118 0.769409Q13.3103 0.794001 13.4017 0.836155Q13.493 0.878309 13.5742 0.936652Q13.6553 0.994994 13.7237 1.06763Q13.792 1.14026 13.8454 1.22482Q13.8987 1.30937 13.9352 1.4031Q13.9717 1.49683 13.9903 1.59668Q14.0089 1.69653 14.0089 1.79924L14.0089 16.0452Q14.0089 16.1479 13.9907 16.2425Q13.9726 16.337 13.9369 16.4203Q13.9013 16.5036 13.8492 16.5729Q13.7972 16.6422 13.7305 16.6953Q13.6637 16.7484 13.5845 16.7836Q13.5053 16.8187 13.4161 16.8348Q13.3269 16.8508 13.2307 16.8472Q13.1345 16.8437 13.0344 16.8206L0.974448 14.0407Q0.874355 14.0176 0.778157 13.9769Q0.68196 13.9361 0.59279 13.8789Q0.50362 13.8218 0.424381 13.7501Q0.345142 13.6784 0.278414 13.5946Q0.211685 13.5107 0.15964 13.4174Q0.107594 13.3241 0.0719261 13.2243Q0.0362582 13.1246 0.0181291 13.0217Q-6.6391e-15 12.9188 -6.64133e-15 12.8161L-6.89909e-15 0.947939Q-6.90132e-15 0.845222 0.0185702 0.74763Q0.0371404 0.650039 0.0736763 0.560751Q0.110212 0.471463 0.163524 0.393386Q0.216836 0.315309 0.285188 0.250984Q0.35354 0.186659 0.434708 0.138182Q0.515875 0.0897038 0.607215 0.0586512Q0.698554 0.0275986 0.797092 0.0149821Q0.89563 0.0023657 0.998159 0.00859623Z"/>
	<defs>
		<clipPath id="clip_2">
			<path d="M71.3203 1.54663L59.3077 0.816641Q59.101 0.804076 58.9168 0.866695Q58.7326 0.929314 58.5948 1.05903Q58.4569 1.18874 58.3832 1.3688Q58.3096 1.54885 58.3096 1.75598L58.3096 13.6241Q58.3096 13.7269 58.3277 13.8298Q58.3458 13.9326 58.3815 14.0324Q58.4172 14.1321 58.4692 14.2254Q58.5213 14.3187 58.588 14.4026Q58.6547 14.4865 58.734 14.5581Q58.8132 14.6298 58.9024 14.687Q58.9915 14.7441 59.0877 14.7849Q59.1839 14.8257 59.284 14.8487L71.344 17.6286Q71.5458 17.6752 71.7257 17.6428Q71.9055 17.6104 72.04 17.5034Q72.1746 17.3963 72.2465 17.2283Q72.3184 17.0604 72.3184 16.8532L72.3184 2.60729Q72.3184 2.50457 72.2999 2.40472Q72.2813 2.30487 72.2448 2.21114Q72.2082 2.11742 72.1549 2.03286Q72.1016 1.9483 72.0333 1.87567Q71.9649 1.80304 71.8837 1.7447Q71.8026 1.68635 71.7112 1.6442Q71.6199 1.60205 71.5214 1.57745Q71.4228 1.55286 71.3203 1.54663Z" clip-rule="evenodd"/>
		</clipPath>
	</defs>
	<g clip-path="url(#clip_2)">
		<path fill="none" stroke="rgb(0,123,31)" stroke-width="2.8" stroke-miterlimit="4" transform="translate(58.3096 0.808044)" d="M0.998159 0.00859623L13.0107 0.738586Q13.1132 0.744816 13.2118 0.769409Q13.3103 0.794001 13.4017 0.836155Q13.493 0.878309 13.5742 0.936652Q13.6553 0.994994 13.7237 1.06763Q13.792 1.14026 13.8454 1.22482Q13.8987 1.30937 13.9352 1.4031Q13.9717 1.49683 13.9903 1.59668Q14.0089 1.69653 14.0089 1.79924L14.0089 16.0452Q14.0089 16.1479 13.9907 16.2425Q13.9726 16.337 13.9369 16.4203Q13.9013 16.5036 13.8492 16.5729Q13.7972 16.6422 13.7305 16.6953Q13.6637 16.7484 13.5845 16.7836Q13.5053 16.8187 13.4161 16.8348Q13.3269 16.8508 13.2307 16.8472Q13.1345 16.8437 13.0344 16.8206L0.974448 14.0407Q0.874355 14.0176 0.778157 13.9769Q0.68196 13.9361 0.59279 13.8789Q0.50362 13.8218 0.424381 13.7501Q0.345142 13.6784 0.278414 13.5946Q0.211685 13.5107 0.15964 13.4174Q0.107594 13.3241 0.0719261 13.2243Q0.0362582 13.1246 0.0181291 13.0217Q-6.6391e-15 12.9188 -6.64133e-15 12.8161L-6.89909e-15 0.947939Q-6.90132e-15 0.845222 0.0185702 0.74763Q0.0371404 0.650039 0.0736763 0.560751Q0.110212 0.471463 0.163524 0.393386Q0.216836 0.315309 0.285188 0.250984Q0.35354 0.186659 0.434708 0.138182Q0.515875 0.0897038 0.607215 0.0586512Q0.698554 0.0275986 0.797092 0.0149821Q0.89563 0.0023657 0.998159 0.00859623Z"/>
	</g>
	<defs>
		<clipPath id="clip_3">
			<rect width="59.033707" height="32.426968" clip-rule="evenodd"/>
		</clipPath>
	</defs>
	<g clip-path="url(#clip_3)">
		<path fill="rgb(0,189,45)" stroke="none" transform="translate(60.7771 22.4763)" d="M0 4.0232C0 1.8014 1.8014 0 4.0232 0C6.24499 0 8.04639 1.8014 8.04639 4.0232C8.04639 6.24499 6.24499 8.04639 4.0232 8.04639C1.8014 8.04639 0 6.24499 0 4.0232ZM2.68213 4.0232C2.68213 4.76379 3.2826 5.36426 4.0232 5.36426C4.76379 5.36426 5.36426 4.76379 5.36426 4.0232C5.36426 3.2826 4.76379 2.68213 4.0232 2.68213C3.2826 2.68213 2.68213 3.2826 2.68213 4.0232Z" fill-rule="evenodd"/>
	</g>
	<defs>
		<clipPath id="clip_4">
			<rect width="59.033707" height="32.426968" clip-rule="evenodd"/>
		</clipPath>
	</defs>
	<g clip-path="url(#clip_4)">
		<path fill="rgb(0,189,45)" stroke="none" transform="translate(30.6033 2.20471)" d="M30.174 4.73888L27.4918 4.17876L27.4918 20.9421L27.4918 0L-9.58035e-15 0L-9.58035e-15 24.2947L2.0116 24.2947C2.0116 22.073 3.813 20.2715 6.0348 20.2715C8.25659 20.2715 10.058 22.073 10.058 24.2947L30.174 24.2947C30.174 22.073 31.9754 20.2715 34.1972 20.2715C36.419 20.2715 38.2204 22.073 38.2204 24.2947L40.232 24.2947L40.232 14.2368L30.174 14.2368L30.174 4.73888Z"/>
	</g>
	<defs>
		<clipPath id="clip_5">
			<rect width="59.033707" height="32.426968" clip-rule="evenodd"/>
		</clipPath>
	</defs>
	<g clip-path="url(#clip_5)">
		<path fill="rgb(0,123,31)" stroke="none" transform="translate(0.831543 0.831482)" d="M64.8472 5.18479L70.882 13.2312C70.9691 13.3474 71.0163 13.4885 71.0163 13.6336L71.0163 25.7032C71.0163 26.0735 70.716 26.3737 70.3457 26.3737L68.951 26.3737C68.6196 28.6816 66.6424 30.3949 64.3109 30.3949C61.9794 30.3949 60.0022 28.6816 59.6709 26.3737L0.670533 26.3737C0.300234 26.3737 0 26.0735 0 25.7032L0 0.670533C0 0.300234 0.300234 0 0.670533 0L57.6056 0C57.9759 0 58.2761 0.300234 58.2761 0.670533L58.2761 4.91664L64.3109 4.91664C64.5221 4.91664 64.7208 5.01617 64.8472 5.18479ZM56.9351 1.44272L56.9351 21.68L38.8307 21.68C38.7596 21.6826 38.6892 21.697 38.6228 21.7222C37.1101 20.7717 35.1869 20.7717 33.6743 21.7222C33.6078 21.697 33.5375 21.6826 33.4664 21.68L30.7843 21.68L30.7843 1.44272L56.9351 1.44272ZM59.6172 6.25771L59.6172 15.6452C59.6172 16.0155 59.9174 16.3157 60.2877 16.3157L69.6752 16.3157L69.6752 21.68L66.993 21.68C66.922 21.6826 66.8516 21.697 66.7851 21.7222C65.2725 20.7717 63.3493 20.7717 61.8367 21.7222C61.7702 21.697 61.6998 21.6826 61.6288 21.68L58.2761 21.68L58.2761 6.25771L59.6172 6.25771ZM69.6752 14.9746L69.6752 13.8569L63.9757 6.25771L60.9583 6.25771L60.9583 14.9746L69.6752 14.9746ZM64.3109 29.0558C62.4594 29.0558 60.9583 27.5547 60.9583 25.7032C60.9583 23.8517 62.4594 22.3505 64.3109 22.3505C66.1624 22.3505 67.6636 23.8517 67.6636 25.7032C67.6613 27.554 66.1618 29.0535 64.3109 29.0558ZM32.3025 23.021L30.7843 23.021L30.7843 25.0326L31.5085 25.0326C31.6116 24.3091 31.8834 23.6199 32.3025 23.021ZM40.7886 25.0326L59.6709 25.0326C59.774 24.3091 60.0458 23.6199 60.4649 23.021L39.9946 23.021C40.4137 23.6199 40.6854 24.3091 40.7886 25.0326ZM68.157 23.021C68.5761 23.6199 68.8478 24.3091 68.951 25.0326L69.6752 25.0326L69.6752 23.021L68.157 23.021Z" fill-rule="evenodd"/>
	</g>
	<defs>
		<clipPath id="clip_6">
			<rect width="59.033707" height="32.426968" clip-rule="evenodd"/>
		</clipPath>
	</defs>
	<g clip-path="url(#clip_6)">
		<path fill="rgb(0,189,45)" stroke="none" transform="translate(2.0686 2.25488)" d="M0 0L44.0825 0L51.145 19.4902C51.145 19.4902 49.7815 19.1622 47.3429 20.6156C44.9044 22.069 44.0825 23.5435 44.0825 23.5435L0 23.5435L0 0Z"/>
	</g>
	<defs>
		<clipPath id="clip_7">
			<rect x="2.0686035" y="22.449463" width="55.302284" height="1.443531" clip-rule="evenodd"/>
		</clipPath>
	</defs>
	<g clip-path="url(#clip_7)">
		<path fill="none" stroke="rgb(0,123,31)" stroke-width="2" stroke-miterlimit="4" transform="translate(2.0686 22.4495)" d="M0 0L55.3023 0L55.3023 1.44353L0 1.44353L0 0Z"/>
	</g>
	<defs>
		<clipPath id="clip_8">
			<rect width="59.033707" height="32.426968" clip-rule="evenodd"/>
		</clipPath>
	</defs>
	<g clip-path="url(#clip_8)">
		<path fill="rgb(0,189,45)" stroke="none" transform="translate(59.8652 21.618)" d="M4.98876 9.97753C7.74398 9.97753 9.97752 7.74398 9.97752 4.98876C9.97752 2.23355 7.74398 0 4.98876 0C2.23354 0 0 2.23355 0 4.98876C0 7.74398 2.23354 9.97753 4.98876 9.97753Z"/>
	</g>
	<defs>
		<clipPath id="clip_9">
			<rect width="0" height="0" clip-rule="evenodd"/>
		</clipPath>
	</defs>
	<g clip-path="url(#clip_9)">
		<path fill="none" stroke="rgb(0,123,31)" stroke-width="2.8" stroke-miterlimit="4" transform="translate(59.8652 21.618)" d="M4.98876 9.97753C7.74398 9.97753 9.97752 7.74398 9.97752 4.98876C9.97752 2.23355 7.74398 0 4.98876 0C2.23354 0 0 2.23355 0 4.98876C0 7.74398 2.23354 9.97753 4.98876 9.97753Z"/>
	</g>
	<defs>
		<clipPath id="clip_10">
			<rect width="59.033707" height="32.426968" clip-rule="evenodd"/>
		</clipPath>
	</defs>
	<g clip-path="url(#clip_10)">
		<path fill="rgb(0,189,45)" stroke="none" transform="translate(4.98877 21.618)" d="M4.98876 9.97753C7.74398 9.97753 9.97753 7.74398 9.97753 4.98876C9.97753 2.23355 7.74398 0 4.98876 0C2.23355 0 0 2.23355 0 4.98876C0 7.74398 2.23355 9.97753 4.98876 9.97753Z"/>
	</g>
	<defs>
		<clipPath id="clip_11">
			<path d="M14.9663 26.6067C14.9663 29.362 12.7328 31.5955 9.97753 31.5955C7.22231 31.5955 4.98877 29.362 4.98877 26.6067C4.98877 23.8515 7.22231 21.618 9.97753 21.618C12.7328 21.618 14.9663 23.8515 14.9663 26.6067Z" clip-rule="evenodd"/>
		</clipPath>
	</defs>
	<g clip-path="url(#clip_11)">
		<path fill="none" stroke="rgb(0,123,31)" stroke-width="2.8" stroke-miterlimit="4" transform="translate(4.98877 21.618)" d="M4.98876 9.97753C7.74398 9.97753 9.97753 7.74398 9.97753 4.98876C9.97753 2.23355 7.74398 0 4.98876 0C2.23355 0 0 2.23355 0 4.98876C0 7.74398 2.23355 9.97753 4.98876 9.97753Z"/>
	</g>
	<defs>
		<clipPath id="clip_12">
			<rect width="59.033707" height="32.426968" clip-rule="evenodd"/>
		</clipPath>
	</defs>
	<g clip-path="url(#clip_12)">
		<path fill="rgb(0,189,45)" stroke="none" transform="translate(15.7979 21.618)" d="M4.98876 9.97753C7.74398 9.97753 9.97753 7.74398 9.97753 4.98876C9.97753 2.23355 7.74398 0 4.98876 0C2.23355 0 0 2.23355 0 4.98876C0 7.74398 2.23355 9.97753 4.98876 9.97753Z"/>
	</g>
	<defs>
		<clipPath id="clip_13">
			<path d="M25.7754 26.6067C25.7754 29.362 23.5418 31.5955 20.7866 31.5955C18.0314 31.5955 15.7979 29.362 15.7979 26.6067C15.7979 23.8515 18.0314 21.618 20.7866 21.618C23.5418 21.618 25.7754 23.8515 25.7754 26.6067Z" clip-rule="evenodd"/>
		</clipPath>
	</defs>
	<g clip-path="url(#clip_13)">
		<path fill="none" stroke="rgb(0,123,31)" stroke-width="2.8" stroke-miterlimit="4" transform="translate(15.7979 21.618)" d="M4.98876 9.97753C7.74398 9.97753 9.97753 7.74398 9.97753 4.98876C9.97753 2.23355 7.74398 0 4.98876 0C2.23355 0 0 2.23355 0 4.98876C0 7.74398 2.23355 9.97753 4.98876 9.97753Z"/>
	</g>
	<defs>
		<clipPath id="clip_14">
			<rect width="59.033707" height="32.426968" clip-rule="evenodd"/>
		</clipPath>
	</defs>
	<g clip-path="url(#clip_14)">
		<path fill="rgb(0,189,45)" stroke="none" transform="translate(7.48315 24.1124)" d="M2.49438 4.98876C3.87199 4.98876 4.98876 3.87199 4.98876 2.49438C4.98876 1.11677 3.87199 0 2.49438 0C1.11677 0 0 1.11677 0 2.49438C0 3.87199 1.11677 4.98876 2.49438 4.98876Z"/>
	</g>
	<defs>
		<clipPath id="clip_15">
			<path d="M12.4719 26.6067C12.4719 27.9844 11.3551 29.1011 9.97754 29.1011C8.59993 29.1011 7.48315 27.9844 7.48315 26.6067C7.48315 25.2291 8.59993 24.1124 9.97754 24.1124C11.3551 24.1124 12.4719 25.2291 12.4719 26.6067Z" clip-rule="evenodd"/>
		</clipPath>
	</defs>
	<g clip-path="url(#clip_15)">
		<path fill="none" stroke="rgb(0,123,31)" stroke-width="2.8" stroke-miterlimit="4" transform="translate(7.48315 24.1124)" d="M2.49438 4.98876C3.87199 4.98876 4.98876 3.87199 4.98876 2.49438C4.98876 1.11677 3.87199 0 2.49438 0C1.11677 0 0 1.11677 0 2.49438C0 3.87199 1.11677 4.98876 2.49438 4.98876Z"/>
	</g>
	<defs>
		<clipPath id="clip_16">
			<rect width="59.033707" height="32.426968" clip-rule="evenodd"/>
		</clipPath>
	</defs>
	<g clip-path="url(#clip_16)">
		<path fill="rgb(0,189,45)" stroke="none" transform="translate(18.2922 24.1124)" d="M2.49438 4.98876C3.87199 4.98876 4.98876 3.87199 4.98876 2.49438C4.98876 1.11677 3.87199 0 2.49438 0C1.11677 0 0 1.11677 0 2.49438C0 3.87199 1.11677 4.98876 2.49438 4.98876Z"/>
	</g>
	<defs>
		<clipPath id="clip_17">
			<path d="M23.281 26.6067C23.281 27.9844 22.1642 29.1011 20.7866 29.1011C19.409 29.1011 18.2922 27.9844 18.2922 26.6067C18.2922 25.2291 19.409 24.1124 20.7866 24.1124C22.1642 24.1124 23.281 25.2291 23.281 26.6067Z" clip-rule="evenodd"/>
		</clipPath>
	</defs>
	<g clip-path="url(#clip_17)">
		<path fill="none" stroke="rgb(0,123,31)" stroke-width="2.8" stroke-miterlimit="4" transform="translate(18.2922 24.1124)" d="M2.49438 4.98876C3.87199 4.98876 4.98876 3.87199 4.98876 2.49438C4.98876 1.11677 3.87199 0 2.49438 0C1.11677 0 0 1.11677 0 2.49438C0 3.87199 1.11677 4.98876 2.49438 4.98876Z"/>
	</g>
	<defs>
		<clipPath id="clip_18">
			<rect width="59.033707" height="32.426968" clip-rule="evenodd"/>
		</clipPath>
	</defs>
	<g clip-path="url(#clip_18)">
		<path fill="rgb(0,189,45)" stroke="none" transform="translate(44.0674 21.618)" d="M4.98876 9.97753C7.74398 9.97753 9.97753 7.74398 9.97753 4.98876C9.97753 2.23355 7.74398 0 4.98876 0C2.23355 0 0 2.23355 0 4.98876C0 7.74398 2.23355 9.97753 4.98876 9.97753Z"/>
	</g>
	<defs>
		<clipPath id="clip_19">
			<path d="M54.0449 26.6067C54.0449 29.362 51.8114 31.5955 49.0561 31.5955C46.3009 31.5955 44.0674 29.362 44.0674 26.6067C44.0674 23.8515 46.3009 21.618 49.0561 21.618C51.8114 21.618 54.0449 23.8515 54.0449 26.6067Z" clip-rule="evenodd"/>
		</clipPath>
	</defs>
	<g clip-path="url(#clip_19)">
		<path fill="none" stroke="rgb(0,123,31)" stroke-width="2.8" stroke-miterlimit="4" transform="translate(44.0674 21.618)" d="M4.98876 9.97753C7.74398 9.97753 9.97753 7.74398 9.97753 4.98876C9.97753 2.23355 7.74398 0 4.98876 0C2.23355 0 0 2.23355 0 4.98876C0 7.74398 2.23355 9.97753 4.98876 9.97753Z"/>
	</g>
	<defs>
		<clipPath id="clip_20">
			<rect width="59.033707" height="32.426968" clip-rule="evenodd"/>
		</clipPath>
	</defs>
	<g clip-path="url(#clip_20)">
		<path fill="rgb(0,189,45)" stroke="none" transform="translate(46.5618 24.1124)" d="M2.49438 4.98876C3.87199 4.98876 4.98876 3.87199 4.98876 2.49438C4.98876 1.11677 3.87199 0 2.49438 0C1.11677 0 0 1.11677 0 2.49438C0 3.87199 1.11677 4.98876 2.49438 4.98876Z"/>
	</g>
	<defs>
		<clipPath id="clip_21">
			<path d="M51.5505 26.6067C51.5505 27.9844 50.4338 29.1011 49.0561 29.1011C47.6785 29.1011 46.5618 27.9844 46.5618 26.6067C46.5618 25.2291 47.6785 24.1124 49.0561 24.1124C50.4338 24.1124 51.5505 25.2291 51.5505 26.6067Z" clip-rule="evenodd"/>
		</clipPath>
	</defs>
	<g clip-path="url(#clip_21)">
		<path fill="none" stroke="rgb(0,123,31)" stroke-width="2.8" stroke-miterlimit="4" transform="translate(46.5618 24.1124)" d="M2.49438 4.98876C3.87199 4.98876 4.98876 3.87199 4.98876 2.49438C4.98876 1.11677 3.87199 0 2.49438 0C1.11677 0 0 1.11677 0 2.49438C0 3.87199 1.11677 4.98876 2.49438 4.98876Z"/>
	</g>
	<defs>
		<clipPath id="clip_22">
			<rect width="59.033707" height="32.426968" clip-rule="evenodd"/>
		</clipPath>
	</defs>
	<g clip-path="url(#clip_22)">
		<path fill="rgb(0,123,31)" stroke="none" transform="translate(4.84131 4.98877)" d="M0.670533 1.34107L7.37586 1.34107C7.74616 1.34107 8.04639 1.04083 8.04639 0.670533C8.04639 0.300234 7.74616 0 7.37586 0L0.670533 0C0.300234 0 0 0.300234 0 0.670533C0 1.04083 0.300234 1.34107 0.670533 1.34107Z"/>
	</g>
	<defs>
		<clipPath id="clip_23">
			<rect width="59.033707" height="32.426968" clip-rule="evenodd"/>
		</clipPath>
	</defs>
	<g clip-path="url(#clip_23)">
		<path fill="rgb(0,123,31)" stroke="none" transform="translate(6.50439 7.48315)" d="M5.56831 0L0.670533 0C0.300234 0 0 0.300234 0 0.670533C0 1.04083 0.300234 1.34107 0.670533 1.34107L5.56831 1.34107C5.93861 1.34107 6.23884 1.04083 6.23884 0.670533C6.23884 0.300234 5.93861 0 5.56831 0Z"/>
	</g>
	<defs>
		<clipPath id="clip_24">
			<rect width="59.033707" height="32.426968" clip-rule="evenodd"/>
		</clipPath>
	</defs>
	<g clip-path="url(#clip_24)">
		<path fill="rgb(0,123,31)" stroke="none" transform="translate(9.83008 9.97754)" d="M2.16797 0L0.670533 0C0.300234 0 0 0.300234 0 0.670533C0 1.04083 0.300234 1.34107 0.670533 1.34107L2.16797 1.34107C2.53827 1.34107 2.8385 1.04083 2.8385 0.670533C2.8385 0.300234 2.53827 0 2.16797 0Z"/>
	</g>
	<path fill="rgb(0,189,45)" stroke="none" transform="translate(60.6965 21.618)" d="M4.98876 9.97753C7.74398 9.97753 9.97753 7.74398 9.97753 4.98876C9.97753 2.23355 7.74398 0 4.98876 0C2.23355 0 0 2.23355 0 4.98876C0 7.74398 2.23355 9.97753 4.98876 9.97753Z"/>
	<defs>
		<clipPath id="clip_25">
			<path d="M70.6741 26.6067C70.6741 29.362 68.4405 31.5955 65.6853 31.5955C62.9301 31.5955 60.6965 29.362 60.6965 26.6067C60.6965 23.8515 62.9301 21.618 65.6853 21.618C68.4405 21.618 70.6741 23.8515 70.6741 26.6067Z" clip-rule="evenodd"/>
		</clipPath>
	</defs>
	<g clip-path="url(#clip_25)">
		<path fill="none" stroke="rgb(0,123,31)" stroke-width="2.8" stroke-miterlimit="4" transform="translate(60.6965 21.618)" d="M4.98876 9.97753C7.74398 9.97753 9.97753 7.74398 9.97753 4.98876C9.97753 2.23355 7.74398 0 4.98876 0C2.23355 0 0 2.23355 0 4.98876C0 7.74398 2.23355 9.97753 4.98876 9.97753Z"/>
	</g>
	<path fill="rgb(0,189,45)" stroke="none" transform="translate(63.1909 24.1124)" d="M2.49438 4.98876C3.87199 4.98876 4.98876 3.87199 4.98876 2.49438C4.98876 1.11677 3.87199 0 2.49438 0C1.11677 0 0 1.11677 0 2.49438C0 3.87199 1.11677 4.98876 2.49438 4.98876Z"/>
	<defs>
		<clipPath id="clip_26">
			<path d="M68.1797 26.6067C68.1797 27.9844 67.0629 29.1011 65.6853 29.1011C64.3077 29.1011 63.1909 27.9844 63.1909 26.6067C63.1909 25.2291 64.3077 24.1124 65.6853 24.1124C67.0629 24.1124 68.1797 25.2291 68.1797 26.6067Z" clip-rule="evenodd"/>
		</clipPath>
	</defs>
	<g clip-path="url(#clip_26)">
		<path fill="none" stroke="rgb(0,123,31)" stroke-width="2.8" stroke-miterlimit="4" transform="translate(63.1909 24.1124)" d="M2.49438 4.98876C3.87199 4.98876 4.98876 3.87199 4.98876 2.49438C4.98876 1.11677 3.87199 0 2.49438 0C1.11677 0 0 1.11677 0 2.49438C0 3.87199 1.11677 4.98876 2.49438 4.98876Z"/>
	</g>

</svg>