<?xml version="1.0" encoding="utf-8" ?>
<svg xmlns="http://www.w3.org/2000/svg" xmlns:xlink="http://www.w3.org/1999/xlink" width="65" height="35">
	<rect fill="rgb(255,255,255)" stroke="none" transform="matrix(0.9995 0 0 0.9995 0.0712891 1)" width="64.031982" height="35"/>
	<path fill="rgb(0,189,45)" stroke="none" transform="matrix(0.9995 0 0 0.9995 0.0712891 1)" d="M3 -8.24972e-16L42.0484 -8.24972e-16L58.6194 11.6146L58.9303 25.0008Q58.9339 25.1545 58.9234 25.3059Q58.913 25.4572 58.8886 25.605Q58.8641 25.7527 58.826 25.8956Q58.7878 26.0385 58.7362 26.1755Q58.6846 26.3124 58.6199 26.4423Q58.5553 26.5721 58.4782 26.6938Q58.4011 26.8155 58.3121 26.9281Q58.2231 27.0406 58.123 27.1431Q58.0228 27.2456 57.9124 27.3371Q57.8019 27.4287 57.6821 27.5087Q57.5622 27.5886 57.4339 27.6562Q57.3056 27.7238 57.1699 27.7786Q57.0342 27.8334 56.8922 27.8749Q56.7502 27.9164 56.603 27.9442Q56.4559 27.972 56.3048 27.986Q56.1538 28 56 28L3 28Q2.84624 28 2.69485 27.986Q2.54347 27.972 2.39569 27.9442Q2.24791 27.9163 2.10495 27.8748Q1.96199 27.8334 1.825 27.7786Q1.68802 27.7238 1.55814 27.6561Q1.42826 27.5885 1.30653 27.5085Q1.1848 27.4286 1.07223 27.337Q0.959651 27.2454 0.857143 27.1429Q0.754635 27.0404 0.663032 26.9278Q0.571429 26.8152 0.491477 26.6935Q0.411525 26.5717 0.343877 26.4419Q0.276229 26.312 0.221437 26.175Q0.166644 26.038 0.125154 25.8951Q0.0836631 25.7521 0.0558134 25.6043Q0.0279637 25.4565 0.0139819 25.3051Q2.53131e-14 25.1538 2.53131e-14 25L2.53131e-14 3Q2.53131e-14 2.84624 0.0139819 2.69485Q0.0279637 2.54347 0.0558134 2.39569Q0.0836631 2.24791 0.125154 2.10495Q0.166644 1.96199 0.221437 1.825Q0.276229 1.68802 0.343877 1.55814Q0.411525 1.42826 0.491477 1.30653Q0.571429 1.1848 0.663032 1.07223Q0.754635 0.959651 0.857143 0.857143Q0.959651 0.754635 1.07223 0.663032Q1.1848 0.571429 1.30653 0.491477Q1.42826 0.411525 1.55814 0.343877Q1.68802 0.276229 1.825 0.221437Q1.96199 0.166644 2.10495 0.125154Q2.24791 0.0836631 2.39569 0.0558134Q2.54347 0.0279637 2.69485 0.0139819Q2.84624 -8.24972e-16 3 -8.24972e-16Z"/>
	<defs>
		<clipPath id="clip_0">
			<path d="M42.0987 1L3.06979 1Q2.9161 1 2.76479 1.01397Q2.61348 1.02795 2.46578 1.05579Q2.31808 1.08362 2.17518 1.12509Q2.03229 1.16656 1.89538 1.22133Q1.75847 1.27609 1.62865 1.34371Q1.49883 1.41132 1.37716 1.49123Q1.2555 1.57114 1.14298 1.6627Q1.03046 1.75426 0.928003 1.85671Q0.825547 1.95917 0.73399 2.07169Q0.642432 2.18421 0.56252 2.30588Q0.482609 2.42754 0.414994 2.55736Q0.34738 2.68718 0.292615 2.82409Q0.23785 2.961 0.19638 3.1039Q0.15491 3.24679 0.127075 3.39449Q0.0992388 3.54219 0.0852639 3.6935Q0.0712891 3.84482 0.0712891 3.9985L0.0712891 25.9875Q0.0712891 26.1412 0.0852639 26.2925Q0.0992388 26.4438 0.127075 26.5915Q0.15491 26.7392 0.19638 26.8821Q0.23785 27.025 0.292615 27.1619Q0.34738 27.2988 0.414994 27.4286Q0.482609 27.5585 0.56252 27.6801Q0.642432 27.8018 0.733989 27.9143Q0.825547 28.0268 0.928003 28.1293Q1.03046 28.2317 1.14298 28.3233Q1.2555 28.4149 1.37716 28.4948Q1.49883 28.5747 1.62865 28.6423Q1.75847 28.7099 1.89538 28.7647Q2.03229 28.8194 2.17518 28.8609Q2.31808 28.9024 2.46578 28.9302Q2.61348 28.958 2.76479 28.972Q2.9161 28.986 3.06979 28.986L56.0433 28.986Q56.3513 28.986 56.646 28.9302Q56.9407 28.8745 57.2126 28.7647Q57.4844 28.655 57.7245 28.4949Q57.9646 28.3348 58.1652 28.1295Q58.3657 27.9242 58.5202 27.6805Q58.6747 27.4367 58.7781 27.1624Q58.8815 26.8881 58.9304 26.5922Q58.9793 26.2962 58.9722 25.9883L58.6614 12.6088L42.0987 1Z" clip-rule="evenodd"/>
		</clipPath>
	</defs>
	<g clip-path="url(#clip_0)">
		<path fill="none" stroke="rgb(0,123,31)" stroke-width="3.2" stroke-miterlimit="4" transform="matrix(0.9995 0 0 0.9995 0.0712891 1)" d="M3 -8.24972e-16L42.0484 -8.24972e-16L58.6194 11.6146L58.9303 25.0008Q58.9339 25.1545 58.9234 25.3059Q58.913 25.4572 58.8886 25.605Q58.8641 25.7527 58.826 25.8956Q58.7878 26.0385 58.7362 26.1755Q58.6846 26.3124 58.6199 26.4423Q58.5553 26.5721 58.4782 26.6938Q58.4011 26.8155 58.3121 26.9281Q58.2231 27.0406 58.123 27.1431Q58.0228 27.2456 57.9124 27.3371Q57.8019 27.4287 57.6821 27.5087Q57.5622 27.5886 57.4339 27.6562Q57.3056 27.7238 57.1699 27.7786Q57.0342 27.8334 56.8922 27.8749Q56.7502 27.9164 56.603 27.9442Q56.4559 27.972 56.3048 27.986Q56.1538 28 56 28L3 28Q2.84624 28 2.69485 27.986Q2.54347 27.972 2.39569 27.9442Q2.24791 27.9163 2.10495 27.8748Q1.96199 27.8334 1.825 27.7786Q1.68802 27.7238 1.55814 27.6561Q1.42826 27.5885 1.30653 27.5085Q1.1848 27.4286 1.07223 27.337Q0.959651 27.2454 0.857143 27.1429Q0.754635 27.0404 0.663032 26.9278Q0.571429 26.8152 0.491477 26.6935Q0.411525 26.5717 0.343877 26.4419Q0.276229 26.312 0.221437 26.175Q0.166644 26.038 0.125154 25.8951Q0.0836631 25.7521 0.0558134 25.6043Q0.0279637 25.4565 0.0139819 25.3051Q2.53131e-14 25.1538 2.53131e-14 25L2.53131e-14 3Q2.53131e-14 2.84624 0.0139819 2.69485Q0.0279637 2.54347 0.0558134 2.39569Q0.0836631 2.24791 0.125154 2.10495Q0.166644 1.96199 0.221437 1.825Q0.276229 1.68802 0.343877 1.55814Q0.411525 1.42826 0.491477 1.30653Q0.571429 1.1848 0.663032 1.07223Q0.754635 0.959651 0.857143 0.857143Q0.959651 0.754635 1.07223 0.663032Q1.1848 0.571429 1.30653 0.491477Q1.42826 0.411525 1.55814 0.343877Q1.68802 0.276229 1.825 0.221437Q1.96199 0.166644 2.10495 0.125154Q2.24791 0.0836631 2.39569 0.0558134Q2.54347 0.0279637 2.69485 0.0139819Q2.84624 -8.24972e-16 3 -8.24972e-16Z"/>
	</g>
	<path fill="rgb(255,255,255)" stroke="none" transform="matrix(0.9995 0 0 0.9995 36.1328 1.00392)" d="M2.75913 0.0219235L7.03639 0.00673299Q7.19015 0.00618692 7.35219 0.014709Q7.51422 0.023231 7.68321 0.0407516Q7.8522 0.0582722 8.02676 0.0846486Q8.20133 0.111025 8.38004 0.146042Q8.55876 0.181059 8.74017 0.224431Q8.92157 0.267802 9.1042 0.319175Q9.28682 0.370549 9.46917 0.429504Q9.65152 0.488459 9.8321 0.554516Q10.0127 0.620573 10.19 0.693192Q10.3674 0.765811 10.54 0.844401Q10.7127 0.92299 10.8793 1.00691Q11.0459 1.09083 11.205 1.17939Q11.3641 1.26796 11.5145 1.36044Q11.6649 1.45293 11.8053 1.54858Q11.9457 1.64424 12.075 1.74228Q12.2043 1.84032 12.3214 1.93995L25.4268 13.0887Q25.5439 13.1883 25.6452 13.2864Q25.7465 13.3845 25.8312 13.4802Q25.9159 13.5759 25.9833 13.6685Q26.0507 13.7611 26.1003 13.8498Q26.1498 13.9384 26.1811 14.0225Q26.2124 14.1066 26.2252 14.1853Q26.2379 14.2641 26.2321 14.3369Q26.2262 14.4097 26.2018 14.476Q26.1774 14.5423 26.1345 14.6015Q26.0917 14.6607 26.0309 14.7123Q25.9701 14.764 25.8917 14.8076Q25.8134 14.8513 25.7181 14.8866Q25.6229 14.9219 25.5115 14.9486Q25.4002 14.9753 25.2736 14.9932Q25.147 15.011 25.0063 15.0198Q24.8656 15.0287 24.7118 15.0285L3.92065 15.0002Q3.76688 15 3.61442 14.9858Q3.46195 14.9717 3.31201 14.9437Q3.16208 14.9157 3.01591 14.8742Q2.86974 14.8326 2.72851 14.7778Q2.58729 14.723 2.45217 14.6554Q2.31705 14.5877 2.18914 14.5079Q2.06123 14.428 1.94156 14.3365Q1.8219 14.245 1.71146 14.1427Q1.60102 14.0403 1.5007 13.928Q1.40039 13.8156 1.31101 13.6941Q1.22164 13.5727 1.14394 13.4431Q1.06624 13.3135 1.00085 13.1769Q0.935455 13.0402 0.882901 12.8976Q0.830347 12.755 0.791061 12.6077Q0.751775 12.4603 0.726077 12.3093Q0.70038 12.1584 0.68848 12.0051L-0.00868265 3.02358Q-0.0205822 2.87028 -0.0183161 2.7193Q-0.0160501 2.56832 0.000363081 2.42088Q0.0167762 2.27345 0.0472026 2.13077Q0.0776289 1.98809 0.12182 1.85132Q0.166012 1.71456 0.223608 1.58482Q0.281204 1.45509 0.351735 1.33344Q0.422265 1.2118 0.505156 1.09923Q0.588046 0.98667 0.68262 0.884106Q0.777194 0.781542 0.882681 0.689813Q0.988167 0.598085 1.10371 0.517941Q1.21924 0.437797 1.34389 0.36989Q1.46854 0.301984 1.60128 0.246869Q1.73402 0.191754 1.87377 0.14988Q2.01352 0.108007 2.15914 0.0797157Q2.30476 0.0514247 2.45507 0.0369471Q2.60537 0.0224695 2.75913 0.0219235Z"/>
	<defs>
		<clipPath id="clip_1">
			<path d="M43.1657 1.01065L38.8906 1.02583Q38.5826 1.02693 38.2909 1.0836Q37.9992 1.14026 37.7333 1.25066Q37.4674 1.36106 37.236 1.5216Q37.0045 1.68214 36.8151 1.88758Q36.6256 2.09303 36.4844 2.3367Q36.3431 2.58036 36.2546 2.85432Q36.1661 3.12827 36.1332 3.42359Q36.1003 3.71891 36.1241 4.02599L36.8209 13.003Q36.8328 13.1562 36.8585 13.3071Q36.8842 13.458 36.9235 13.6053Q36.9627 13.7526 37.0153 13.8951Q37.0678 14.0376 37.1332 14.1742Q37.1985 14.3108 37.2762 14.4403Q37.3538 14.5698 37.4432 14.6912Q37.5325 14.8126 37.6328 14.9249Q37.733 15.0372 37.8434 15.1395Q37.9538 15.2418 38.0734 15.3333Q38.193 15.4247 38.3209 15.5045Q38.4487 15.5844 38.5838 15.652Q38.7188 15.7195 38.86 15.7743Q39.0011 15.8291 39.1472 15.8707Q39.2933 15.9122 39.4432 15.9401Q39.593 15.9681 39.7454 15.9822Q39.8978 15.9964 40.0515 15.9966L60.8322 16.0249Q61.1402 16.0253 61.3938 15.9896Q61.6473 15.9538 61.8381 15.8831Q62.0289 15.8123 62.1507 15.7089Q62.2726 15.6055 62.3215 15.4727Q62.3704 15.3399 62.3449 15.1822Q62.3193 15.0244 62.2201 14.8467Q62.1208 14.6691 61.9511 14.4774Q61.7815 14.2856 61.5469 14.0861L48.4481 2.9429Q48.331 2.84332 48.2018 2.74533Q48.0725 2.64734 47.9322 2.55173Q47.7919 2.45612 47.6416 2.36368Q47.4913 2.27124 47.3322 2.18272Q47.1732 2.0942 47.0067 2.01032Q46.8402 1.92645 46.6676 1.8479Q46.495 1.76935 46.3178 1.69676Q46.1405 1.62418 45.96 1.55816Q45.7795 1.49213 45.5973 1.43321Q45.415 1.37428 45.2325 1.32294Q45.0499 1.27159 44.8686 1.22824Q44.6873 1.18489 44.5087 1.14989Q44.33 1.11489 44.1556 1.08853Q43.9811 1.06216 43.8122 1.04465Q43.6433 1.02714 43.4813 1.01862Q43.3194 1.0101 43.1657 1.01065Z" clip-rule="evenodd"/>
		</clipPath>
	</defs>
	<g clip-path="url(#clip_1)">
		<path fill="none" stroke="rgb(0,123,31)" stroke-width="3.2" stroke-miterlimit="4" transform="matrix(0.9995 0 0 0.9995 36.1328 1.00392)" d="M2.75913 0.0219235L7.03639 0.00673299Q7.19015 0.00618692 7.35219 0.014709Q7.51422 0.023231 7.68321 0.0407516Q7.8522 0.0582722 8.02676 0.0846486Q8.20133 0.111025 8.38004 0.146042Q8.55876 0.181059 8.74017 0.224431Q8.92157 0.267802 9.1042 0.319175Q9.28682 0.370549 9.46917 0.429504Q9.65152 0.488459 9.8321 0.554516Q10.0127 0.620573 10.19 0.693192Q10.3674 0.765811 10.54 0.844401Q10.7127 0.92299 10.8793 1.00691Q11.0459 1.09083 11.205 1.17939Q11.3641 1.26796 11.5145 1.36044Q11.6649 1.45293 11.8053 1.54858Q11.9457 1.64424 12.075 1.74228Q12.2043 1.84032 12.3214 1.93995L25.4268 13.0887Q25.5439 13.1883 25.6452 13.2864Q25.7465 13.3845 25.8312 13.4802Q25.9159 13.5759 25.9833 13.6685Q26.0507 13.7611 26.1003 13.8498Q26.1498 13.9384 26.1811 14.0225Q26.2124 14.1066 26.2252 14.1853Q26.2379 14.2641 26.2321 14.3369Q26.2262 14.4097 26.2018 14.476Q26.1774 14.5423 26.1345 14.6015Q26.0917 14.6607 26.0309 14.7123Q25.9701 14.764 25.8917 14.8076Q25.8134 14.8513 25.7181 14.8866Q25.6229 14.9219 25.5115 14.9486Q25.4002 14.9753 25.2736 14.9932Q25.147 15.011 25.0063 15.0198Q24.8656 15.0287 24.7118 15.0285L3.92065 15.0002Q3.76688 15 3.61442 14.9858Q3.46195 14.9717 3.31201 14.9437Q3.16208 14.9157 3.01591 14.8742Q2.86974 14.8326 2.72851 14.7778Q2.58729 14.723 2.45217 14.6554Q2.31705 14.5877 2.18914 14.5079Q2.06123 14.428 1.94156 14.3365Q1.8219 14.245 1.71146 14.1427Q1.60102 14.0403 1.5007 13.928Q1.40039 13.8156 1.31101 13.6941Q1.22164 13.5727 1.14394 13.4431Q1.06624 13.3135 1.00085 13.1769Q0.935455 13.0402 0.882901 12.8976Q0.830347 12.755 0.791061 12.6077Q0.751775 12.4603 0.726077 12.3093Q0.70038 12.1584 0.68848 12.0051L-0.00868265 3.02358Q-0.0205822 2.87028 -0.0183161 2.7193Q-0.0160501 2.56832 0.000363081 2.42088Q0.0167762 2.27345 0.0472026 2.13077Q0.0776289 1.98809 0.12182 1.85132Q0.166012 1.71456 0.223608 1.58482Q0.281204 1.45509 0.351735 1.33344Q0.422265 1.2118 0.505156 1.09923Q0.588046 0.98667 0.68262 0.884106Q0.777194 0.781542 0.882681 0.689813Q0.988167 0.598085 1.10371 0.517941Q1.21924 0.437797 1.34389 0.36989Q1.46854 0.301984 1.60128 0.246869Q1.73402 0.191754 1.87377 0.14988Q2.01352 0.108007 2.15914 0.0797157Q2.30476 0.0514247 2.45507 0.0369471Q2.60537 0.0224695 2.75913 0.0219235Z"/>
	</g>
	<path fill="rgb(0,189,45)" stroke="none" transform="matrix(0.9995 0 0 0.9995 7.06836 23.9885)" d="M5.5 11C8.53757 11 11 8.53757 11 5.5C11 2.46243 8.53757 0 5.5 0C2.46243 0 0 2.46243 0 5.5C0 8.53757 2.46243 11 5.5 11Z"/>
	<defs>
		<clipPath id="clip_2">
			<path d="M18.0629 29.4857C18.0629 32.5218 15.6017 34.983 12.5656 34.983C9.52956 34.983 7.06836 32.5218 7.06836 29.4857C7.06836 26.4497 9.52956 23.9885 12.5656 23.9885C15.6017 23.9885 18.0629 26.4497 18.0629 29.4857Z" clip-rule="evenodd"/>
		</clipPath>
	</defs>
	<g clip-path="url(#clip_2)">
		<path fill="none" stroke="rgb(0,123,31)" stroke-width="2.8" stroke-miterlimit="4" transform="matrix(0.9995 0 0 0.9995 7.06836 23.9885)" d="M5.5 11C8.53757 11 11 8.53757 11 5.5C11 2.46243 8.53757 0 5.5 0C2.46243 0 0 2.46243 0 5.5C0 8.53757 2.46243 11 5.5 11Z"/>
	</g>
	<path fill="rgb(0,189,45)" stroke="none" transform="matrix(0.9995 0 0 0.9995 7.06836 23.9885)" d="M5.5 11C8.53757 11 11 8.53757 11 5.5C11 2.46243 8.53757 0 5.5 0C2.46243 0 0 2.46243 0 5.5C0 8.53757 2.46243 11 5.5 11Z"/>
	<defs>
		<clipPath id="clip_3">
			<path d="M18.0629 29.4857C18.0629 32.5218 15.6017 34.983 12.5656 34.983C9.52956 34.983 7.06836 32.5218 7.06836 29.4857C7.06836 26.4497 9.52956 23.9885 12.5656 23.9885C15.6017 23.9885 18.0629 26.4497 18.0629 29.4857Z" clip-rule="evenodd"/>
		</clipPath>
	</defs>
	<g clip-path="url(#clip_3)">
		<path fill="none" stroke="rgb(0,123,31)" stroke-width="2.8" stroke-miterlimit="4" transform="matrix(0.9995 0 0 0.9995 7.06836 23.9885)" d="M5.5 11C8.53757 11 11 8.53757 11 5.5C11 2.46243 8.53757 0 5.5 0C2.46243 0 0 2.46243 0 5.5C0 8.53757 2.46243 11 5.5 11Z"/>
	</g>
	<path fill="rgb(0,189,45)" stroke="none" transform="matrix(0.9995 0 0 0.9995 10.0664 26.987)" d="M2.5 5C3.88071 5 5 3.88071 5 2.5C5 1.11929 3.88071 0 2.5 0C1.11929 0 0 1.11929 0 2.5C0 3.88071 1.11929 5 2.5 5Z"/>
	<defs>
		<clipPath id="clip_4">
			<path d="M15.0639 29.4858C15.0639 30.8658 13.9452 31.9845 12.5652 31.9845C11.1851 31.9845 10.0664 30.8658 10.0664 29.4858C10.0664 28.1057 11.1851 26.987 12.5652 26.987C13.9452 26.987 15.0639 28.1057 15.0639 29.4858Z" clip-rule="evenodd"/>
		</clipPath>
	</defs>
	<g clip-path="url(#clip_4)">
		<path fill="none" stroke="rgb(0,123,31)" stroke-width="2.8" stroke-miterlimit="4" transform="matrix(0.9995 0 0 0.9995 10.0664 26.987)" d="M2.5 5C3.88071 5 5 3.88071 5 2.5C5 1.11929 3.88071 0 2.5 0C1.11929 0 0 1.11929 0 2.5C0 3.88071 1.11929 5 2.5 5Z"/>
	</g>
	<path fill="rgb(0,189,45)" stroke="none" transform="matrix(0.9995 0 0 0.9995 43.0498 23.9885)" d="M5.5 11C8.53757 11 11 8.53757 11 5.5C11 2.46243 8.53757 0 5.5 0C2.46243 0 0 2.46243 0 5.5C0 8.53757 2.46243 11 5.5 11Z"/>
	<defs>
		<clipPath id="clip_5">
			<path d="M54.0443 29.4857C54.0443 32.5218 51.5831 34.983 48.5471 34.983C45.511 34.983 43.0498 32.5218 43.0498 29.4857C43.0498 26.4497 45.511 23.9885 48.5471 23.9885C51.5831 23.9885 54.0443 26.4497 54.0443 29.4857Z" clip-rule="evenodd"/>
		</clipPath>
	</defs>
	<g clip-path="url(#clip_5)">
		<path fill="none" stroke="rgb(0,123,31)" stroke-width="2.8" stroke-miterlimit="4" transform="matrix(0.9995 0 0 0.9995 43.0498 23.9885)" d="M5.5 11C8.53757 11 11 8.53757 11 5.5C11 2.46243 8.53757 0 5.5 0C2.46243 0 0 2.46243 0 5.5C0 8.53757 2.46243 11 5.5 11Z"/>
	</g>
	<path fill="rgb(0,189,45)" stroke="none" transform="matrix(0.9995 0 0 0.9995 46.0488 26.987)" d="M2.5 5C3.88071 5 5 3.88071 5 2.5C5 1.11929 3.88071 0 2.5 0C1.11929 0 0 1.11929 0 2.5C0 3.88071 1.11929 5 2.5 5Z"/>
	<defs>
		<clipPath id="clip_6">
			<path d="M51.0463 29.4858C51.0463 30.8658 49.9276 31.9845 48.5476 31.9845C47.1676 31.9845 46.0488 30.8658 46.0488 29.4858C46.0488 28.1057 47.1676 26.987 48.5476 26.987C49.9276 26.987 51.0463 28.1057 51.0463 29.4858Z" clip-rule="evenodd"/>
		</clipPath>
	</defs>
	<g clip-path="url(#clip_6)">
		<path fill="none" stroke="rgb(0,123,31)" stroke-width="2.8" stroke-miterlimit="4" transform="matrix(0.9995 0 0 0.9995 46.0488 26.987)" d="M2.5 5C3.88071 5 5 3.88071 5 2.5C5 1.11929 3.88071 0 2.5 0C1.11929 0 0 1.11929 0 2.5C0 3.88071 1.11929 5 2.5 5Z"/>
	</g>
	<path fill="rgb(0,123,31)" stroke="none" transform="matrix(0.9995 0 0 0.9995 4.8916 4.998)" d="M0.806452 1.6129L8.87097 1.6129C9.31633 1.6129 9.67742 1.25181 9.67742 0.806452C9.67742 0.361092 9.31633 0 8.87097 0L0.806452 0C0.361092 0 0 0.361092 0 0.806452C0 1.25181 0.361092 1.6129 0.806452 1.6129Z"/>
	<path fill="rgb(0,123,31)" stroke="none" transform="matrix(0.9995 0 0 0.9995 6.89063 7.9965)" d="M6.69702 0L0.806452 0C0.361092 0 0 0.361092 0 0.806452C0 1.25181 0.361092 1.6129 0.806452 1.6129L6.69702 1.6129C7.14238 1.6129 7.50347 1.25181 7.50347 0.806452C7.50347 0.361092 7.14238 0 6.69702 0Z"/>
	<path fill="rgb(0,123,31)" stroke="none" transform="matrix(0.9995 0 0 0.9995 10.8887 10.995)" d="M2.60742 0L0.806452 0C0.361092 0 0 0.361092 0 0.806452C0 1.25181 0.361092 1.6129 0.806452 1.6129L2.60742 1.6129C3.05278 1.6129 3.41387 1.25181 3.41387 0.806452C3.41387 0.361092 3.05278 0 2.60742 0Z"/>
	<path fill="rgb(0,123,31)" stroke="none" transform="matrix(0.9995 0 0 0.9995 40.0518 16.992)" d="M0.806452 1.6129L4.03226 1.6129C4.47762 1.6129 4.83871 1.25181 4.83871 0.806452C4.83871 0.361092 4.47762 0 4.03226 0L0.806452 0C0.361092 0 0 0.361092 0 0.806452C0 1.25181 0.361092 1.6129 0.806452 1.6129Z"/>
	<defs>
		<clipPath id="clip_7">
			<rect x="1.0712891" y="23.509979" width="56.9715" height="1.4780197" clip-rule="evenodd"/>
		</clipPath>
	</defs>
	<g clip-path="url(#clip_7)">
		<path fill="none" stroke="rgb(0,123,31)" stroke-width="6" stroke-miterlimit="4" transform="matrix(0.9995 0 0 0.9995 1.07129 23.51)" d="M0 0L57 0L57 1.47876L0 1.47876L0 0Z"/>
	</g>

</svg>