<?xml version="1.0" encoding="utf-8" ?>
<svg xmlns="http://www.w3.org/2000/svg" xmlns:xlink="http://www.w3.org/1999/xlink" width="59" height="38">
	<rect fill="rgb(255,255,255)" stroke="none" width="59" height="38"/>
	<path fill="rgb(0,189,45)" stroke="none" transform="translate(46.0967 27.0323)" d="M0 4.83871C0 2.16655 2.16655 0 4.83871 0C7.51087 0 9.67742 2.16655 9.67742 4.83871C9.67742 7.51087 7.51087 9.67742 4.83871 9.67742C2.16655 9.67742 0 7.51087 0 4.83871ZM3.22581 4.83871C3.22581 5.72943 3.94799 6.45161 4.83871 6.45161C5.72943 6.45161 6.45161 5.72943 6.45161 4.83871C6.45161 3.94799 5.72943 3.22581 4.83871 3.22581C3.94799 3.22581 3.22581 3.94799 3.22581 4.83871Z" fill-rule="evenodd"/>
	<path fill="rgb(0,189,45)" stroke="none" transform="translate(12.2256 27.0323)" d="M0 4.83871C0 2.16655 2.16655 0 4.83871 0C7.51087 0 9.67742 2.16655 9.67742 4.83871C9.67742 7.51087 7.51087 9.67742 4.83871 9.67742C2.16655 9.67742 0 7.51087 0 4.83871ZM3.22581 4.83871C3.22581 5.72943 3.94799 6.45161 4.83871 6.45161C5.72943 6.45161 6.45161 5.72943 6.45161 4.83871C6.45161 3.94799 5.72943 3.22581 4.83871 3.22581C3.94799 3.22581 3.22581 3.94799 3.22581 4.83871Z" fill-rule="evenodd"/>
	<path fill="rgb(0,189,45)" stroke="none" transform="translate(15.4512 30.2581)" d="M3.22581 1.6129C3.22581 2.50362 2.50362 3.22581 1.6129 3.22581C0.722184 3.22581 0 2.50362 0 1.6129C0 0.722184 0.722184 0 1.6129 0C2.50362 0 3.22581 0.722184 3.22581 1.6129Z"/>
	<path fill="rgb(0,189,45)" stroke="none" transform="translate(49.3223 30.2581)" d="M3.22581 1.6129C3.22581 2.50362 2.50362 3.22581 1.6129 3.22581C0.722184 3.22581 0 2.50362 0 1.6129C0 0.722184 0.722184 0 1.6129 0C2.50362 0 3.22581 0.722184 3.22581 1.6129Z"/>
	<path fill="rgb(0,189,45)" stroke="none" transform="translate(9.80664 2.65161)" d="M36.2903 5.69946L33.0645 5.02581L33.0645 25.1871L33.0645 0L0 0L0 29.2194L2.41936 29.2194C2.41936 26.5472 4.58591 24.3806 7.25807 24.3806C9.93022 24.3806 12.0968 26.5472 12.0968 29.2194L36.2903 29.2194C36.2903 26.5472 38.4569 24.3806 41.129 24.3806C43.8012 24.3806 45.9677 26.5472 45.9677 29.2194L48.3871 29.2194L48.3871 17.1226L36.2903 17.1226L36.2903 5.69946Z"/>
	<path fill="rgb(0,123,31)" stroke="none" transform="translate(0.555664 0.957709)" d="M58.2827 15.9132L51.0246 6.23576C50.8726 6.03297 50.6336 5.91326 50.3796 5.91326L43.1216 5.91326L43.1216 0.806452C43.1216 0.361092 42.7605 0 42.3151 0L0.806452 0C0.361092 0 0 0.361092 0 0.806452L0 30.9133C0 31.3586 0.361092 31.7197 0.806452 31.7197L10.9281 31.7197C11.3266 34.4954 13.7046 36.5561 16.5087 36.5561C19.3127 36.5561 21.6907 34.4954 22.0892 31.7197L44.799 31.7197C45.1975 34.4954 47.5756 36.5561 50.3796 36.5561C53.1837 36.5561 55.5617 34.4954 55.9602 31.7197L57.6377 31.7197C58.0831 31.7197 58.4441 31.3586 58.4441 30.9133L58.4441 16.3971C58.4441 16.2227 58.3874 16.053 58.2827 15.9132ZM41.5087 26.0745L41.5087 1.73516L10.057 1.73516L10.057 26.0745L13.2829 26.0745C13.3683 26.0777 13.453 26.095 13.5329 26.1253C15.3521 24.9822 17.6652 24.9822 19.4844 26.1253C19.5644 26.095 19.649 26.0777 19.7345 26.0745L41.5087 26.0745ZM44.7345 18.8165L44.7345 7.52616L43.1216 7.52616L43.1216 26.0746L47.1538 26.0746C47.2393 26.0777 47.3239 26.095 47.4039 26.1253C49.2231 24.9822 51.5361 24.9822 53.3554 26.1253C53.4353 26.095 53.52 26.0777 53.6054 26.0746L56.8312 26.0746L56.8312 19.6229L45.5409 19.6229C45.0956 19.6229 44.7345 19.2618 44.7345 18.8165ZM56.8312 16.6657L56.8312 18.01L46.3474 18.01L46.3474 7.52616L49.9764 7.52616L56.8312 16.6657ZM12.4764 30.9133C12.4764 33.1401 14.2819 34.9455 16.5087 34.9455C18.7347 34.9428 20.5382 33.1393 20.5409 30.9133C20.5409 28.6865 18.7355 26.881 16.5087 26.881C14.2819 26.881 12.4764 28.6865 12.4764 30.9133ZM50.3796 34.9455C48.1528 34.9455 46.3474 33.1401 46.3474 30.9133C46.3474 28.6865 48.1528 26.881 50.3796 26.881C52.6064 26.881 54.4119 28.6865 54.4119 30.9133C54.4091 33.1393 52.6056 34.9428 50.3796 34.9455ZM10.057 27.6875L11.883 27.6875C11.379 28.4077 11.0521 29.2366 10.9281 30.1068L10.057 30.1068L10.057 27.6875ZM44.799 30.1068L22.0892 30.1068C21.9652 29.2366 21.6384 28.4077 21.1343 27.6875L45.754 27.6875C45.2499 28.4077 44.9231 29.2366 44.799 30.1068ZM55.0053 27.6875C55.5093 28.4077 55.8362 29.2366 55.9602 30.1068L56.8312 30.1068L56.8312 27.6875L55.0053 27.6875Z" fill-rule="evenodd"/>
	<path fill="rgb(0,123,31)" stroke="none" transform="translate(14.6455 29.4516)" d="M0 2.41935C0 1.08328 1.08328 0 2.41935 0C3.75543 0 4.83871 1.08328 4.83871 2.41935C4.83871 3.75543 3.75543 4.83871 2.41935 4.83871C1.08328 4.83871 0 3.75543 0 2.41935ZM1.6129 2.41935C1.6129 2.86471 1.974 3.22581 2.41935 3.22581C2.86471 3.22581 3.22581 2.86471 3.22581 2.41935C3.22581 1.974 2.86471 1.6129 2.41935 1.6129C1.974 1.6129 1.6129 1.974 1.6129 2.41935Z" fill-rule="evenodd"/>
	<path fill="rgb(0,123,31)" stroke="none" transform="translate(48.5166 29.4516)" d="M0 2.41935C0 1.08328 1.08328 0 2.41935 0C3.75543 0 4.83871 1.08328 4.83871 2.41935C4.83871 3.75543 3.75543 4.83871 2.41935 4.83871C1.08328 4.83871 0 3.75543 0 2.41935ZM1.6129 2.41935C1.6129 2.86471 1.974 3.22581 2.41935 3.22581C2.86471 3.22581 3.22581 2.86471 3.22581 2.41935C3.22581 1.974 2.86471 1.6129 2.41935 1.6129C1.974 1.6129 1.6129 1.974 1.6129 2.41935Z" fill-rule="evenodd"/>
	<path fill="rgb(0,123,31)" stroke="none" transform="translate(45 22)" d="M0.806452 1.6129L4.03226 1.6129C4.47762 1.6129 4.83871 1.25181 4.83871 0.806452C4.83871 0.361092 4.47762 0 4.03226 0L0.806452 0C0.361092 0 0 0.361092 0 0.806452C0 1.25181 0.361092 1.6129 0.806452 1.6129Z"/>
	<path fill="rgb(0,189,45)" stroke="none" transform="translate(2.44043 2.71191)" d="M0 0L8.55994 0L14.2494 23.4409C14.2494 23.4409 13.151 23.0464 11.1865 24.7944C9.22205 26.5425 8.55994 28.3159 8.55994 28.3159L0 28.3159L0 0Z"/>
	<defs>
		<clipPath id="clip_0">
			<rect x="2" y="5" width="40.425537" height="1.9367399" clip-rule="evenodd"/>
		</clipPath>
	</defs>
	<g clip-path="url(#clip_0)">
		<path fill="none" stroke="rgb(0,123,31)" stroke-width="2" stroke-miterlimit="4" transform="translate(2 5)" d="M0 0L40.4255 0L40.4255 1.93674L0 1.93674L0 0Z"/>
	</g>
	<path fill="none" stroke="rgb(0,123,31)" stroke-width="1" stroke-miterlimit="4" transform="translate(2.10938 5.96837)" d="M0 0.97914C0 0.97914 0.504395 4.61635 2.55469 3.19252C4.60498 1.76869 4.32056 -0.142931 7.12036 0.418105C9.92017 0.97914 8.29175 3.49278 12.1665 1.95544C16.0413 0.418105 15.0747 -0.249864 17.0398 0.0841203C19.0049 0.418105 18.6006 4.72377 21.876 2.57094C25.1514 0.418105 24.2925 -0.142931 25.9866 0.418105C27.6807 0.97914 28.1978 4.16273 30.4612 2.57094C32.7246 0.97914 32.1794 -0.142931 33.9194 0.418105C35.6594 0.97914 35.8501 3.18643 37.3464 2.57094C38.8428 1.95544 38.4312 0.418105 39.9146 0.418105"/>
	<defs>
		<clipPath id="clip_1">
			<path d="M21 27L1 27L1 28.6696L14.3344 28.6696C14.3344 28.6696 15.7809 27.4851 17.1021 27.4851C18.4232 27.4851 19.6102 28.6696 19.6102 28.6696L21 28.6696L21 27Z" clip-rule="evenodd"/>
		</clipPath>
	</defs>
	<g clip-path="url(#clip_1)">
		<path fill="none" stroke="rgb(0,123,31)" stroke-width="2" stroke-miterlimit="4" transform="translate(1 27)" d="M0 0L20 0L20 1.66956L18.6102 1.66956C18.6102 1.66956 17.4232 0.485107 16.1021 0.485107C14.7809 0.485107 13.3344 1.66956 13.3344 1.66956L0 1.66956L0 0Z"/>
	</g>

</svg>