<?xml version="1.0" encoding="utf-8" ?>
<svg xmlns="http://www.w3.org/2000/svg" xmlns:xlink="http://www.w3.org/1999/xlink" width="22" height="22">
	<defs>
		<clipPath id="clip_0">
			<path d="M20 0L2 0Q1.89749 0 1.79657 0.00932124Q1.69564 0.0186425 1.59713 0.037209Q1.49861 0.0557754 1.4033 0.0834357Q1.30799 0.111096 1.21667 0.147624Q1.12535 0.184153 1.03876 0.229252Q0.95217 0.27435 0.871019 0.327651Q0.789868 0.380953 0.714818 0.442021Q0.639767 0.50309 0.571429 0.571429Q0.50309 0.639767 0.442021 0.714818Q0.380953 0.789868 0.327651 0.871019Q0.27435 0.95217 0.229252 1.03876Q0.184153 1.12535 0.147624 1.21667Q0.111096 1.30799 0.0834357 1.4033Q0.0557754 1.49861 0.037209 1.59713Q0.0186425 1.69564 0.00932124 1.79657Q0 1.89749 0 2L0 20Q0 20.1025 0.00932124 20.2034Q0.0186425 20.3044 0.037209 20.4029Q0.0557754 20.5014 0.0834357 20.5967Q0.111096 20.692 0.147624 20.7833Q0.184153 20.8747 0.229252 20.9612Q0.27435 21.0478 0.327651 21.129Q0.380953 21.2101 0.442021 21.2852Q0.50309 21.3602 0.571429 21.4286Q0.639767 21.4969 0.714818 21.558Q0.789868 21.619 0.871019 21.6723Q0.95217 21.7257 1.03876 21.7708Q1.12535 21.8159 1.21667 21.8524Q1.30799 21.8889 1.4033 21.9166Q1.49861 21.9442 1.59713 21.9628Q1.69564 21.9814 1.79657 21.9907Q1.89749 22 2 22L20 22Q20.1025 22 20.2034 21.9907Q20.3044 21.9814 20.4029 21.9628Q20.5014 21.9442 20.5967 21.9166Q20.692 21.8889 20.7833 21.8524Q20.8747 21.8159 20.9612 21.7708Q21.0478 21.7257 21.129 21.6723Q21.2101 21.619 21.2852 21.558Q21.3602 21.4969 21.4286 21.4286Q21.4969 21.3602 21.558 21.2852Q21.619 21.2101 21.6723 21.129Q21.7257 21.0478 21.7708 20.9612Q21.8159 20.8747 21.8524 20.7833Q21.8889 20.692 21.9166 20.5967Q21.9442 20.5014 21.9628 20.4029Q21.9814 20.3044 21.9907 20.2034Q22 20.1025 22 20L22 2Q22 1.89749 21.9907 1.79657Q21.9814 1.69564 21.9628 1.59713Q21.9442 1.49861 21.9166 1.4033Q21.8889 1.30799 21.8524 1.21667Q21.8159 1.12535 21.7708 1.03876Q21.7257 0.95217 21.6723 0.871019Q21.619 0.789868 21.558 0.714818Q21.4969 0.639767 21.4286 0.571429Q21.3602 0.50309 21.2852 0.442021Q21.2101 0.380953 21.129 0.327651Q21.0478 0.27435 20.9612 0.229252Q20.8747 0.184153 20.7833 0.147624Q20.692 0.111096 20.5967 0.0834357Q20.5014 0.0557754 20.4029 0.037209Q20.3044 0.0186425 20.2034 0.00932124Q20.1025 0 20 0Z" clip-rule="evenodd"/>
		</clipPath>
	</defs>
	<g clip-path="url(#clip_0)">
		<path fill="none" stroke="rgb(255,255,255)" stroke-width="2.8" stroke-miterlimit="4" d="M2 0L20 0Q20.1025 0 20.2034 0.00932124Q20.3044 0.0186425 20.4029 0.037209Q20.5014 0.0557754 20.5967 0.0834357Q20.692 0.111096 20.7833 0.147624Q20.8747 0.184153 20.9612 0.229252Q21.0478 0.27435 21.129 0.327651Q21.2101 0.380953 21.2852 0.442021Q21.3602 0.50309 21.4286 0.571429Q21.4969 0.639767 21.558 0.714818Q21.619 0.789868 21.6723 0.871019Q21.7257 0.95217 21.7708 1.03876Q21.8159 1.12535 21.8524 1.21667Q21.8889 1.30799 21.9166 1.4033Q21.9442 1.49861 21.9628 1.59713Q21.9814 1.69564 21.9907 1.79657Q22 1.89749 22 2L22 20Q22 20.1025 21.9907 20.2034Q21.9814 20.3044 21.9628 20.4029Q21.9442 20.5014 21.9166 20.5967Q21.8889 20.692 21.8524 20.7833Q21.8159 20.8747 21.7708 20.9612Q21.7257 21.0478 21.6723 21.129Q21.619 21.2101 21.558 21.2852Q21.4969 21.3602 21.4286 21.4286Q21.3602 21.4969 21.2852 21.558Q21.2101 21.619 21.129 21.6723Q21.0478 21.7257 20.9612 21.7708Q20.8747 21.8159 20.7833 21.8524Q20.692 21.8889 20.5967 21.9166Q20.5014 21.9442 20.4029 21.9628Q20.3044 21.9814 20.2034 21.9907Q20.1025 22 20 22L2 22Q1.89749 22 1.79657 21.9907Q1.69564 21.9814 1.59713 21.9628Q1.49861 21.9442 1.4033 21.9166Q1.30799 21.8889 1.21667 21.8524Q1.12535 21.8159 1.03876 21.7708Q0.95217 21.7257 0.871019 21.6723Q0.789868 21.619 0.714818 21.558Q0.639767 21.4969 0.571429 21.4286Q0.50309 21.3602 0.442021 21.2852Q0.380953 21.2101 0.327651 21.129Q0.27435 21.0478 0.229252 20.9612Q0.184153 20.8747 0.147624 20.7833Q0.111096 20.692 0.0834357 20.5967Q0.0557754 20.5014 0.037209 20.4029Q0.0186425 20.3044 0.00932124 20.2034Q0 20.1025 0 20L0 2Q0 1.89749 0.00932124 1.79657Q0.0186425 1.69564 0.037209 1.59713Q0.0557754 1.49861 0.0834357 1.4033Q0.111096 1.30799 0.147624 1.21667Q0.184153 1.12535 0.229252 1.03876Q0.27435 0.95217 0.327651 0.871019Q0.380953 0.789868 0.442021 0.714818Q0.50309 0.639767 0.571429 0.571429Q0.639767 0.50309 0.714818 0.442021Q0.789868 0.380953 0.871019 0.327651Q0.95217 0.27435 1.03876 0.229252Q1.12535 0.184153 1.21667 0.147624Q1.30799 0.111096 1.4033 0.0834357Q1.49861 0.0557754 1.59713 0.037209Q1.69564 0.0186425 1.79657 0.00932124Q1.89749 0 2 0Z"/>
	</g>
	<path fill="none" stroke="rgb(255,255,255)" stroke-width="1.4" stroke-miterlimit="4" transform="translate(6.28577 6.28572)" d="M4.71429 9.42857C7.31791 9.42857 9.42857 7.31791 9.42857 4.71429C9.42857 2.11066 7.31791 0 4.71429 0C2.11066 0 0 2.11066 0 4.71429C0 7.31791 2.11066 9.42857 4.71429 9.42857Z"/>
	<path fill="rgb(255,255,255)" stroke="none" transform="translate(15.7142 3.14285)" d="M1.57143 3.14286C2.4393 3.14286 3.14286 2.4393 3.14286 1.57143C3.14286 0.703553 2.4393 0 1.57143 0C0.703553 0 0 0.703553 0 1.57143C0 2.4393 0.703553 3.14286 1.57143 3.14286Z"/>

</svg>