<?xml version="1.0" encoding="utf-8" ?>
<svg xmlns="http://www.w3.org/2000/svg" xmlns:xlink="http://www.w3.org/1999/xlink" width="26" height="30">
	<defs>
		<clipPath id="clip_0">
			<rect x="-928" y="-394" width="1366" height="6477" clip-rule="evenodd"/>
		</clipPath>
	</defs>
	<g clip-path="url(#clip_0)">
		<path fill="rgb(0,189,45)" stroke="none" transform="translate(12.5004 22.4865)" d="M0.49968 0C0.223342 0 0 0.223869 0 0.49968L0 0.99936C0 1.27517 0.223342 1.49904 0.49968 1.49904C0.776018 1.49904 0.99936 1.27517 0.99936 0.99936L0.99936 0.49968C0.99936 0.223869 0.776018 0 0.49968 0Z"/>
	</g>
	<defs>
		<clipPath id="clip_1">
			<rect x="-928" y="-394" width="1366" height="6477" clip-rule="evenodd"/>
		</clipPath>
	</defs>
	<g clip-path="url(#clip_1)">
		<path fill="rgb(0,189,45)" stroke="none" transform="translate(7.00366 17.4895)" d="M0.99936 0L0.49968 0C0.223342 0 0 0.22387 0 0.499681C0 0.775491 0.223342 0.999361 0.49968 0.999361L0.99936 0.999361C1.2757 0.999361 1.49904 0.775491 1.49904 0.499681C1.49904 0.22387 1.2757 0 0.99936 0Z"/>
	</g>
	<defs>
		<clipPath id="clip_2">
			<rect x="-928" y="-394" width="1366" height="6477" clip-rule="evenodd"/>
		</clipPath>
	</defs>
	<g clip-path="url(#clip_2)">
		<path fill="rgb(0,189,45)" stroke="none" transform="translate(0.0078125 6.10352e-05)" d="M2.19665 3.39692C2.28209 3.4614 4.2859 4.94299 8.99454 5.68756L8.99454 6.49608C8.99454 6.77189 9.21788 6.99576 9.49422 6.99576C9.77055 6.99576 9.9939 6.77189 9.9939 6.49608L9.9939 5.2578C9.9939 5.00892 9.81149 4.79858 9.56566 4.76309C4.83805 4.08446 2.81825 2.61335 2.79828 2.59836C1.89384 1.91978 1.44312 1.36711 1.21825 0.99936L24.7631 0.99936C24.5363 1.37214 24.0795 1.92827 23.1656 2.61441C23.1376 2.63789 20.2234 4.99698 12.9922 4.99698C12.4865 4.99698 11.9848 4.98298 11.5011 4.95499C11.2298 4.939 10.9889 5.14987 10.9735 5.42522C10.9575 5.70103 11.1683 5.9369 11.4432 5.95289C11.9464 5.98187 12.4675 5.99634 12.9922 5.99634C14.0871 5.99634 15.078 5.93989 15.9904 5.85041L15.9904 6.49602C15.9904 6.77183 16.2138 6.9957 16.4901 6.9957C16.7664 6.9957 16.9898 6.77183 16.9898 6.49602L16.9898 5.73552C21.6869 5.09237 23.6992 3.47088 23.7857 3.39792C25.8784 1.82837 25.9844 0.708031 25.9844 0.49968C25.9844 0.223869 25.761 0 25.4847 0L0.49968 0C0.223342 0 2.42251e-08 0.223869 2.42251e-08 0.49968C-5.85343e-05 0.708031 0.105874 1.82832 2.19665 3.39692Z"/>
	</g>
	<defs>
		<clipPath id="clip_3">
			<rect x="-928" y="-394" width="1366" height="6477" clip-rule="evenodd"/>
		</clipPath>
	</defs>
	<g clip-path="url(#clip_3)">
		<path fill="rgb(0,189,45)" stroke="none" transform="translate(11.5009 11.9928)" d="M1.99878 0.49968L1.99878 4.58923C2.57898 4.79659 2.9982 5.34581 2.9982 5.9964C2.9982 6.82289 2.32559 7.4955 1.4991 7.4955C0.672604 7.4955 0 6.82289 0 5.9964C0 5.34581 0.419279 4.79659 0.999419 4.58923L0.999419 0.49968C0.999419 0.223869 1.22276 0 1.4991 0C1.77544 0 1.99878 0.223869 1.99878 0.49968ZM0.999419 5.9964C0.999419 6.27174 1.22329 6.49608 1.4991 6.49608C1.77491 6.49608 1.99878 6.27174 1.99878 5.9964C1.99878 5.72105 1.77491 5.49672 1.4991 5.49672C1.22329 5.49672 0.999419 5.72105 0.999419 5.9964Z" fill-rule="evenodd"/>
	</g>
	<defs>
		<clipPath id="clip_4">
			<rect x="-928" y="-394" width="1366" height="6477" clip-rule="evenodd"/>
		</clipPath>
	</defs>
	<g clip-path="url(#clip_4)">
		<path fill="rgb(0,189,45)" stroke="none" transform="translate(17.4973 17.4895)" d="M0 0.499681C0 0.775491 0.223342 0.999361 0.49968 0.999361L0.99936 0.999361C1.2757 0.999361 1.49904 0.775491 1.49904 0.499681C1.49904 0.22387 1.2757 0 0.99936 0L0.49968 0C0.223342 0 0 0.22387 0 0.499681Z"/>
	</g>
	<defs>
		<clipPath id="clip_5">
			<rect x="-928" y="-394" width="1366" height="6477" clip-rule="evenodd"/>
		</clipPath>
	</defs>
	<g clip-path="url(#clip_5)">
		<path fill="rgb(0,189,45)" stroke="none" transform="translate(0.0078125 7.99524)" d="M21.4871 0C22.8528 0 23.9666 1.10184 23.9856 2.4635L25.9799 17.4235C25.9828 17.4455 25.9844 17.4675 25.9844 17.4895C25.9844 18.8672 24.8635 19.988 23.4858 19.988L22.9862 19.988L22.9862 21.4871C22.9862 21.7629 22.7628 21.9867 22.4865 21.9867L3.49788 21.9867C3.22154 21.9867 2.9982 21.7629 2.9982 21.4871L2.9982 19.988L2.49852 19.988C1.12081 19.988 0 18.8671 0 17.4895C0 17.4675 0.00152252 17.4455 0.00450901 17.4235L1.99878 2.4635C2.01781 1.10184 3.13159 0 4.4973 0L21.4871 0ZM22.4865 18.9886L23.4859 18.9886C24.3024 18.9886 24.9685 18.3325 24.9845 17.5204L22.9907 2.5644C22.9877 2.54244 22.9862 2.52042 22.9862 2.49846C22.9862 1.67196 22.3136 0.99936 21.4871 0.99936L4.49736 0.99936C3.67086 0.99936 2.99826 1.67196 2.99826 2.49846C2.99826 2.52042 2.99673 2.54244 2.99375 2.5644L0.999946 17.5204C1.01593 18.3325 1.68204 18.9886 2.49852 18.9886L20.4877 18.9886C20.764 18.9886 20.9874 19.2124 20.9874 19.4882C20.9874 19.764 20.764 19.9879 20.4877 19.9879L3.99762 19.9879L3.99762 20.9873L21.9868 20.9873L21.9868 19.4882C21.9868 19.2124 22.2101 18.9886 22.4865 18.9886Z" fill-rule="evenodd"/>
	</g>
	<defs>
		<clipPath id="clip_6">
			<rect x="-928" y="-394" width="1366" height="6477" clip-rule="evenodd"/>
		</clipPath>
	</defs>
	<g clip-path="url(#clip_6)">
		<path fill="rgb(0,189,45)" stroke="none" transform="translate(5.00488 9.99402)" d="M0 7.99518C0 3.58683 3.58683 0 7.99518 0C12.4035 0 15.9904 3.58683 15.9904 7.99518C15.9904 12.4035 12.4035 15.9904 7.99518 15.9904C3.58683 15.9904 0 12.4035 0 7.99518ZM0.99936 7.99518C0.99936 11.8529 4.13751 14.991 7.99518 14.991C11.8528 14.991 14.991 11.8528 14.991 7.99518C14.991 4.13751 11.8528 0.99936 7.99518 0.99936C4.13751 0.99936 0.99936 4.13745 0.99936 7.99518Z" fill-rule="evenodd"/>
	</g>

</svg>