<?xml version="1.0" encoding="utf-8" ?>
<svg xmlns="http://www.w3.org/2000/svg" xmlns:xlink="http://www.w3.org/1999/xlink" width="25" height="25">
	<rect fill="rgb(243,0,0)" fill-opacity="0" stroke="none" width="25" height="25"/>
	<defs>
		<clipPath id="clip_0">
			<path d="M22 0L3 0Q2.84624 0 2.69485 0.0139819Q2.54347 0.0279637 2.39569 0.0558134Q2.24791 0.0836631 2.10495 0.125154Q1.96199 0.166644 1.825 0.221437Q1.68802 0.276229 1.55814 0.343877Q1.42826 0.411525 1.30653 0.491477Q1.1848 0.571429 1.07223 0.663032Q0.959651 0.754635 0.857143 0.857143Q0.754635 0.959651 0.663032 1.07223Q0.571429 1.1848 0.491477 1.30653Q0.411525 1.42826 0.343877 1.55814Q0.276229 1.68802 0.221437 1.825Q0.166644 1.96199 0.125154 2.10495Q0.0836631 2.24791 0.0558134 2.39569Q0.0279637 2.54347 0.0139819 2.69485Q0 2.84624 0 3L0 22Q0 22.1538 0.0139819 22.3051Q0.0279637 22.4565 0.0558134 22.6043Q0.0836631 22.7521 0.125154 22.8951Q0.166644 23.038 0.221437 23.175Q0.276229 23.312 0.343877 23.4419Q0.411525 23.5717 0.491477 23.6935Q0.571429 23.8152 0.663032 23.9278Q0.754635 24.0404 0.857143 24.1429Q0.959651 24.2454 1.07223 24.337Q1.1848 24.4286 1.30653 24.5085Q1.42826 24.5885 1.55814 24.6561Q1.68802 24.7238 1.825 24.7786Q1.96199 24.8334 2.10495 24.8748Q2.24791 24.9163 2.39569 24.9442Q2.54347 24.972 2.69485 24.986Q2.84624 25 3 25L22 25Q22.1538 25 22.3051 24.986Q22.4565 24.972 22.6043 24.9442Q22.7521 24.9163 22.8951 24.8748Q23.038 24.8334 23.175 24.7786Q23.312 24.7238 23.4419 24.6561Q23.5717 24.5885 23.6935 24.5085Q23.8152 24.4286 23.9278 24.337Q24.0404 24.2454 24.1429 24.1429Q24.2454 24.0404 24.337 23.9278Q24.4286 23.8152 24.5085 23.6935Q24.5885 23.5717 24.6561 23.4419Q24.7238 23.312 24.7786 23.175Q24.8334 23.038 24.8748 22.8951Q24.9163 22.7521 24.9442 22.6043Q24.972 22.4565 24.986 22.3051Q25 22.1538 25 22L25 3Q25 2.84624 24.986 2.69485Q24.972 2.54347 24.9442 2.39569Q24.9163 2.24791 24.8748 2.10495Q24.8334 1.96199 24.7786 1.825Q24.7238 1.68802 24.6561 1.55814Q24.5885 1.42826 24.5085 1.30653Q24.4286 1.1848 24.337 1.07223Q24.2454 0.959651 24.1429 0.857143Q24.0404 0.754635 23.9278 0.663032Q23.8152 0.571429 23.6935 0.491477Q23.5717 0.411525 23.4419 0.343877Q23.312 0.276229 23.175 0.221437Q23.038 0.166644 22.8951 0.125154Q22.7521 0.0836631 22.6043 0.0558134Q22.4565 0.0279637 22.3051 0.0139819Q22.1538 0 22 0Z" clip-rule="evenodd"/>
		</clipPath>
	</defs>
	<g clip-path="url(#clip_0)">
		<path fill="none" stroke="rgb(255,255,255)" stroke-width="2" stroke-miterlimit="4" stroke-opacity="0.39607844" d="M3 0L22 0Q22.1538 0 22.3051 0.0139819Q22.4565 0.0279637 22.6043 0.0558134Q22.7521 0.0836631 22.8951 0.125154Q23.038 0.166644 23.175 0.221437Q23.312 0.276229 23.4419 0.343877Q23.5717 0.411525 23.6935 0.491477Q23.8152 0.571429 23.9278 0.663032Q24.0404 0.754635 24.1429 0.857143Q24.2454 0.959651 24.337 1.07223Q24.4286 1.1848 24.5085 1.30653Q24.5885 1.42826 24.6561 1.55814Q24.7238 1.68802 24.7786 1.825Q24.8334 1.96199 24.8748 2.10495Q24.9163 2.24791 24.9442 2.39569Q24.972 2.54347 24.986 2.69485Q25 2.84624 25 3L25 22Q25 22.1538 24.986 22.3051Q24.972 22.4565 24.9442 22.6043Q24.9163 22.7521 24.8748 22.8951Q24.8334 23.038 24.7786 23.175Q24.7238 23.312 24.6561 23.4419Q24.5885 23.5717 24.5085 23.6935Q24.4286 23.8152 24.337 23.9278Q24.2454 24.0404 24.1429 24.1429Q24.0404 24.2454 23.9278 24.337Q23.8152 24.4286 23.6935 24.5085Q23.5717 24.5885 23.4419 24.6561Q23.312 24.7238 23.175 24.7786Q23.038 24.8334 22.8951 24.8748Q22.7521 24.9163 22.6043 24.9442Q22.4565 24.972 22.3051 24.986Q22.1538 25 22 25L3 25Q2.84624 25 2.69485 24.986Q2.54347 24.972 2.39569 24.9442Q2.24791 24.9163 2.10495 24.8748Q1.96199 24.8334 1.825 24.7786Q1.68802 24.7238 1.55814 24.6561Q1.42826 24.5885 1.30653 24.5085Q1.1848 24.4286 1.07223 24.337Q0.959651 24.2454 0.857143 24.1429Q0.754635 24.0404 0.663032 23.9278Q0.571429 23.8152 0.491477 23.6935Q0.411525 23.5717 0.343877 23.4419Q0.276229 23.312 0.221437 23.175Q0.166644 23.038 0.125154 22.8951Q0.0836631 22.7521 0.0558134 22.6043Q0.0279637 22.4565 0.0139819 22.3051Q0 22.1538 0 22L0 3Q0 2.84624 0.0139819 2.69485Q0.0279637 2.54347 0.0558134 2.39569Q0.0836631 2.24791 0.125154 2.10495Q0.166644 1.96199 0.221437 1.825Q0.276229 1.68802 0.343877 1.55814Q0.411525 1.42826 0.491477 1.30653Q0.571429 1.1848 0.663032 1.07223Q0.754635 0.959651 0.857143 0.857143Q0.959651 0.754635 1.07223 0.663032Q1.1848 0.571429 1.30653 0.491477Q1.42826 0.411525 1.55814 0.343877Q1.68802 0.276229 1.825 0.221437Q1.96199 0.166644 2.10495 0.125154Q2.24791 0.0836631 2.39569 0.0558134Q2.54347 0.0279637 2.69485 0.0139819Q2.84624 0 3 0Z"/>
	</g>
	<text fill="rgb(255,255,255)" stroke="none" transform="translate(5 6)" font-size="10" font-weight="bold" font-family="Segoe UI" x="1.7675781" y="10.000977">
			ST
	</text>

</svg>