<?xml version="1.0" encoding="utf-8" ?>
<svg xmlns="http://www.w3.org/2000/svg" xmlns:xlink="http://www.w3.org/1999/xlink" width="61" height="38">
	<path fill="rgb(0,189,45)" stroke="none" transform="translate(46.0967 27.0323)" d="M0 4.83871C0 2.16655 2.16655 0 4.83871 0C7.51087 0 9.67742 2.16655 9.67742 4.83871C9.67742 7.51087 7.51087 9.67742 4.83871 9.67742C2.16655 9.67742 0 7.51087 0 4.83871ZM3.22581 4.83871C3.22581 5.72943 3.94799 6.45161 4.83871 6.45161C5.72943 6.45161 6.45161 5.72943 6.45161 4.83871C6.45161 3.94799 5.72943 3.22581 4.83871 3.22581C3.94799 3.22581 3.22581 3.94799 3.22581 4.83871Z" fill-rule="evenodd"/>
	<path fill="rgb(0,189,45)" stroke="none" transform="translate(12.2258 27.0323)" d="M0 4.83871C0 2.16655 2.16655 0 4.83871 0C7.51087 0 9.67742 2.16655 9.67742 4.83871C9.67742 7.51087 7.51087 9.67742 4.83871 9.67742C2.16655 9.67742 0 7.51087 0 4.83871ZM3.22581 4.83871C3.22581 5.72943 3.94799 6.45161 4.83871 6.45161C5.72943 6.45161 6.45161 5.72943 6.45161 4.83871C6.45161 3.94799 5.72943 3.22581 4.83871 3.22581C3.94799 3.22581 3.22581 3.94799 3.22581 4.83871Z" fill-rule="evenodd"/>
	<path fill="rgb(0,189,45)" stroke="none" transform="translate(15.4517 30.2581)" d="M3.22581 1.6129C3.22581 2.50362 2.50362 3.22581 1.6129 3.22581C0.722184 3.22581 0 2.50362 0 1.6129C0 0.722184 0.722184 0 1.6129 0C2.50362 0 3.22581 0.722184 3.22581 1.6129Z"/>
	<path fill="rgb(0,189,45)" stroke="none" transform="translate(49.3225 30.2581)" d="M3.22581 1.6129C3.22581 2.50362 2.50362 3.22581 1.6129 3.22581C0.722184 3.22581 0 2.50362 0 1.6129C0 0.722184 0.722184 0 1.6129 0C2.50362 0 3.22581 0.722184 3.22581 1.6129Z"/>
	<path fill="rgb(0,189,45)" stroke="none" transform="translate(9.8064 2.65161)" d="M36.2903 5.69946L33.0645 5.02581L33.0645 25.1871L33.0645 0L0 0L0 29.2194L2.41936 29.2194C2.41936 26.5472 4.58591 24.3806 7.25807 24.3806C9.93022 24.3806 12.0968 26.5472 12.0968 29.2194L36.2903 29.2194C36.2903 26.5472 38.4569 24.3806 41.129 24.3806C43.8012 24.3806 45.9677 26.5472 45.9677 29.2194L48.3871 29.2194L48.3871 17.1226L36.2903 17.1226L36.2903 5.69946Z"/>
	<path fill="rgb(0,123,31)" stroke="none" transform="translate(0.555908 0.957703)" d="M58.2827 15.9132L51.0246 6.23576C50.8726 6.03297 50.6336 5.91326 50.3796 5.91326L43.1216 5.91326L43.1216 0.806452C43.1216 0.361092 42.7605 0 42.3151 0L0.806452 0C0.361092 0 0 0.361092 0 0.806452L0 30.9133C0 31.3586 0.361092 31.7197 0.806452 31.7197L10.9281 31.7197C11.3266 34.4954 13.7046 36.5561 16.5087 36.5561C19.3127 36.5561 21.6907 34.4954 22.0892 31.7197L44.799 31.7197C45.1975 34.4954 47.5756 36.5561 50.3796 36.5561C53.1837 36.5561 55.5617 34.4954 55.9602 31.7197L57.6377 31.7197C58.0831 31.7197 58.4441 31.3586 58.4441 30.9133L58.4441 16.3971C58.4441 16.2227 58.3874 16.053 58.2827 15.9132ZM41.5087 26.0745L41.5087 1.73516L10.057 1.73516L10.057 26.0745L13.2829 26.0745C13.3683 26.0777 13.453 26.095 13.5329 26.1253C15.3521 24.9822 17.6652 24.9822 19.4844 26.1253C19.5644 26.095 19.649 26.0777 19.7345 26.0745L41.5087 26.0745ZM44.7345 18.8165L44.7345 7.52616L43.1216 7.52616L43.1216 26.0746L47.1538 26.0746C47.2393 26.0777 47.3239 26.095 47.4039 26.1253C49.2231 24.9822 51.5361 24.9822 53.3554 26.1253C53.4353 26.095 53.52 26.0777 53.6054 26.0746L56.8312 26.0746L56.8312 19.6229L45.5409 19.6229C45.0956 19.6229 44.7345 19.2618 44.7345 18.8165ZM56.8312 16.6657L56.8312 18.01L46.3474 18.01L46.3474 7.52616L49.9764 7.52616L56.8312 16.6657ZM12.4764 30.9133C12.4764 33.1401 14.2819 34.9455 16.5087 34.9455C18.7347 34.9428 20.5382 33.1393 20.5409 30.9133C20.5409 28.6865 18.7355 26.881 16.5087 26.881C14.2819 26.881 12.4764 28.6865 12.4764 30.9133ZM50.3796 34.9455C48.1528 34.9455 46.3474 33.1401 46.3474 30.9133C46.3474 28.6865 48.1528 26.881 50.3796 26.881C52.6064 26.881 54.4119 28.6865 54.4119 30.9133C54.4091 33.1393 52.6056 34.9428 50.3796 34.9455ZM10.057 27.6875L11.883 27.6875C11.379 28.4077 11.0521 29.2366 10.9281 30.1068L10.057 30.1068L10.057 27.6875ZM44.799 30.1068L22.0892 30.1068C21.9652 29.2366 21.6384 28.4077 21.1343 27.6875L45.754 27.6875C45.2499 28.4077 44.9231 29.2366 44.799 30.1068ZM55.0053 27.6875C55.5093 28.4077 55.8362 29.2366 55.9602 30.1068L56.8312 30.1068L56.8312 27.6875L55.0053 27.6875Z" fill-rule="evenodd"/>
	<path fill="rgb(0,123,31)" stroke="none" transform="translate(14.6453 29.4516)" d="M0 2.41935C0 1.08328 1.08328 0 2.41935 0C3.75543 0 4.83871 1.08328 4.83871 2.41935C4.83871 3.75543 3.75543 4.83871 2.41935 4.83871C1.08328 4.83871 0 3.75543 0 2.41935ZM1.6129 2.41935C1.6129 2.86471 1.974 3.22581 2.41935 3.22581C2.86471 3.22581 3.22581 2.86471 3.22581 2.41935C3.22581 1.974 2.86471 1.6129 2.41935 1.6129C1.974 1.6129 1.6129 1.974 1.6129 2.41935Z" fill-rule="evenodd"/>
	<path fill="rgb(0,123,31)" stroke="none" transform="translate(48.5161 29.4516)" d="M0 2.41935C0 1.08328 1.08328 0 2.41935 0C3.75543 0 4.83871 1.08328 4.83871 2.41935C4.83871 3.75543 3.75543 4.83871 2.41935 4.83871C1.08328 4.83871 0 3.75543 0 2.41935ZM1.6129 2.41935C1.6129 2.86471 1.974 3.22581 2.41935 3.22581C2.86471 3.22581 3.22581 2.86471 3.22581 2.41935C3.22581 1.974 2.86471 1.6129 2.41935 1.6129C1.974 1.6129 1.6129 1.974 1.6129 2.41935Z" fill-rule="evenodd"/>
	<path fill="rgb(0,123,31)" stroke="none" transform="translate(45 22)" d="M0.806452 1.6129L4.03226 1.6129C4.47762 1.6129 4.83871 1.25181 4.83871 0.806452C4.83871 0.361092 4.47762 0 4.03226 0L0.806452 0C0.361092 0 0 0.361092 0 0.806452C0 1.25181 0.361092 1.6129 0.806452 1.6129Z"/>
	<path fill="rgb(0,189,45)" stroke="none" transform="translate(2.43994 2.71191)" d="M0 0L8.55994 0L14.2494 23.4409C14.2494 23.4409 13.151 23.0464 11.1865 24.7944C9.22205 26.5425 8.55994 28.3159 8.55994 28.3159L0 28.3159L0 0Z"/>
	<defs>
		<clipPath id="clip_0">
			<path d="M21 27L1 27L1 28.6696L14.3344 28.6696C14.3344 28.6696 15.7809 27.4851 17.1021 27.4851C18.4232 27.4851 19.6102 28.6696 19.6102 28.6696L21 28.6696L21 27Z" clip-rule="evenodd"/>
		</clipPath>
	</defs>
	<g clip-path="url(#clip_0)">
		<path fill="none" stroke="rgb(0,123,31)" stroke-width="2" stroke-miterlimit="4" transform="translate(1 27)" d="M0 0L20 0L20 1.66956L18.6102 1.66956C18.6102 1.66956 17.4232 0.485107 16.1021 0.485107C14.7809 0.485107 13.3344 1.66956 13.3344 1.66956L0 1.66956L0 0Z"/>
	</g>
	<path fill="rgb(0,189,45)" stroke="none" transform="translate(44.9443 14.203)" d="M1.21646 -0.000199951L10.0591 0.71622Q10.1614 0.724515 10.2663 0.749914Q10.3713 0.775313 10.4753 0.816989Q10.5793 0.858665 10.6791 0.915261Q10.7788 0.971857 10.871 1.04153Q10.9633 1.1112 11.045 1.19169Q11.1267 1.27217 11.1952 1.36084Q11.2637 1.44951 11.3168 1.54349Q11.37 1.63746 11.4059 1.73368L12.8818 5.68205Q12.9178 5.77827 12.9337 5.87074Q12.9497 5.96321 12.9451 6.04893Q12.9406 6.13464 12.9156 6.21081Q12.8907 6.28698 12.8462 6.35112Q12.8017 6.41527 12.7391 6.4653Q12.6764 6.51533 12.5978 6.54961Q12.5191 6.5839 12.4269 6.60133Q12.3347 6.61875 12.2319 6.61875L0.960571 6.61875Q0.857853 6.61875 0.759852 6.60016Q0.661852 6.58157 0.571758 6.545Q0.481665 6.50842 0.402413 6.45505Q0.32316 6.40168 0.257328 6.33325Q0.191497 6.26483 0.14123 6.18357Q0.0909627 6.10231 0.0578965 6.01087Q0.0248303 5.91943 0.0100416 5.82079Q-0.00474707 5.72214 -0.00077676 5.6195L0.181073 0.918298Q0.185043 0.815657 0.207403 0.718514Q0.229763 0.62137 0.269783 0.532886Q0.309804 0.444402 0.366183 0.367459Q0.422562 0.290516 0.493463 0.227619Q0.564365 0.164722 0.647481 0.117918Q0.730597 0.0711144 0.823221 0.0419283Q0.915845 0.0127421 1.01496 0.00212361Q1.11408 -0.00849487 1.21646 -0.000199951Z"/>
	<path fill="rgb(247,247,247)" stroke="none" transform="translate(43.7263 6)" d="M2.25978e-16 0L14.2737 0L16.2834 15L1.81982 10.9521L0 9.54053L2.25978e-16 0Z"/>
	<path fill="rgb(216,216,216)" stroke="none" transform="translate(43 14.7278)" d="M0 0C0 0 14.4476 4.38076 15.2126 4.68066C15.9777 4.98057 16 6.27222 16 6.27222L0 1.51208L0 0Z"/>
	<defs>
		<clipPath id="clip_1">
			<path d="M58.2126 19.4084C57.4476 19.1085 43 14.7278 43 14.7278L43 16.2399L59 21C59 21 58.9777 19.7084 58.2126 19.4084Z" clip-rule="evenodd"/>
		</clipPath>
	</defs>
	<g clip-path="url(#clip_1)">
		<path fill="none" stroke="rgb(0,123,31)" stroke-width="2" stroke-miterlimit="4" transform="translate(43 14.7278)" d="M0 0C0 0 14.4476 4.38076 15.2126 4.68066C15.9777 4.98057 16 6.27222 16 6.27222L0 1.51208L0 0Z"/>
	</g>
	<path fill="rgb(255,255,255)" stroke="none" transform="translate(42.0225 5.09521)" d="M1 6.66134e-16L15.9775 6.66134e-16Q16.0803 6.66134e-16 16.179 0.0186045Q16.2777 0.037209 16.3692 0.0738122Q16.4607 0.110415 16.542 0.163826Q16.6233 0.217236 16.6918 0.285714Q16.7603 0.354193 16.8137 0.43551Q16.8671 0.516827 16.9037 0.608335Q16.9403 0.699843 16.9589 0.798563Q16.9775 0.897283 16.9775 1L16.9775 15.4087Q16.9775 15.5114 16.9599 15.6042Q16.9422 15.6971 16.9075 15.777Q16.8728 15.8569 16.8221 15.9214Q16.7715 15.9858 16.7065 16.0326Q16.6415 16.0794 16.5644 16.1071Q16.4873 16.1348 16.4005 16.1424Q16.3136 16.1501 16.22 16.1374Q16.1263 16.1248 16.0289 16.0923L0.948634 11.063Q0.851193 11.0305 0.757544 10.9806Q0.663895 10.9308 0.577087 10.8652Q0.490279 10.7997 0.413139 10.7205Q0.335999 10.6414 0.271038 10.5513Q0.206077 10.4611 0.155411 10.3629Q0.104744 10.2647 0.0700208 10.1616Q0.0352977 10.0585 0.0176488 9.95391Q6.02155e-15 9.8493 5.95991e-15 9.74658L7.11118e-16 1Q6.49478e-16 0.897283 0.0186045 0.798563Q0.037209 0.699843 0.0738122 0.608335Q0.110415 0.516827 0.163826 0.43551Q0.217236 0.354193 0.285714 0.285714Q0.354193 0.217236 0.43551 0.163826Q0.516827 0.110415 0.608335 0.0738122Q0.699843 0.037209 0.798563 0.0186045Q0.897283 6.66134e-16 1 6.66134e-16Z"/>
	<defs>
		<clipPath id="clip_2">
			<path d="M58 5.09521L43.0225 5.09521Q42.9197 5.09521 42.821 5.11382Q42.7223 5.13242 42.6308 5.16903Q42.5393 5.20563 42.458 5.25904Q42.3767 5.31245 42.3082 5.38093Q42.2397 5.44941 42.1863 5.53073Q42.1329 5.61204 42.0963 5.70355Q42.0597 5.79506 42.0411 5.89378Q42.0225 5.9925 42.0225 6.09521L42.0225 14.8418Q42.0225 14.9445 42.0401 15.0491Q42.0578 15.1537 42.0925 15.2568Q42.1272 15.3599 42.1779 15.4581Q42.2285 15.5563 42.2935 15.6465Q42.3585 15.7366 42.4356 15.8158Q42.5127 15.8949 42.5996 15.9604Q42.6864 16.026 42.78 16.0758Q42.8737 16.1257 42.9711 16.1582L58.0514 21.1875Q58.2479 21.2531 58.4229 21.2376Q58.598 21.2222 58.729 21.1278Q58.86 21.0334 58.93 20.8722Q59 20.711 59 20.5039L59 6.09521Q59 5.9925 58.9814 5.89378Q58.9628 5.79506 58.9262 5.70355Q58.8896 5.61204 58.8362 5.53073Q58.7828 5.44941 58.7143 5.38093Q58.6458 5.31245 58.5645 5.25904Q58.4832 5.20563 58.3917 5.16903Q58.3002 5.13242 58.2014 5.11382Q58.1027 5.09521 58 5.09521Z" clip-rule="evenodd"/>
		</clipPath>
	</defs>
	<g clip-path="url(#clip_2)">
		<path fill="none" stroke="rgb(0,123,31)" stroke-width="2.8" stroke-miterlimit="4" transform="translate(42.0225 5.09521)" d="M1 6.66134e-16L15.9775 6.66134e-16Q16.0803 6.66134e-16 16.179 0.0186045Q16.2777 0.037209 16.3692 0.0738122Q16.4607 0.110415 16.542 0.163826Q16.6233 0.217236 16.6918 0.285714Q16.7603 0.354193 16.8137 0.43551Q16.8671 0.516827 16.9037 0.608335Q16.9403 0.699843 16.9589 0.798563Q16.9775 0.897283 16.9775 1L16.9775 15.4087Q16.9775 15.5114 16.9599 15.6042Q16.9422 15.6971 16.9075 15.777Q16.8728 15.8569 16.8221 15.9214Q16.7715 15.9858 16.7065 16.0326Q16.6415 16.0794 16.5644 16.1071Q16.4873 16.1348 16.4005 16.1424Q16.3136 16.1501 16.22 16.1374Q16.1263 16.1248 16.0289 16.0923L0.948634 11.063Q0.851193 11.0305 0.757544 10.9806Q0.663895 10.9308 0.577087 10.8652Q0.490279 10.7997 0.413139 10.7205Q0.335999 10.6414 0.271038 10.5513Q0.206077 10.4611 0.155411 10.3629Q0.104744 10.2647 0.0700208 10.1616Q0.0352977 10.0585 0.0176488 9.95391Q6.02155e-15 9.8493 5.95991e-15 9.74658L7.11118e-16 1Q6.49478e-16 0.897283 0.0186045 0.798563Q0.037209 0.699843 0.0738122 0.608335Q0.110415 0.516827 0.163826 0.43551Q0.217236 0.354193 0.285714 0.285714Q0.354193 0.217236 0.43551 0.163826Q0.516827 0.110415 0.608335 0.0738122Q0.699843 0.037209 0.798563 0.0186045Q0.897283 6.66134e-16 1 6.66134e-16Z"/>
	</g>
	<path fill="none" stroke="rgb(0,123,31)" stroke-width="1.4" stroke-miterlimit="4" transform="translate(34.166 1.64929)" d="M21.3341 3.85071C21.3341 3.85071 13.484 0 8.36401 0C3.24402 0 0 0.268433 0 0.268433"/>

</svg>