<?xml version="1.0" encoding="utf-8" ?>
<svg xmlns="http://www.w3.org/2000/svg" xmlns:xlink="http://www.w3.org/1999/xlink" width="36" height="26">
	<defs>
		<clipPath id="clip_0">
			<path d="M263.19 -32.3999L-25.8699 -32.3999Q-26.0191 -32.3999 -26.1659 -32.3863Q-26.3127 -32.3728 -26.4561 -32.3458Q-26.5994 -32.3188 -26.7381 -32.2785Q-26.8768 -32.2383 -27.0097 -32.1851Q-27.1425 -32.132 -27.2685 -32.0663Q-27.3945 -32.0007 -27.5126 -31.9232Q-27.6307 -31.8456 -27.7399 -31.7568Q-27.849 -31.6679 -27.9485 -31.5685Q-28.0479 -31.469 -28.1368 -31.3598Q-28.2256 -31.2506 -28.3032 -31.1326Q-28.3807 -31.0145 -28.4464 -30.8885Q-28.512 -30.7625 -28.5651 -30.6296Q-28.6183 -30.4968 -28.6585 -30.3581Q-28.6988 -30.2194 -28.7258 -30.0761Q-28.7528 -29.9327 -28.7663 -29.7859Q-28.7799 -29.6391 -28.7799 -29.4899L-28.7799 136.38Q-28.7799 136.529 -28.7663 136.676Q-28.7528 136.823 -28.7258 136.966Q-28.6988 137.11 -28.6585 137.248Q-28.6183 137.387 -28.5651 137.52Q-28.512 137.653 -28.4464 137.779Q-28.3807 137.905 -28.3032 138.023Q-28.2256 138.141 -28.1368 138.25Q-28.0479 138.359 -27.9485 138.459Q-27.849 138.558 -27.7398 138.647Q-27.6307 138.736 -27.5126 138.813Q-27.3945 138.891 -27.2685 138.957Q-27.1425 139.022 -27.0097 139.075Q-26.8768 139.128 -26.7381 139.169Q-26.5994 139.209 -26.4561 139.236Q-26.3127 139.263 -26.1659 139.277Q-26.0191 139.29 -25.8699 139.29L263.19 139.29Q263.339 139.29 263.486 139.277Q263.633 139.263 263.776 139.236Q263.92 139.209 264.058 139.169Q264.197 139.128 264.33 139.075Q264.463 139.022 264.589 138.957Q264.715 138.891 264.833 138.813Q264.951 138.736 265.06 138.647Q265.169 138.558 265.269 138.459Q265.368 138.359 265.457 138.25Q265.546 138.141 265.623 138.023Q265.701 137.905 265.767 137.779Q265.832 137.653 265.885 137.52Q265.939 137.387 265.979 137.248Q266.019 137.11 266.046 136.966Q266.073 136.823 266.087 136.676Q266.1 136.529 266.1 136.38L266.1 -29.4899Q266.1 -29.6391 266.087 -29.7859Q266.073 -29.9327 266.046 -30.0761Q266.019 -30.2194 265.979 -30.3581Q265.939 -30.4968 265.885 -30.6297Q265.832 -30.7625 265.767 -30.8885Q265.701 -31.0145 265.623 -31.1326Q265.546 -31.2506 265.457 -31.3598Q265.368 -31.469 265.269 -31.5685Q265.169 -31.6679 265.06 -31.7568Q264.951 -31.8456 264.833 -31.9232Q264.715 -32.0007 264.589 -32.0663Q264.463 -32.132 264.33 -32.1851Q264.197 -32.2383 264.058 -32.2785Q263.92 -32.3188 263.776 -32.3458Q263.633 -32.3728 263.486 -32.3863Q263.339 -32.3999 263.19 -32.3999Z" clip-rule="evenodd"/>
		</clipPath>
	</defs>
	<g clip-path="url(#clip_0)">
		<path fill="rgb(0,123,31)" stroke="none" transform="matrix(0.97 0 0 0.97 5.94617 18.6584)" d="M0 3.6C0 1.61459 1.61459 0 3.6 0C5.58534 0 7.2 1.61459 7.2 3.6C7.2 5.58541 5.58541 7.2 3.6 7.2C1.61459 7.2 0 5.58541 0 3.6ZM1.20002 3.6C1.20002 4.92356 2.27637 5.99998 3.6 5.99998C4.92356 5.99998 5.99998 4.92356 5.99998 3.6C5.99998 2.27644 4.92356 1.20002 3.6 1.20002C2.27644 1.20002 1.20002 2.27637 1.20002 3.6Z" fill-rule="evenodd"/>
	</g>
	<defs>
		<clipPath id="clip_1">
			<path d="M263.19 -32.3999L-25.8699 -32.3999Q-26.0191 -32.3999 -26.1659 -32.3863Q-26.3127 -32.3728 -26.4561 -32.3458Q-26.5994 -32.3188 -26.7381 -32.2785Q-26.8768 -32.2383 -27.0097 -32.1851Q-27.1425 -32.132 -27.2685 -32.0663Q-27.3945 -32.0007 -27.5126 -31.9232Q-27.6307 -31.8456 -27.7399 -31.7568Q-27.849 -31.6679 -27.9485 -31.5685Q-28.0479 -31.469 -28.1368 -31.3598Q-28.2256 -31.2506 -28.3032 -31.1326Q-28.3807 -31.0145 -28.4464 -30.8885Q-28.512 -30.7625 -28.5651 -30.6296Q-28.6183 -30.4968 -28.6585 -30.3581Q-28.6988 -30.2194 -28.7258 -30.0761Q-28.7528 -29.9327 -28.7663 -29.7859Q-28.7799 -29.6391 -28.7799 -29.4899L-28.7799 136.38Q-28.7799 136.529 -28.7663 136.676Q-28.7528 136.823 -28.7258 136.966Q-28.6988 137.11 -28.6585 137.248Q-28.6183 137.387 -28.5651 137.52Q-28.512 137.653 -28.4464 137.779Q-28.3807 137.905 -28.3032 138.023Q-28.2256 138.141 -28.1368 138.25Q-28.0479 138.359 -27.9485 138.459Q-27.849 138.558 -27.7398 138.647Q-27.6307 138.736 -27.5126 138.813Q-27.3945 138.891 -27.2685 138.957Q-27.1425 139.022 -27.0097 139.075Q-26.8768 139.128 -26.7381 139.169Q-26.5994 139.209 -26.4561 139.236Q-26.3127 139.263 -26.1659 139.277Q-26.0191 139.29 -25.8699 139.29L263.19 139.29Q263.339 139.29 263.486 139.277Q263.633 139.263 263.776 139.236Q263.92 139.209 264.058 139.169Q264.197 139.128 264.33 139.075Q264.463 139.022 264.589 138.957Q264.715 138.891 264.833 138.813Q264.951 138.736 265.06 138.647Q265.169 138.558 265.269 138.459Q265.368 138.359 265.457 138.25Q265.546 138.141 265.623 138.023Q265.701 137.905 265.767 137.779Q265.832 137.653 265.885 137.52Q265.939 137.387 265.979 137.248Q266.019 137.11 266.046 136.966Q266.073 136.823 266.087 136.676Q266.1 136.529 266.1 136.38L266.1 -29.4899Q266.1 -29.6391 266.087 -29.7859Q266.073 -29.9327 266.046 -30.0761Q266.019 -30.2194 265.979 -30.3581Q265.939 -30.4968 265.885 -30.6297Q265.832 -30.7625 265.767 -30.8885Q265.701 -31.0145 265.623 -31.1326Q265.546 -31.2506 265.457 -31.3598Q265.368 -31.469 265.269 -31.5685Q265.169 -31.6679 265.06 -31.7568Q264.951 -31.8456 264.833 -31.9232Q264.715 -32.0007 264.589 -32.0663Q264.463 -32.132 264.33 -32.1851Q264.197 -32.2383 264.058 -32.2785Q263.92 -32.3188 263.776 -32.3458Q263.633 -32.3728 263.486 -32.3863Q263.339 -32.3999 263.19 -32.3999Z" clip-rule="evenodd"/>
		</clipPath>
	</defs>
	<g clip-path="url(#clip_1)">
		<path fill="rgb(0,123,31)" stroke="none" transform="matrix(0.97 0 0 0.97 25.734 18.6584)" d="M0 3.6C0 1.61459 1.61459 0 3.6 0C5.58541 0 7.2 1.61459 7.2 3.6C7.2 5.58541 5.58541 7.2 3.6 7.2C1.61459 7.2 0 5.58541 0 3.6ZM1.20002 3.6C1.20002 4.92356 2.27637 5.99998 3.6 5.99998C4.92363 5.99998 5.99998 4.92356 5.99998 3.6C5.99998 2.27644 4.92363 1.20002 3.6 1.20002C2.27644 1.20002 1.20002 2.27637 1.20002 3.6Z" fill-rule="evenodd"/>
	</g>
	<defs>
		<clipPath id="clip_2">
			<path d="M263.19 -32.3999L-25.8699 -32.3999Q-26.0191 -32.3999 -26.1659 -32.3863Q-26.3127 -32.3728 -26.4561 -32.3458Q-26.5994 -32.3188 -26.7381 -32.2785Q-26.8768 -32.2383 -27.0097 -32.1851Q-27.1425 -32.132 -27.2685 -32.0663Q-27.3945 -32.0007 -27.5126 -31.9232Q-27.6307 -31.8456 -27.7399 -31.7568Q-27.849 -31.6679 -27.9485 -31.5685Q-28.0479 -31.469 -28.1368 -31.3598Q-28.2256 -31.2506 -28.3032 -31.1326Q-28.3807 -31.0145 -28.4464 -30.8885Q-28.512 -30.7625 -28.5651 -30.6296Q-28.6183 -30.4968 -28.6585 -30.3581Q-28.6988 -30.2194 -28.7258 -30.0761Q-28.7528 -29.9327 -28.7663 -29.7859Q-28.7799 -29.6391 -28.7799 -29.4899L-28.7799 136.38Q-28.7799 136.529 -28.7663 136.676Q-28.7528 136.823 -28.7258 136.966Q-28.6988 137.11 -28.6585 137.248Q-28.6183 137.387 -28.5651 137.52Q-28.512 137.653 -28.4464 137.779Q-28.3807 137.905 -28.3032 138.023Q-28.2256 138.141 -28.1368 138.25Q-28.0479 138.359 -27.9485 138.459Q-27.849 138.558 -27.7398 138.647Q-27.6307 138.736 -27.5126 138.813Q-27.3945 138.891 -27.2685 138.957Q-27.1425 139.022 -27.0097 139.075Q-26.8768 139.128 -26.7381 139.169Q-26.5994 139.209 -26.4561 139.236Q-26.3127 139.263 -26.1659 139.277Q-26.0191 139.29 -25.8699 139.29L263.19 139.29Q263.339 139.29 263.486 139.277Q263.633 139.263 263.776 139.236Q263.92 139.209 264.058 139.169Q264.197 139.128 264.33 139.075Q264.463 139.022 264.589 138.957Q264.715 138.891 264.833 138.813Q264.951 138.736 265.06 138.647Q265.169 138.558 265.269 138.459Q265.368 138.359 265.457 138.25Q265.546 138.141 265.623 138.023Q265.701 137.905 265.767 137.779Q265.832 137.653 265.885 137.52Q265.939 137.387 265.979 137.248Q266.019 137.11 266.046 136.966Q266.073 136.823 266.087 136.676Q266.1 136.529 266.1 136.38L266.1 -29.4899Q266.1 -29.6391 266.087 -29.7859Q266.073 -29.9327 266.046 -30.0761Q266.019 -30.2194 265.979 -30.3581Q265.939 -30.4968 265.885 -30.6297Q265.832 -30.7625 265.767 -30.8885Q265.701 -31.0145 265.623 -31.1326Q265.546 -31.2506 265.457 -31.3598Q265.368 -31.469 265.269 -31.5685Q265.169 -31.6679 265.06 -31.7568Q264.951 -31.8456 264.833 -31.9232Q264.715 -32.0007 264.589 -32.0663Q264.463 -32.132 264.33 -32.1851Q264.197 -32.2383 264.058 -32.2785Q263.92 -32.3188 263.776 -32.3458Q263.633 -32.3728 263.486 -32.3863Q263.339 -32.3999 263.19 -32.3999Z" clip-rule="evenodd"/>
		</clipPath>
	</defs>
	<g clip-path="url(#clip_2)">
		<path fill="rgb(0,123,31)" stroke="none" transform="matrix(0.97 0 0 0.97 23.4061 7.01843)" d="M13.1046 8.67544L7.70456 0.275414C7.59417 0.103781 7.40398 0 7.19993 0L0.599977 0C0.268172 0 0 0.268805 0 0.599977L0 15.6C0 15.9318 0.268172 16.1999 0.599977 16.1999L2.99995 16.1999L2.99995 14.9999L1.19995 14.9999L1.19995 1.20002L6.87234 1.20002L12 9.17641L12 15L8.99993 15L8.99993 16.2L12.5999 16.2C12.9317 16.2 13.1999 15.9318 13.1999 15.6L13.1999 9C13.2 8.88539 13.167 8.77198 13.1046 8.67544Z"/>
	</g>
	<defs>
		<clipPath id="clip_3">
			<path d="M263.19 -32.3999L-25.8699 -32.3999Q-26.0191 -32.3999 -26.1659 -32.3863Q-26.3127 -32.3728 -26.4561 -32.3458Q-26.5994 -32.3188 -26.7381 -32.2785Q-26.8768 -32.2383 -27.0097 -32.1851Q-27.1425 -32.132 -27.2685 -32.0663Q-27.3945 -32.0007 -27.5126 -31.9232Q-27.6307 -31.8456 -27.7399 -31.7568Q-27.849 -31.6679 -27.9485 -31.5685Q-28.0479 -31.469 -28.1368 -31.3598Q-28.2256 -31.2506 -28.3032 -31.1326Q-28.3807 -31.0145 -28.4464 -30.8885Q-28.512 -30.7625 -28.5651 -30.6296Q-28.6183 -30.4968 -28.6585 -30.3581Q-28.6988 -30.2194 -28.7258 -30.0761Q-28.7528 -29.9327 -28.7663 -29.7859Q-28.7799 -29.6391 -28.7799 -29.4899L-28.7799 136.38Q-28.7799 136.529 -28.7663 136.676Q-28.7528 136.823 -28.7258 136.966Q-28.6988 137.11 -28.6585 137.248Q-28.6183 137.387 -28.5651 137.52Q-28.512 137.653 -28.4464 137.779Q-28.3807 137.905 -28.3032 138.023Q-28.2256 138.141 -28.1368 138.25Q-28.0479 138.359 -27.9485 138.459Q-27.849 138.558 -27.7398 138.647Q-27.6307 138.736 -27.5126 138.813Q-27.3945 138.891 -27.2685 138.957Q-27.1425 139.022 -27.0097 139.075Q-26.8768 139.128 -26.7381 139.169Q-26.5994 139.209 -26.4561 139.236Q-26.3127 139.263 -26.1659 139.277Q-26.0191 139.29 -25.8699 139.29L263.19 139.29Q263.339 139.29 263.486 139.277Q263.633 139.263 263.776 139.236Q263.92 139.209 264.058 139.169Q264.197 139.128 264.33 139.075Q264.463 139.022 264.589 138.957Q264.715 138.891 264.833 138.813Q264.951 138.736 265.06 138.647Q265.169 138.558 265.269 138.459Q265.368 138.359 265.457 138.25Q265.546 138.141 265.623 138.023Q265.701 137.905 265.767 137.779Q265.832 137.653 265.885 137.52Q265.939 137.387 265.979 137.248Q266.019 137.11 266.046 136.966Q266.073 136.823 266.087 136.676Q266.1 136.529 266.1 136.38L266.1 -29.4899Q266.1 -29.6391 266.087 -29.7859Q266.073 -29.9327 266.046 -30.0761Q266.019 -30.2194 265.979 -30.3581Q265.939 -30.4968 265.885 -30.6297Q265.832 -30.7625 265.767 -30.8885Q265.701 -31.0145 265.623 -31.1326Q265.546 -31.2506 265.457 -31.3598Q265.368 -31.469 265.269 -31.5685Q265.169 -31.6679 265.06 -31.7568Q264.951 -31.8456 264.833 -31.9232Q264.715 -32.0007 264.589 -32.0663Q264.463 -32.132 264.33 -32.1851Q264.197 -32.2383 264.058 -32.2785Q263.92 -32.3188 263.776 -32.3458Q263.633 -32.3728 263.486 -32.3863Q263.339 -32.3999 263.19 -32.3999Z" clip-rule="evenodd"/>
		</clipPath>
	</defs>
	<g clip-path="url(#clip_3)">
		<path fill="rgb(0,123,31)" stroke="none" transform="matrix(0.97 0 0 0.97 25.734 9.34644)" d="M1.19995 5.4L1.19995 1.20002L5.99998 1.20002L5.99998 0L0.599977 0C0.268172 0 0 0.268805 0 0.599977L0 5.99998C0 6.33178 0.268172 6.59995 0.599977 6.59995L9.59998 6.59995L9.59998 5.39993L1.19995 5.39993L1.19995 5.4Z"/>
	</g>
	<defs>
		<clipPath id="clip_4">
			<path d="M263.19 -32.3999L-25.8699 -32.3999Q-26.0191 -32.3999 -26.1659 -32.3863Q-26.3127 -32.3728 -26.4561 -32.3458Q-26.5994 -32.3188 -26.7381 -32.2785Q-26.8768 -32.2383 -27.0097 -32.1851Q-27.1425 -32.132 -27.2685 -32.0663Q-27.3945 -32.0007 -27.5126 -31.9232Q-27.6307 -31.8456 -27.7399 -31.7568Q-27.849 -31.6679 -27.9485 -31.5685Q-28.0479 -31.469 -28.1368 -31.3598Q-28.2256 -31.2506 -28.3032 -31.1326Q-28.3807 -31.0145 -28.4464 -30.8885Q-28.512 -30.7625 -28.5651 -30.6296Q-28.6183 -30.4968 -28.6585 -30.3581Q-28.6988 -30.2194 -28.7258 -30.0761Q-28.7528 -29.9327 -28.7663 -29.7859Q-28.7799 -29.6391 -28.7799 -29.4899L-28.7799 136.38Q-28.7799 136.529 -28.7663 136.676Q-28.7528 136.823 -28.7258 136.966Q-28.6988 137.11 -28.6585 137.248Q-28.6183 137.387 -28.5651 137.52Q-28.512 137.653 -28.4464 137.779Q-28.3807 137.905 -28.3032 138.023Q-28.2256 138.141 -28.1368 138.25Q-28.0479 138.359 -27.9485 138.459Q-27.849 138.558 -27.7398 138.647Q-27.6307 138.736 -27.5126 138.813Q-27.3945 138.891 -27.2685 138.957Q-27.1425 139.022 -27.0097 139.075Q-26.8768 139.128 -26.7381 139.169Q-26.5994 139.209 -26.4561 139.236Q-26.3127 139.263 -26.1659 139.277Q-26.0191 139.29 -25.8699 139.29L263.19 139.29Q263.339 139.29 263.486 139.277Q263.633 139.263 263.776 139.236Q263.92 139.209 264.058 139.169Q264.197 139.128 264.33 139.075Q264.463 139.022 264.589 138.957Q264.715 138.891 264.833 138.813Q264.951 138.736 265.06 138.647Q265.169 138.558 265.269 138.459Q265.368 138.359 265.457 138.25Q265.546 138.141 265.623 138.023Q265.701 137.905 265.767 137.779Q265.832 137.653 265.885 137.52Q265.939 137.387 265.979 137.248Q266.019 137.11 266.046 136.966Q266.073 136.823 266.087 136.676Q266.1 136.529 266.1 136.38L266.1 -29.4899Q266.1 -29.6391 266.087 -29.7859Q266.073 -29.9327 266.046 -30.0761Q266.019 -30.2194 265.979 -30.3581Q265.939 -30.4968 265.885 -30.6297Q265.832 -30.7625 265.767 -30.8885Q265.701 -31.0145 265.623 -31.1326Q265.546 -31.2506 265.457 -31.3598Q265.368 -31.469 265.269 -31.5685Q265.169 -31.6679 265.06 -31.7568Q264.951 -31.8456 264.833 -31.9232Q264.715 -32.0007 264.589 -32.0663Q264.463 -32.132 264.33 -32.1851Q264.197 -32.2383 264.058 -32.2785Q263.92 -32.3188 263.776 -32.3458Q263.633 -32.3728 263.486 -32.3863Q263.339 -32.3999 263.19 -32.3999Z" clip-rule="evenodd"/>
		</clipPath>
	</defs>
	<g clip-path="url(#clip_4)">
		<path fill="rgb(0,123,31)" stroke="none" transform="matrix(0.97 0 0 0.97 1.29004 2.94446)" d="M23.4 0L0.599977 0C0.268805 0 0 0.268805 0 0.599977L0 19.8C0 20.1318 0.268805 20.4 0.599977 20.4L5.4 20.4L5.4 19.2L1.20002 19.2L1.20002 1.19995L22.8 1.19995L22.8 19.2L11.4 19.2L11.4 20.4L23.4 20.4C23.7318 20.4 24 20.1318 24 19.8L24 0.599977C24 0.268805 23.7318 0 23.4 0Z"/>
	</g>
	<defs>
		<clipPath id="clip_5">
			<path d="M263.19 -32.3999L-25.8699 -32.3999Q-26.0191 -32.3999 -26.1659 -32.3863Q-26.3127 -32.3728 -26.4561 -32.3458Q-26.5994 -32.3188 -26.7381 -32.2785Q-26.8768 -32.2383 -27.0097 -32.1851Q-27.1425 -32.132 -27.2685 -32.0663Q-27.3945 -32.0007 -27.5126 -31.9232Q-27.6307 -31.8456 -27.7399 -31.7568Q-27.849 -31.6679 -27.9485 -31.5685Q-28.0479 -31.469 -28.1368 -31.3598Q-28.2256 -31.2506 -28.3032 -31.1326Q-28.3807 -31.0145 -28.4464 -30.8885Q-28.512 -30.7625 -28.5651 -30.6296Q-28.6183 -30.4968 -28.6585 -30.3581Q-28.6988 -30.2194 -28.7258 -30.0761Q-28.7528 -29.9327 -28.7663 -29.7859Q-28.7799 -29.6391 -28.7799 -29.4899L-28.7799 136.38Q-28.7799 136.529 -28.7663 136.676Q-28.7528 136.823 -28.7258 136.966Q-28.6988 137.11 -28.6585 137.248Q-28.6183 137.387 -28.5651 137.52Q-28.512 137.653 -28.4464 137.779Q-28.3807 137.905 -28.3032 138.023Q-28.2256 138.141 -28.1368 138.25Q-28.0479 138.359 -27.9485 138.459Q-27.849 138.558 -27.7398 138.647Q-27.6307 138.736 -27.5126 138.813Q-27.3945 138.891 -27.2685 138.957Q-27.1425 139.022 -27.0097 139.075Q-26.8768 139.128 -26.7381 139.169Q-26.5994 139.209 -26.4561 139.236Q-26.3127 139.263 -26.1659 139.277Q-26.0191 139.29 -25.8699 139.29L263.19 139.29Q263.339 139.29 263.486 139.277Q263.633 139.263 263.776 139.236Q263.92 139.209 264.058 139.169Q264.197 139.128 264.33 139.075Q264.463 139.022 264.589 138.957Q264.715 138.891 264.833 138.813Q264.951 138.736 265.06 138.647Q265.169 138.558 265.269 138.459Q265.368 138.359 265.457 138.25Q265.546 138.141 265.623 138.023Q265.701 137.905 265.767 137.779Q265.832 137.653 265.885 137.52Q265.939 137.387 265.979 137.248Q266.019 137.11 266.046 136.966Q266.073 136.823 266.087 136.676Q266.1 136.529 266.1 136.38L266.1 -29.4899Q266.1 -29.6391 266.087 -29.7859Q266.073 -29.9327 266.046 -30.0761Q266.019 -30.2194 265.979 -30.3581Q265.939 -30.4968 265.885 -30.6297Q265.832 -30.7625 265.767 -30.8885Q265.701 -31.0145 265.623 -31.1326Q265.546 -31.2506 265.457 -31.3598Q265.368 -31.469 265.269 -31.5685Q265.169 -31.6679 265.06 -31.7568Q264.951 -31.8456 264.833 -31.9232Q264.715 -32.0007 264.589 -32.0663Q264.463 -32.132 264.33 -32.1851Q264.197 -32.2383 264.058 -32.2785Q263.92 -32.3188 263.776 -32.3458Q263.633 -32.3728 263.486 -32.3863Q263.339 -32.3999 263.19 -32.3999Z" clip-rule="evenodd"/>
		</clipPath>
	</defs>
	<g clip-path="url(#clip_5)">
		<path fill="rgb(0,123,31)" stroke="none" transform="matrix(0.97 0 0 0.97 1.87219 19.2405)" d="M0 0L3.6 0L3.6 1.20002L0 1.20002L0 0Z"/>
	</g>
	<defs>
		<clipPath id="clip_6">
			<path d="M263.19 -32.3999L-25.8699 -32.3999Q-26.0191 -32.3999 -26.1659 -32.3863Q-26.3127 -32.3728 -26.4561 -32.3458Q-26.5994 -32.3188 -26.7381 -32.2785Q-26.8768 -32.2383 -27.0097 -32.1851Q-27.1425 -32.132 -27.2685 -32.0663Q-27.3945 -32.0007 -27.5126 -31.9232Q-27.6307 -31.8456 -27.7399 -31.7568Q-27.849 -31.6679 -27.9485 -31.5685Q-28.0479 -31.469 -28.1368 -31.3598Q-28.2256 -31.2506 -28.3032 -31.1326Q-28.3807 -31.0145 -28.4464 -30.8885Q-28.512 -30.7625 -28.5651 -30.6296Q-28.6183 -30.4968 -28.6585 -30.3581Q-28.6988 -30.2194 -28.7258 -30.0761Q-28.7528 -29.9327 -28.7663 -29.7859Q-28.7799 -29.6391 -28.7799 -29.4899L-28.7799 136.38Q-28.7799 136.529 -28.7663 136.676Q-28.7528 136.823 -28.7258 136.966Q-28.6988 137.11 -28.6585 137.248Q-28.6183 137.387 -28.5651 137.52Q-28.512 137.653 -28.4464 137.779Q-28.3807 137.905 -28.3032 138.023Q-28.2256 138.141 -28.1368 138.25Q-28.0479 138.359 -27.9485 138.459Q-27.849 138.558 -27.7398 138.647Q-27.6307 138.736 -27.5126 138.813Q-27.3945 138.891 -27.2685 138.957Q-27.1425 139.022 -27.0097 139.075Q-26.8768 139.128 -26.7381 139.169Q-26.5994 139.209 -26.4561 139.236Q-26.3127 139.263 -26.1659 139.277Q-26.0191 139.29 -25.8699 139.29L263.19 139.29Q263.339 139.29 263.486 139.277Q263.633 139.263 263.776 139.236Q263.92 139.209 264.058 139.169Q264.197 139.128 264.33 139.075Q264.463 139.022 264.589 138.957Q264.715 138.891 264.833 138.813Q264.951 138.736 265.06 138.647Q265.169 138.558 265.269 138.459Q265.368 138.359 265.457 138.25Q265.546 138.141 265.623 138.023Q265.701 137.905 265.767 137.779Q265.832 137.653 265.885 137.52Q265.939 137.387 265.979 137.248Q266.019 137.11 266.046 136.966Q266.073 136.823 266.087 136.676Q266.1 136.529 266.1 136.38L266.1 -29.4899Q266.1 -29.6391 266.087 -29.7859Q266.073 -29.9327 266.046 -30.0761Q266.019 -30.2194 265.979 -30.3581Q265.939 -30.4968 265.885 -30.6297Q265.832 -30.7625 265.767 -30.8885Q265.701 -31.0145 265.623 -31.1326Q265.546 -31.2506 265.457 -31.3598Q265.368 -31.469 265.269 -31.5685Q265.169 -31.6679 265.06 -31.7568Q264.951 -31.8456 264.833 -31.9232Q264.715 -32.0007 264.589 -32.0663Q264.463 -32.132 264.33 -32.1851Q264.197 -32.2383 264.058 -32.2785Q263.92 -32.3188 263.776 -32.3458Q263.633 -32.3728 263.486 -32.3863Q263.339 -32.3999 263.19 -32.3999Z" clip-rule="evenodd"/>
		</clipPath>
	</defs>
	<g clip-path="url(#clip_6)">
		<path fill="rgb(0,123,31)" stroke="none" transform="matrix(0.97 0 0 0.97 13.5122 19.2405)" d="M0 0L10.2 0L10.2 1.20002L0 1.20002L0 0Z"/>
	</g>
	<defs>
		<clipPath id="clip_7">
			<path d="M263.19 -32.3999L-25.8699 -32.3999Q-26.0191 -32.3999 -26.1659 -32.3863Q-26.3127 -32.3728 -26.4561 -32.3458Q-26.5994 -32.3188 -26.7381 -32.2785Q-26.8768 -32.2383 -27.0097 -32.1851Q-27.1425 -32.132 -27.2685 -32.0663Q-27.3945 -32.0007 -27.5126 -31.9232Q-27.6307 -31.8456 -27.7399 -31.7568Q-27.849 -31.6679 -27.9485 -31.5685Q-28.0479 -31.469 -28.1368 -31.3598Q-28.2256 -31.2506 -28.3032 -31.1326Q-28.3807 -31.0145 -28.4464 -30.8885Q-28.512 -30.7625 -28.5651 -30.6296Q-28.6183 -30.4968 -28.6585 -30.3581Q-28.6988 -30.2194 -28.7258 -30.0761Q-28.7528 -29.9327 -28.7663 -29.7859Q-28.7799 -29.6391 -28.7799 -29.4899L-28.7799 136.38Q-28.7799 136.529 -28.7663 136.676Q-28.7528 136.823 -28.7258 136.966Q-28.6988 137.11 -28.6585 137.248Q-28.6183 137.387 -28.5651 137.52Q-28.512 137.653 -28.4464 137.779Q-28.3807 137.905 -28.3032 138.023Q-28.2256 138.141 -28.1368 138.25Q-28.0479 138.359 -27.9485 138.459Q-27.849 138.558 -27.7398 138.647Q-27.6307 138.736 -27.5126 138.813Q-27.3945 138.891 -27.2685 138.957Q-27.1425 139.022 -27.0097 139.075Q-26.8768 139.128 -26.7381 139.169Q-26.5994 139.209 -26.4561 139.236Q-26.3127 139.263 -26.1659 139.277Q-26.0191 139.29 -25.8699 139.29L263.19 139.29Q263.339 139.29 263.486 139.277Q263.633 139.263 263.776 139.236Q263.92 139.209 264.058 139.169Q264.197 139.128 264.33 139.075Q264.463 139.022 264.589 138.957Q264.715 138.891 264.833 138.813Q264.951 138.736 265.06 138.647Q265.169 138.558 265.269 138.459Q265.368 138.359 265.457 138.25Q265.546 138.141 265.623 138.023Q265.701 137.905 265.767 137.779Q265.832 137.653 265.885 137.52Q265.939 137.387 265.979 137.248Q266.019 137.11 266.046 136.966Q266.073 136.823 266.087 136.676Q266.1 136.529 266.1 136.38L266.1 -29.4899Q266.1 -29.6391 266.087 -29.7859Q266.073 -29.9327 266.046 -30.0761Q266.019 -30.2194 265.979 -30.3581Q265.939 -30.4968 265.885 -30.6297Q265.832 -30.7625 265.767 -30.8885Q265.701 -31.0145 265.623 -31.1326Q265.546 -31.2506 265.457 -31.3598Q265.368 -31.469 265.269 -31.5685Q265.169 -31.6679 265.06 -31.7568Q264.951 -31.8456 264.833 -31.9232Q264.715 -32.0007 264.589 -32.0663Q264.463 -32.132 264.33 -32.1851Q264.197 -32.2383 264.058 -32.2785Q263.92 -32.3188 263.776 -32.3458Q263.633 -32.3728 263.486 -32.3863Q263.339 -32.3999 263.19 -32.3999Z" clip-rule="evenodd"/>
		</clipPath>
	</defs>
	<g clip-path="url(#clip_7)">
		<path fill="rgb(0,123,31)" stroke="none" transform="matrix(0.97 0 0 0.97 33.3 19.2405)" d="M0 0L2.39997 0L2.39997 1.20002L0 1.20002L0 0Z"/>
	</g>
	<defs>
		<clipPath id="clip_8">
			<path d="M263.19 -32.3999L-25.8699 -32.3999Q-26.0191 -32.3999 -26.1659 -32.3863Q-26.3127 -32.3728 -26.4561 -32.3458Q-26.5994 -32.3188 -26.7381 -32.2785Q-26.8768 -32.2383 -27.0097 -32.1851Q-27.1425 -32.132 -27.2685 -32.0663Q-27.3945 -32.0007 -27.5126 -31.9232Q-27.6307 -31.8456 -27.7399 -31.7568Q-27.849 -31.6679 -27.9485 -31.5685Q-28.0479 -31.469 -28.1368 -31.3598Q-28.2256 -31.2506 -28.3032 -31.1326Q-28.3807 -31.0145 -28.4464 -30.8885Q-28.512 -30.7625 -28.5651 -30.6296Q-28.6183 -30.4968 -28.6585 -30.3581Q-28.6988 -30.2194 -28.7258 -30.0761Q-28.7528 -29.9327 -28.7663 -29.7859Q-28.7799 -29.6391 -28.7799 -29.4899L-28.7799 136.38Q-28.7799 136.529 -28.7663 136.676Q-28.7528 136.823 -28.7258 136.966Q-28.6988 137.11 -28.6585 137.248Q-28.6183 137.387 -28.5651 137.52Q-28.512 137.653 -28.4464 137.779Q-28.3807 137.905 -28.3032 138.023Q-28.2256 138.141 -28.1368 138.25Q-28.0479 138.359 -27.9485 138.459Q-27.849 138.558 -27.7398 138.647Q-27.6307 138.736 -27.5126 138.813Q-27.3945 138.891 -27.2685 138.957Q-27.1425 139.022 -27.0097 139.075Q-26.8768 139.128 -26.7381 139.169Q-26.5994 139.209 -26.4561 139.236Q-26.3127 139.263 -26.1659 139.277Q-26.0191 139.29 -25.8699 139.29L263.19 139.29Q263.339 139.29 263.486 139.277Q263.633 139.263 263.776 139.236Q263.92 139.209 264.058 139.169Q264.197 139.128 264.33 139.075Q264.463 139.022 264.589 138.957Q264.715 138.891 264.833 138.813Q264.951 138.736 265.06 138.647Q265.169 138.558 265.269 138.459Q265.368 138.359 265.457 138.25Q265.546 138.141 265.623 138.023Q265.701 137.905 265.767 137.779Q265.832 137.653 265.885 137.52Q265.939 137.387 265.979 137.248Q266.019 137.11 266.046 136.966Q266.073 136.823 266.087 136.676Q266.1 136.529 266.1 136.38L266.1 -29.4899Q266.1 -29.6391 266.087 -29.7859Q266.073 -29.9327 266.046 -30.0761Q266.019 -30.2194 265.979 -30.3581Q265.939 -30.4968 265.885 -30.6297Q265.832 -30.7625 265.767 -30.8885Q265.701 -31.0145 265.623 -31.1326Q265.546 -31.2506 265.457 -31.3598Q265.368 -31.469 265.269 -31.5685Q265.169 -31.6679 265.06 -31.7568Q264.951 -31.8456 264.833 -31.9232Q264.715 -32.0007 264.589 -32.0663Q264.463 -32.132 264.33 -32.1851Q264.197 -32.2383 264.058 -32.2785Q263.92 -32.3188 263.776 -32.3458Q263.633 -32.3728 263.486 -32.3863Q263.339 -32.3999 263.19 -32.3999Z" clip-rule="evenodd"/>
		</clipPath>
	</defs>
	<g clip-path="url(#clip_8)">
		<path fill="rgb(0,123,31)" stroke="none" transform="matrix(0.97 0 0 0.97 3.61792 5.27246)" d="M0 0L21 0L21 1.20002L0 1.20002L0 0Z"/>
	</g>
	<defs>
		<clipPath id="clip_9">
			<path d="M263.19 -32.3999L-25.8699 -32.3999Q-26.0191 -32.3999 -26.1659 -32.3863Q-26.3127 -32.3728 -26.4561 -32.3458Q-26.5994 -32.3188 -26.7381 -32.2785Q-26.8768 -32.2383 -27.0097 -32.1851Q-27.1425 -32.132 -27.2685 -32.0663Q-27.3945 -32.0007 -27.5126 -31.9232Q-27.6307 -31.8456 -27.7399 -31.7568Q-27.849 -31.6679 -27.9485 -31.5685Q-28.0479 -31.469 -28.1368 -31.3598Q-28.2256 -31.2506 -28.3032 -31.1326Q-28.3807 -31.0145 -28.4464 -30.8885Q-28.512 -30.7625 -28.5651 -30.6296Q-28.6183 -30.4968 -28.6585 -30.3581Q-28.6988 -30.2194 -28.7258 -30.0761Q-28.7528 -29.9327 -28.7663 -29.7859Q-28.7799 -29.6391 -28.7799 -29.4899L-28.7799 136.38Q-28.7799 136.529 -28.7663 136.676Q-28.7528 136.823 -28.7258 136.966Q-28.6988 137.11 -28.6585 137.248Q-28.6183 137.387 -28.5651 137.52Q-28.512 137.653 -28.4464 137.779Q-28.3807 137.905 -28.3032 138.023Q-28.2256 138.141 -28.1368 138.25Q-28.0479 138.359 -27.9485 138.459Q-27.849 138.558 -27.7398 138.647Q-27.6307 138.736 -27.5126 138.813Q-27.3945 138.891 -27.2685 138.957Q-27.1425 139.022 -27.0097 139.075Q-26.8768 139.128 -26.7381 139.169Q-26.5994 139.209 -26.4561 139.236Q-26.3127 139.263 -26.1659 139.277Q-26.0191 139.29 -25.8699 139.29L263.19 139.29Q263.339 139.29 263.486 139.277Q263.633 139.263 263.776 139.236Q263.92 139.209 264.058 139.169Q264.197 139.128 264.33 139.075Q264.463 139.022 264.589 138.957Q264.715 138.891 264.833 138.813Q264.951 138.736 265.06 138.647Q265.169 138.558 265.269 138.459Q265.368 138.359 265.457 138.25Q265.546 138.141 265.623 138.023Q265.701 137.905 265.767 137.779Q265.832 137.653 265.885 137.52Q265.939 137.387 265.979 137.248Q266.019 137.11 266.046 136.966Q266.073 136.823 266.087 136.676Q266.1 136.529 266.1 136.38L266.1 -29.4899Q266.1 -29.6391 266.087 -29.7859Q266.073 -29.9327 266.046 -30.0761Q266.019 -30.2194 265.979 -30.3581Q265.939 -30.4968 265.885 -30.6297Q265.832 -30.7625 265.767 -30.8885Q265.701 -31.0145 265.623 -31.1326Q265.546 -31.2506 265.457 -31.3598Q265.368 -31.469 265.269 -31.5685Q265.169 -31.6679 265.06 -31.7568Q264.951 -31.8456 264.833 -31.9232Q264.715 -32.0007 264.589 -32.0663Q264.463 -32.132 264.33 -32.1851Q264.197 -32.2383 264.058 -32.2785Q263.92 -32.3188 263.776 -32.3458Q263.633 -32.3728 263.486 -32.3863Q263.339 -32.3999 263.19 -32.3999Z" clip-rule="evenodd"/>
		</clipPath>
	</defs>
	<g clip-path="url(#clip_9)">
		<path fill="rgb(0,123,31)" stroke="none" transform="matrix(0.97 0 0 0.97 8.85608 21.5684)" d="M0 0L1.20002 0L1.20002 1.20002L0 1.20002L0 0Z"/>
	</g>
	<defs>
		<clipPath id="clip_10">
			<path d="M263.19 -32.3999L-25.8699 -32.3999Q-26.0191 -32.3999 -26.1659 -32.3863Q-26.3127 -32.3728 -26.4561 -32.3458Q-26.5994 -32.3188 -26.7381 -32.2785Q-26.8768 -32.2383 -27.0097 -32.1851Q-27.1425 -32.132 -27.2685 -32.0663Q-27.3945 -32.0007 -27.5126 -31.9232Q-27.6307 -31.8456 -27.7399 -31.7568Q-27.849 -31.6679 -27.9485 -31.5685Q-28.0479 -31.469 -28.1368 -31.3598Q-28.2256 -31.2506 -28.3032 -31.1326Q-28.3807 -31.0145 -28.4464 -30.8885Q-28.512 -30.7625 -28.5651 -30.6296Q-28.6183 -30.4968 -28.6585 -30.3581Q-28.6988 -30.2194 -28.7258 -30.0761Q-28.7528 -29.9327 -28.7663 -29.7859Q-28.7799 -29.6391 -28.7799 -29.4899L-28.7799 136.38Q-28.7799 136.529 -28.7663 136.676Q-28.7528 136.823 -28.7258 136.966Q-28.6988 137.11 -28.6585 137.248Q-28.6183 137.387 -28.5651 137.52Q-28.512 137.653 -28.4464 137.779Q-28.3807 137.905 -28.3032 138.023Q-28.2256 138.141 -28.1368 138.25Q-28.0479 138.359 -27.9485 138.459Q-27.849 138.558 -27.7398 138.647Q-27.6307 138.736 -27.5126 138.813Q-27.3945 138.891 -27.2685 138.957Q-27.1425 139.022 -27.0097 139.075Q-26.8768 139.128 -26.7381 139.169Q-26.5994 139.209 -26.4561 139.236Q-26.3127 139.263 -26.1659 139.277Q-26.0191 139.29 -25.8699 139.29L263.19 139.29Q263.339 139.29 263.486 139.277Q263.633 139.263 263.776 139.236Q263.92 139.209 264.058 139.169Q264.197 139.128 264.33 139.075Q264.463 139.022 264.589 138.957Q264.715 138.891 264.833 138.813Q264.951 138.736 265.06 138.647Q265.169 138.558 265.269 138.459Q265.368 138.359 265.457 138.25Q265.546 138.141 265.623 138.023Q265.701 137.905 265.767 137.779Q265.832 137.653 265.885 137.52Q265.939 137.387 265.979 137.248Q266.019 137.11 266.046 136.966Q266.073 136.823 266.087 136.676Q266.1 136.529 266.1 136.38L266.1 -29.4899Q266.1 -29.6391 266.087 -29.7859Q266.073 -29.9327 266.046 -30.0761Q266.019 -30.2194 265.979 -30.3581Q265.939 -30.4968 265.885 -30.6297Q265.832 -30.7625 265.767 -30.8885Q265.701 -31.0145 265.623 -31.1326Q265.546 -31.2506 265.457 -31.3598Q265.368 -31.469 265.269 -31.5685Q265.169 -31.6679 265.06 -31.7568Q264.951 -31.8456 264.833 -31.9232Q264.715 -32.0007 264.589 -32.0663Q264.463 -32.132 264.33 -32.1851Q264.197 -32.2383 264.058 -32.2785Q263.92 -32.3188 263.776 -32.3458Q263.633 -32.3728 263.486 -32.3863Q263.339 -32.3999 263.19 -32.3999Z" clip-rule="evenodd"/>
		</clipPath>
	</defs>
	<g clip-path="url(#clip_10)">
		<path fill="rgb(0,123,31)" stroke="none" transform="matrix(0.97 0 0 0.97 28.644 21.5684)" d="M0 0L1.20002 0L1.20002 1.20002L0 1.20002L0 0Z"/>
	</g>
	<defs>
		<clipPath id="clip_11">
			<path d="M263.19 -32.3999L-25.8699 -32.3999Q-26.0191 -32.3999 -26.1659 -32.3863Q-26.3127 -32.3728 -26.4561 -32.3458Q-26.5994 -32.3188 -26.7381 -32.2785Q-26.8768 -32.2383 -27.0097 -32.1851Q-27.1425 -32.132 -27.2685 -32.0663Q-27.3945 -32.0007 -27.5126 -31.9232Q-27.6307 -31.8456 -27.7399 -31.7568Q-27.849 -31.6679 -27.9485 -31.5685Q-28.0479 -31.469 -28.1368 -31.3598Q-28.2256 -31.2506 -28.3032 -31.1326Q-28.3807 -31.0145 -28.4464 -30.8885Q-28.512 -30.7625 -28.5651 -30.6296Q-28.6183 -30.4968 -28.6585 -30.3581Q-28.6988 -30.2194 -28.7258 -30.0761Q-28.7528 -29.9327 -28.7663 -29.7859Q-28.7799 -29.6391 -28.7799 -29.4899L-28.7799 136.38Q-28.7799 136.529 -28.7663 136.676Q-28.7528 136.823 -28.7258 136.966Q-28.6988 137.11 -28.6585 137.248Q-28.6183 137.387 -28.5651 137.52Q-28.512 137.653 -28.4464 137.779Q-28.3807 137.905 -28.3032 138.023Q-28.2256 138.141 -28.1368 138.25Q-28.0479 138.359 -27.9485 138.459Q-27.849 138.558 -27.7398 138.647Q-27.6307 138.736 -27.5126 138.813Q-27.3945 138.891 -27.2685 138.957Q-27.1425 139.022 -27.0097 139.075Q-26.8768 139.128 -26.7381 139.169Q-26.5994 139.209 -26.4561 139.236Q-26.3127 139.263 -26.1659 139.277Q-26.0191 139.29 -25.8699 139.29L263.19 139.29Q263.339 139.29 263.486 139.277Q263.633 139.263 263.776 139.236Q263.92 139.209 264.058 139.169Q264.197 139.128 264.33 139.075Q264.463 139.022 264.589 138.957Q264.715 138.891 264.833 138.813Q264.951 138.736 265.06 138.647Q265.169 138.558 265.269 138.459Q265.368 138.359 265.457 138.25Q265.546 138.141 265.623 138.023Q265.701 137.905 265.767 137.779Q265.832 137.653 265.885 137.52Q265.939 137.387 265.979 137.248Q266.019 137.11 266.046 136.966Q266.073 136.823 266.087 136.676Q266.1 136.529 266.1 136.38L266.1 -29.4899Q266.1 -29.6391 266.087 -29.7859Q266.073 -29.9327 266.046 -30.0761Q266.019 -30.2194 265.979 -30.3581Q265.939 -30.4968 265.885 -30.6297Q265.832 -30.7625 265.767 -30.8885Q265.701 -31.0145 265.623 -31.1326Q265.546 -31.2506 265.457 -31.3598Q265.368 -31.469 265.269 -31.5685Q265.169 -31.6679 265.06 -31.7568Q264.951 -31.8456 264.833 -31.9232Q264.715 -32.0007 264.589 -32.0663Q264.463 -32.132 264.33 -32.1851Q264.197 -32.2383 264.058 -32.2785Q263.92 -32.3188 263.776 -32.3458Q263.633 -32.3728 263.486 -32.3863Q263.339 -32.3999 263.19 -32.3999Z" clip-rule="evenodd"/>
		</clipPath>
	</defs>
	<g clip-path="url(#clip_11)">
		<path fill="rgb(0,123,31)" stroke="none" transform="matrix(0.97 0 0 0.97 3.61792 0.616455)" d="M0 0L8.40002 0L8.40002 1.20002L0 1.20002L0 0Z"/>
	</g>
	<defs>
		<clipPath id="clip_12">
			<path d="M263.19 -32.3999L-25.8699 -32.3999Q-26.0191 -32.3999 -26.1659 -32.3863Q-26.3127 -32.3728 -26.4561 -32.3458Q-26.5994 -32.3188 -26.7381 -32.2785Q-26.8768 -32.2383 -27.0097 -32.1851Q-27.1425 -32.132 -27.2685 -32.0663Q-27.3945 -32.0007 -27.5126 -31.9232Q-27.6307 -31.8456 -27.7399 -31.7568Q-27.849 -31.6679 -27.9485 -31.5685Q-28.0479 -31.469 -28.1368 -31.3598Q-28.2256 -31.2506 -28.3032 -31.1326Q-28.3807 -31.0145 -28.4464 -30.8885Q-28.512 -30.7625 -28.5651 -30.6296Q-28.6183 -30.4968 -28.6585 -30.3581Q-28.6988 -30.2194 -28.7258 -30.0761Q-28.7528 -29.9327 -28.7663 -29.7859Q-28.7799 -29.6391 -28.7799 -29.4899L-28.7799 136.38Q-28.7799 136.529 -28.7663 136.676Q-28.7528 136.823 -28.7258 136.966Q-28.6988 137.11 -28.6585 137.248Q-28.6183 137.387 -28.5651 137.52Q-28.512 137.653 -28.4464 137.779Q-28.3807 137.905 -28.3032 138.023Q-28.2256 138.141 -28.1368 138.25Q-28.0479 138.359 -27.9485 138.459Q-27.849 138.558 -27.7398 138.647Q-27.6307 138.736 -27.5126 138.813Q-27.3945 138.891 -27.2685 138.957Q-27.1425 139.022 -27.0097 139.075Q-26.8768 139.128 -26.7381 139.169Q-26.5994 139.209 -26.4561 139.236Q-26.3127 139.263 -26.1659 139.277Q-26.0191 139.29 -25.8699 139.29L263.19 139.29Q263.339 139.29 263.486 139.277Q263.633 139.263 263.776 139.236Q263.92 139.209 264.058 139.169Q264.197 139.128 264.33 139.075Q264.463 139.022 264.589 138.957Q264.715 138.891 264.833 138.813Q264.951 138.736 265.06 138.647Q265.169 138.558 265.269 138.459Q265.368 138.359 265.457 138.25Q265.546 138.141 265.623 138.023Q265.701 137.905 265.767 137.779Q265.832 137.653 265.885 137.52Q265.939 137.387 265.979 137.248Q266.019 137.11 266.046 136.966Q266.073 136.823 266.087 136.676Q266.1 136.529 266.1 136.38L266.1 -29.4899Q266.1 -29.6391 266.087 -29.7859Q266.073 -29.9327 266.046 -30.0761Q266.019 -30.2194 265.979 -30.3581Q265.939 -30.4968 265.885 -30.6297Q265.832 -30.7625 265.767 -30.8885Q265.701 -31.0145 265.623 -31.1326Q265.546 -31.2506 265.457 -31.3598Q265.368 -31.469 265.269 -31.5685Q265.169 -31.6679 265.06 -31.7568Q264.951 -31.8456 264.833 -31.9232Q264.715 -32.0007 264.589 -32.0663Q264.463 -32.132 264.33 -32.1851Q264.197 -32.2383 264.058 -32.2785Q263.92 -32.3188 263.776 -32.3458Q263.633 -32.3728 263.486 -32.3863Q263.339 -32.3999 263.19 -32.3999Z" clip-rule="evenodd"/>
		</clipPath>
	</defs>
	<g clip-path="url(#clip_12)">
		<path fill="rgb(0,123,31)" stroke="none" transform="matrix(0.97 0 0 0.97 1.29004 0.616455)" d="M0 0L1.20002 0L1.20002 1.20002L0 1.20002L0 0Z"/>
	</g>

</svg>