<?xml version="1.0" encoding="utf-8" ?>
<svg xmlns="http://www.w3.org/2000/svg" xmlns:xlink="http://www.w3.org/1999/xlink" width="29" height="27">
	<defs>
		<clipPath id="clip_0">
			<rect x="-1114" y="-395" width="1366" height="6477" clip-rule="evenodd"/>
		</clipPath>
	</defs>
	<g clip-path="url(#clip_0)">
		<path fill="rgb(0,189,45)" stroke="none" transform="translate(19 19)" d="M0.5 0C0.223828 0 0 0.224023 0 0.5C0 0.775977 0.223828 1 0.5 1C0.775977 1 1 0.775977 1 0.5C1 0.224023 0.775977 0 0.5 0Z"/>
	</g>
	<defs>
		<clipPath id="clip_1">
			<rect x="-1114" y="-395" width="1366" height="6477" clip-rule="evenodd"/>
		</clipPath>
	</defs>
	<g clip-path="url(#clip_1)">
		<path fill="rgb(0,189,45)" stroke="none" transform="translate(14 9)" d="M1 0.5C1 0.223828 0.775977 0 0.5 0C0.224023 0 0 0.223828 0 0.5C0 0.775977 0.224023 1 0.5 1C0.775977 1 1 0.775977 1 0.5Z"/>
	</g>
	<defs>
		<clipPath id="clip_2">
			<rect x="-1114" y="-395" width="1366" height="6477" clip-rule="evenodd"/>
		</clipPath>
	</defs>
	<g clip-path="url(#clip_2)">
		<path fill="rgb(0,189,45)" stroke="none" transform="translate(9 19)" d="M0.5 1C0.775977 1 1 0.775977 1 0.5C1 0.224023 0.775977 0 0.5 0C0.224023 0 0 0.224023 0 0.5C0 0.775977 0.224023 1 0.5 1Z"/>
	</g>
	<defs>
		<clipPath id="clip_3">
			<rect x="-1114" y="-395" width="1366" height="6477" clip-rule="evenodd"/>
		</clipPath>
	</defs>
	<g clip-path="url(#clip_3)">
		<path fill="rgb(0,189,45)" stroke="none" d="M25.6013 21.6396L28.6634 22.9741C28.9493 23.0988 29.0781 23.427 28.9511 23.7074C28.8254 23.9849 28.4924 24.1154 28.2035 23.9895L25.0314 22.6071L14.7239 26.9556C14.5792 27.0165 14.4126 27.0131 14.2763 26.9556L3.96863 22.6071L0.796536 23.9895C0.508687 24.1149 0.175039 23.986 0.0489252 23.7074C-0.0780735 23.427 0.0506952 23.0988 0.336553 22.9741L3.39868 21.6396L3.39868 9.44484C3.39868 9.21566 3.54404 9.01448 3.74649 8.93201L13.9336 4.63431L13.9336 0.555579C13.9336 0.248708 14.1872 0 14.5 0C14.8126 0 15.0664 0.248708 15.0664 0.555579L15.0664 4.63431L25.2535 8.93201C25.467 9.02099 25.6013 9.22478 25.6013 9.44484L25.6013 21.6396ZM13.9336 7.22252L13.9336 5.84399L5.39858 9.44484L14.5 13.2846L23.6014 9.44484L15.0664 5.84399L15.0664 7.22252C15.0664 7.52918 14.8126 7.7781 14.5 7.7781C14.1871 7.7781 13.9336 7.52918 13.9336 7.22252ZM7.50999 20.4555C7.38277 20.1751 7.04801 20.049 6.76237 20.1734L4.53127 21.1459L4.53127 10.2884L13.9336 14.2552L13.9336 25.6015L5.37889 21.9925L7.22236 21.189C7.50822 21.0643 7.63698 20.7359 7.50999 20.4555ZM15.0664 14.2552L15.0664 25.6015L23.6211 21.9925L21.7776 21.189C21.4918 21.0643 21.363 20.7361 21.49 20.4557C21.617 20.1751 21.9515 20.049 22.2376 20.1736L24.4685 21.1459L24.4685 10.2884L15.0664 14.2552Z" fill-rule="evenodd"/>
	</g>

</svg>