<?xml version="1.0" encoding="utf-8" ?>
<svg xmlns="http://www.w3.org/2000/svg" xmlns:xlink="http://www.w3.org/1999/xlink" width="19" height="17">
	<path fill="rgb(255,255,255)" stroke="none" transform="translate(0 0.0151062)" d="M12.1346 10.3585C14.6554 10.5007 17.5103 11.2504 18.1621 12.4276C18.3676 12.7976 18.3666 13.2027 18.1612 13.5668C17.9184 13.9944 17.5611 14.2825 17.1285 14.4081C17.1979 14.3108 17.2587 14.1883 17.3121 14.0396C17.353 13.9246 17.353 13.861 17.3111 13.7415C17.0215 12.9179 15.4066 11.8675 13.2012 11.4315C14.1351 12.8174 14.9682 13.7902 15.6494 14.2962C14.5589 13.909 13.2353 12.9104 11.6988 11.3132C10.8254 11.2845 9.97541 11.3312 9.22421 11.4471C8.95158 11.489 8.50807 11.5469 8.23398 11.5747C7.53049 11.6458 6.80266 11.7801 6.06948 11.9729C4.42298 14.8691 2.91912 16.3384 1.59978 16.3384C1.12316 16.3384 0.699609 16.1486 0.340806 15.7737C0.0326348 15.4514 -0.0710625 15.0351 0.0482138 14.6009C0.377806 13.4013 2.62799 11.9549 5.41662 11.1438C5.57046 10.8644 5.72528 10.5713 5.88058 10.266C7.37081 7.33768 7.28366 3.65132 7.09915 1.71514C7.03342 1.33297 6.98717 0.998026 6.9565 0.747789C6.92924 0.529684 6.90636 0.340789 7.0602 0.165039C7.15514 0.0593947 7.28853 0 7.42679 0C7.85862 0 7.91996 0.415276 7.94917 0.614395C7.9852 0.864632 8.02804 1.20055 8.06699 1.60463C8.39464 3.51159 9.27192 7.1113 11.4384 9.58836C11.6755 9.85807 11.9067 10.1146 12.1346 10.3585ZM15.6494 14.2962C16.0076 14.5623 16.3238 14.6992 16.5906 14.6992L16.5911 14.6992C16.8118 14.6992 16.9878 14.6054 17.1285 14.4081C16.9661 14.4553 16.7931 14.4795 16.6116 14.4797C16.3145 14.4797 15.9935 14.4184 15.6494 14.2962ZM9.07475 10.4861C8.81575 10.526 8.39512 10.5805 8.13515 10.6078C7.66242 10.6545 7.17656 10.729 6.68631 10.8293C6.70675 10.7894 6.7272 10.749 6.74765 10.7086C7.4784 9.27288 7.93116 7.55141 8.09863 5.57824C8.76902 7.45453 9.64338 9.01534 10.7052 10.2295C10.7363 10.2656 10.769 10.3021 10.8001 10.3391C10.1872 10.3537 9.60882 10.4038 9.07475 10.4861ZM1.04381 15.3889C1.21663 15.5889 1.39287 15.6817 1.59929 15.6817C2.36363 15.6817 3.49165 14.4735 4.67029 12.414C2.58417 13.2653 1.15675 14.4379 0.986845 15.1221C0.957635 15.2374 0.973214 15.3075 1.04381 15.3889Z" fill-rule="evenodd"/>

</svg>