<?xml version="1.0" encoding="utf-8"?>
<!-- Generator: Adobe Illustrator 22.1.0, SVG Export Plug-In . SVG Version: 6.00 Build 0)  -->
<svg version="1.1" id="Слой_1" xmlns="http://www.w3.org/2000/svg" xmlns:xlink="http://www.w3.org/1999/xlink" x="0px" y="0px"
	 viewBox="0 0 1366.1 482.1" style="enable-background:new 0 0 1366.1 482.1;" xml:space="preserve">
<style type="text/css">
	.st0{fill:#B7CAE1;}
	.st1{fill:#C1D3E9;}
	.st2{fill:#59B13B;}
	.st3{fill:#5CA02B;}
	.st4{fill:#51976F;}
	.st5{fill:#4A8864;}
	.st6{fill:#78B563;}
	.st7{fill:#6DA257;}
	.st8{fill:#ACC807;}
	.st9{fill:#9BB812;}
	.st10{fill:#6D4328;}
	.st11{fill:#643B23;}
	.st12{fill:#68B330;}
	.st13{fill:#96BD19;}
	.st14{fill:#88AA19;}
	.st15{fill:#1A7F44;}
	.st16{fill:#17723E;}
	.st17{fill:#9EC650;}
	.st18{fill:#90B346;}
	.st19{fill:#77AB8B;}
	.st20{fill:#FFFFFF;}
	.st21{fill:#89AB19;}
	.st22{fill:#70A159;}
</style>
<path fill="#B7CAE1" d="M1365.9,147c-61.7-19.3-135-33.6-203.3-26.4c-134.4,21.3-251.1,161.4-380.3,185.2
	c-129.1,23.9-259.1-87.5-411.2-25.1C271,321.7,141.1,399.2,64,447.3v6.7h1302.1L1365.9,147z"/>
<path fill="#C1D3E9" d="M1365.8,209.6c-62.9,42.1-125.4,83.6-191.8,98.7c-137.5,31.3-286-69.8-445.3,0.6
	c-94.1,41.6-211.9,113.3-292.6,165v8.2l929.9-0.2L1365.8,209.6z"/>
<g>
	<g>
		<polygon fill="#59B13B" points="388.7,290.4 345,348.3 388.9,348.3 432.9,348.3 		"/>
	</g>
	<g>
		<polygon fill="#5CA02B" points="388.7,290.4 388.9,348.3 432.9,348.3 		"/>
	</g>
	<g>
		<polygon fill="#51976F" points="388.5,256.8 348.6,305.7 388.8,305.7 428.9,305.7 		"/>
	</g>
	<g>
		<polygon fill="#4A8864" points="388.5,256.8 388.8,305.7 428.9,305.7 		"/>
	</g>
	<g>
		<polygon class="st6" fill="#78B563" points="388.4,228 351.7,269.8 388.6,269.8 425.5,269.8 		"/>
	</g>
	<g>
		<polygon class="st7" fill="#6DA257" points="388.4,228 388.6,269.8 425.5,269.8 		"/>
	</g>
	<g>
		<polygon class="st8" fill="#ACC807" points="388.3,203.1 354.2,239.2 388.5,239.2 422.7,239.2 		"/>
	</g>
	<g>
		<polygon class="st9" fill="#9BB812" points="388.3,203.1 388.5,239.2 422.7,239.2 		"/>
	</g>
</g>
<g>
	<polygon class="st10" fill="#6D4328" points="174.8,362.6 159.3,362.6 164.7,188.5 169.5,188.5 	"/>
	<polygon class="st11" fill="#643B23" points="175,362.6 166.2,362.6 166.2,188.5 168.9,188.5 	"/>
	<polygon class="st12" fill="#68B330" points="166,267.6 122.5,325.6 166.2,325.6 210,325.6 	"/>
	<polygon class="st13" fill="#96BD19" fill="#96BD19" points="165.8,234.1 126.1,283 166,283 206,283 	"/>
	<polygon class="st6" fill="#78B563" points="165.7,205.3 129.1,247.1 165.9,247.1 202.7,247.1 	"/>
	<polygon class="st8" fill="#ACC807" points="165.6,180.3 131.7,216.5 165.8,216.5 199.8,216.5 	"/>
	<polygon fill="#5CA02B" points="166,267.6 166.2,325.6 210,325.6 	"/>
	<polygon class="st14" fill="#88AA19" points="165.8,234.1 166,283 206,283 	"/>
	<polygon class="st7" fill="#6DA257" points="165.7,205.3 165.9,247.1 202.7,247.1 	"/>
	<polygon class="st9" fill="#9BB812" points="165.6,180.3 165.8,216.5 199.8,216.5 	"/>
</g>
<g>
	<polygon class="st10" fill="#6D4328" points="300.8,354.1 271.2,354.1 281.4,73.7 290.6,73.7 	"/>
	<polygon class="st11" fill="#643B23" points="300.8,354.1 286,354.1 286.1,73.7 290.6,73.7 	"/>
	<polygon fill="#51976F" points="285.4,81.6 191.1,181.7 286,181.7 380.9,181.7 	"/>
	<polygon fill="#4A8864" points="285.4,81.6 286,181.7 380.9,181.7 	"/>
	<polygon class="st12" fill="#68B330" points="286.7,281.8 380.9,181.7 286,181.7 191.1,181.7 	"/>
	<polygon class="st6" fill="#78B563" points="285.6,42.7 220.1,112.2 286,167.9 351.9,112.2 	"/>
	<polygon class="st15" fill="#1A7F44" points="286.5,181.6 351.9,112.2 286,112.2 220.1,112.2 	"/>
	<polygon class="st7" fill="#6DA257" points="285.6,42.7 286,112.2 351.9,112.2 	"/>
	<polygon class="st16" fill="#17723E" points="286.5,181.6 351.9,112.2 286,112.2 	"/>
	<polygon fill="#5CA02B" points="286.7,281.8 380.9,181.7 286,181.7 	"/>
	<polygon class="st8" fill="#ACC807" points="285.7,9.7 237.4,60.9 286,98.5 334.6,60.9 	"/>
	<polygon class="st17" fill="#9EC650" points="286.3,112.2 334.6,61 286,61 237.4,61 	"/>
	<polygon class="st9" fill="#9BB812" points="285.7,9.7 286,60.9 334.6,60.9 	"/>
	<polygon class="st18" points="286.3,112.2 334.6,61 286,61 	"/>
</g>
<g>
	<path class="st19" d="M369.5,305.1c-53,0-96,44.5-96,99.4h191.9C465.4,349.6,422.5,305.1,369.5,305.1"/>
</g>
<g>
	<path class="st19" d="M215.7,314c-22.8,0-41.4,19.2-41.4,42.8H257C257,333.2,238.5,314,215.7,314"/>
</g>
<g>
	<path class="st16" fill="#17723E" d="M255.1,330.4c-8.2,0-14.9,6.9-14.9,15.4H270C270,337.3,263.3,330.4,255.1,330.4"/>
</g>
<g>
	<path class="st20" d="M144.2,332.1c-24.4,0-44.2,17.4-44.2,38.9h88.3C188.4,349.5,168.6,332.1,144.2,332.1"/>
</g>
<g>
	<path class="st20" d="M185.9,335.4c-8.5,0-15.3,7.6-15.3,16.9h30.6C201.2,343,194.4,335.4,185.9,335.4"/>
</g>
<path class="st20" d="M1366.1,374c0,0-158.8,105.2-433.7,79.8C657.4,428.4,430.3,272.3,0,374v108.1l1366.1-0.2V374z"/>
<g>
	<polygon class="st10" fill="#6D4328" points="1045.4,481.9 1055,172.2 1063.6,172.2 1073.1,481.9 	"/>
	<polygon class="st11" fill="#643B23" points="1059.3,172.2 1063.6,172.2 1073.1,481.9 1059.3,481.9 	"/>
	<polygon class="st12" fill="#68B330" points="1059.9,367.4 1148.4,273.5 1059.3,273.5 970.2,273.5 	"/>
	<polygon fill="#5CA02B" points="1059.9,367.4 1148.4,273.5 1059.3,273.5 	"/>
	<polygon fill="#51976F" points="1058.7,179.6 970.2,273.5 1059.3,273.5 1148.4,273.5 	"/>
	<polygon fill="#4A8864" points="1058.7,179.6 1059.3,273.5 1148.4,273.5 	"/>
	<polygon class="st6" fill="#78B563" points="1058.9,143.1 997.5,208.3 1059.3,258.2 1121.1,208.3 	"/>
	<polygon class="st7" fill="#6DA257" points="1058.9,143.1 1059.3,208.3 1121.1,208.3 	"/>
	<polygon class="st8" fill="#ACC807" points="1059,112.2 1013.7,160.2 1059.3,198.8 1104.9,160.2 	"/>
	<polygon class="st9" fill="#9BB812" points="1059,112.2 1059.3,160.2 1104.9,160.2 	"/>
	<polygon class="st12" fill="#68B330" points="1059.7,273.5 1121.1,208.3 1059.3,208.3 997.5,208.3 	"/>
	<polygon fill="#5CA02B" points="1059.7,273.5 1121.1,208.3 1059.3,208.3 	"/>
	<polygon class="st17" fill="#9EC650" points="1059.6,208.3 1104.9,160.2 1059.3,160.2 1013.7,160.2 	"/>
	<polygon class="st18" points="1059.6,208.3 1104.9,160.2 1059.3,160.2 	"/>
</g>
<g>
	<polygon class="st10" fill="#6D4328" points="1174.5,481.9 1180.2,273.5 1183,273.5 1185.6,273.5 1191.4,481.9 1183,481.9 	"/>
	<polygon class="st11" fill="#643B23" points="1183,273.5 1185.6,273.5 1191.4,481.9 1183,481.9 	"/>
	<polygon fill="#51976F" points="1182.5,278.1 1127.7,336.4 1182.9,336.4 1238.2,336.4 	"/>
	<polygon class="st12" fill="#68B330" points="1183.3,394.7 1238.2,336.4 1182.9,336.4 1127.7,336.4 	"/>
	<polygon fill="#4A8864" points="1182.5,278.1 1182.9,336.4 1238.2,336.4 	"/>
	<polygon fill="#5CA02B" points="1183.3,394.7 1238.2,336.4 1182.9,336.4 	"/>
	<polygon class="st15" fill="#1A7F44" points="1183.2,336.4 1221.3,295.9 1182.9,295.9 1144.6,295.9 	"/>
	<polygon class="st16" fill="#17723E" points="1183.2,336.4 1221.3,295.9 1182.9,295.9 	"/>
	<polygon class="st13" fill="#96BD19" fill="#96BD19" points="1182.6,255.5 1144.6,295.9 1182.9,295.9 1221.3,295.9 	"/>
	<polygon class="st21" points="1182.6,255.5 1182.9,295.9 1221.3,295.9 	"/>
	<polygon class="st6" fill="#78B563" points="1183.1,295.9 1211.2,266.1 1182.9,266.1 1154.6,266.1 	"/>
	<polygon class="st22" points="1183.1,295.9 1211.2,266.1 1182.9,266.1 	"/>
	<polygon class="st8" fill="#ACC807" points="1182.7,236.3 1154.6,266.1 1182.9,266.1 1211.2,266.1 	"/>
	<polygon class="st9" fill="#9BB812" points="1182.7,236.3 1182.9,266.1 1211.2,266.1 	"/>
</g>
</svg>
