<?xml version="1.0" encoding="utf-8" ?>
<svg xmlns="http://www.w3.org/2000/svg" xmlns:xlink="http://www.w3.org/1999/xlink" width="61" height="38">
	<rect fill="rgb(255,255,255)" stroke="none" transform="matrix(0.9998 0 0 0.9998 0.80957 0.986603)" width="60" height="38"/>
	<path fill="rgb(0,189,45)" stroke="none" transform="matrix(0.9998 0 0 0.9998 46.8965 28.0135)" d="M0 4.83871C0 2.16655 2.16655 0 4.83871 0C7.51087 0 9.67742 2.16655 9.67742 4.83871C9.67742 7.51087 7.51087 9.67742 4.83871 9.67742C2.16655 9.67742 0 7.51087 0 4.83871ZM3.22581 4.83871C3.22581 5.72943 3.94799 6.45161 4.83871 6.45161C5.72943 6.45161 6.45161 5.72943 6.45161 4.83871C6.45161 3.94799 5.72943 3.22581 4.83871 3.22581C3.94799 3.22581 3.22581 3.94799 3.22581 4.83871Z" fill-rule="evenodd"/>
	<path fill="rgb(0,189,45)" stroke="none" transform="matrix(0.9998 0 0 0.9998 13.0322 28.0135)" d="M0 4.83871C0 2.16655 2.16655 0 4.83871 0C7.51087 0 9.67742 2.16655 9.67742 4.83871C9.67742 7.51087 7.51087 9.67742 4.83871 9.67742C2.16655 9.67742 0 7.51087 0 4.83871ZM3.22581 4.83871C3.22581 5.72943 3.94799 6.45161 4.83871 6.45161C5.72943 6.45161 6.45161 5.72943 6.45161 4.83871C6.45161 3.94799 5.72943 3.22581 4.83871 3.22581C3.94799 3.22581 3.22581 3.94799 3.22581 4.83871Z" fill-rule="evenodd"/>
	<path fill="rgb(0,189,45)" stroke="none" transform="matrix(0.9998 0 0 0.9998 16.2578 31.2386)" d="M3.22581 1.6129C3.22581 2.50362 2.50362 3.22581 1.6129 3.22581C0.722184 3.22581 0 2.50362 0 1.6129C0 0.722184 0.722184 0 1.6129 0C2.50362 0 3.22581 0.722184 3.22581 1.6129Z"/>
	<path fill="rgb(0,189,45)" stroke="none" transform="matrix(0.9998 0 0 0.9998 50.1221 31.2386)" d="M3.22581 1.6129C3.22581 2.50362 2.50362 3.22581 1.6129 3.22581C0.722184 3.22581 0 2.50362 0 1.6129C0 0.722184 0.722184 0 1.6129 0C2.50362 0 3.22581 0.722184 3.22581 1.6129Z"/>
	<path fill="rgb(0,189,45)" stroke="none" transform="matrix(0.9998 0 0 0.9998 10.6143 3.63768)" d="M36.2903 5.69946L33.0645 5.02581L33.0645 25.1871L33.0645 0L0 0L0 29.2194L2.41936 29.2194C2.41936 26.5472 4.58591 24.3806 7.25807 24.3806C9.93022 24.3806 12.0968 26.5472 12.0968 29.2194L36.2903 29.2194C36.2903 26.5472 38.4569 24.3806 41.129 24.3806C43.8012 24.3806 45.9677 26.5472 45.9677 29.2194L48.3871 29.2194L48.3871 17.1226L36.2903 17.1226L36.2903 5.69946Z"/>
	<path fill="rgb(0,123,31)" stroke="none" transform="matrix(0.9998 0 0 0.9998 1.36523 1.94412)" d="M58.2827 15.9132L51.0246 6.23576C50.8726 6.03297 50.6336 5.91326 50.3796 5.91326L43.1216 5.91326L43.1216 0.806452C43.1216 0.361092 42.7605 0 42.3151 0L0.806452 0C0.361092 0 0 0.361092 0 0.806452L0 30.9133C0 31.3586 0.361092 31.7197 0.806452 31.7197L10.9281 31.7197C11.3266 34.4954 13.7046 36.5561 16.5087 36.5561C19.3127 36.5561 21.6907 34.4954 22.0892 31.7197L44.799 31.7197C45.1975 34.4954 47.5756 36.5561 50.3796 36.5561C53.1837 36.5561 55.5617 34.4954 55.9602 31.7197L57.6377 31.7197C58.0831 31.7197 58.4441 31.3586 58.4441 30.9133L58.4441 16.3971C58.4441 16.2227 58.3874 16.053 58.2827 15.9132ZM41.5087 26.0745L41.5087 1.73516L10.057 1.73516L10.057 26.0745L13.2829 26.0745C13.3683 26.0777 13.453 26.095 13.5329 26.1253C15.3521 24.9822 17.6652 24.9822 19.4844 26.1253C19.5644 26.095 19.649 26.0777 19.7345 26.0745L41.5087 26.0745ZM44.7345 18.8165L44.7345 7.52616L43.1216 7.52616L43.1216 26.0746L47.1538 26.0746C47.2393 26.0777 47.3239 26.095 47.4039 26.1253C49.2231 24.9822 51.5361 24.9822 53.3554 26.1253C53.4353 26.095 53.52 26.0777 53.6054 26.0746L56.8312 26.0746L56.8312 19.6229L45.5409 19.6229C45.0956 19.6229 44.7345 19.2618 44.7345 18.8165ZM56.8312 16.6657L56.8312 18.01L46.3474 18.01L46.3474 7.52616L49.9764 7.52616L56.8312 16.6657ZM12.4764 30.9133C12.4764 33.1401 14.2819 34.9455 16.5087 34.9455C18.7347 34.9428 20.5382 33.1393 20.5409 30.9133C20.5409 28.6865 18.7355 26.881 16.5087 26.881C14.2819 26.881 12.4764 28.6865 12.4764 30.9133ZM50.3796 34.9455C48.1528 34.9455 46.3474 33.1401 46.3474 30.9133C46.3474 28.6865 48.1528 26.881 50.3796 26.881C52.6064 26.881 54.4119 28.6865 54.4119 30.9133C54.4091 33.1393 52.6056 34.9428 50.3796 34.9455ZM10.057 27.6875L11.883 27.6875C11.379 28.4077 11.0521 29.2366 10.9281 30.1068L10.057 30.1068L10.057 27.6875ZM44.799 30.1068L22.0892 30.1068C21.9652 29.2366 21.6384 28.4077 21.1343 27.6875L45.754 27.6875C45.2499 28.4077 44.9231 29.2366 44.799 30.1068ZM55.0053 27.6875C55.5093 28.4077 55.8362 29.2366 55.9602 30.1068L56.8312 30.1068L56.8312 27.6875L55.0053 27.6875Z" fill-rule="evenodd"/>
	<path fill="rgb(0,123,31)" stroke="none" transform="matrix(0.9998 0 0 0.9998 15.4521 30.4323)" d="M0 2.41935C0 1.08328 1.08328 0 2.41935 0C3.75543 0 4.83871 1.08328 4.83871 2.41935C4.83871 3.75543 3.75543 4.83871 2.41935 4.83871C1.08328 4.83871 0 3.75543 0 2.41935ZM1.6129 2.41935C1.6129 2.86471 1.974 3.22581 2.41935 3.22581C2.86471 3.22581 3.22581 2.86471 3.22581 2.41935C3.22581 1.974 2.86471 1.6129 2.41935 1.6129C1.974 1.6129 1.6129 1.974 1.6129 2.41935Z" fill-rule="evenodd"/>
	<path fill="rgb(0,123,31)" stroke="none" transform="matrix(0.9998 0 0 0.9998 49.3164 30.4323)" d="M0 2.41935C0 1.08328 1.08328 0 2.41935 0C3.75543 0 4.83871 1.08328 4.83871 2.41935C4.83871 3.75543 3.75543 4.83871 2.41935 4.83871C1.08328 4.83871 0 3.75543 0 2.41935ZM1.6129 2.41935C1.6129 2.86471 1.974 3.22581 2.41935 3.22581C2.86471 3.22581 3.22581 2.86471 3.22581 2.41935C3.22581 1.974 2.86471 1.6129 2.41935 1.6129C1.974 1.6129 1.6129 1.974 1.6129 2.41935Z" fill-rule="evenodd"/>
	<path fill="rgb(0,123,31)" stroke="none" transform="matrix(0.9998 0 0 0.9998 45.8008 22.9822)" d="M0.806452 1.6129L4.03226 1.6129C4.47762 1.6129 4.83871 1.25181 4.83871 0.806452C4.83871 0.361092 4.47762 0 4.03226 0L0.806452 0C0.361092 0 0 0.361092 0 0.806452C0 1.25181 0.361092 1.6129 0.806452 1.6129Z"/>
	<path fill="rgb(0,189,45)" stroke="none" transform="matrix(0.9998 0 0 0.9998 3.24902 3.69798)" d="M0 0L8.55994 0L14.2494 23.4409C14.2494 23.4409 13.151 23.0464 11.1865 24.7944C9.22205 26.5425 8.55994 28.3159 8.55994 28.3159L0 28.3159L0 0Z"/>
	<defs>
		<clipPath id="clip_0">
			<path d="M21.8056 27.9812L1.80957 27.9812L1.80957 29.6504L15.1413 29.6504C15.1413 29.6504 16.5875 28.4662 17.9084 28.4662C19.2293 28.4662 20.4161 29.6504 20.4161 29.6504L21.8056 29.6504L21.8056 27.9812Z" clip-rule="evenodd"/>
		</clipPath>
	</defs>
	<g clip-path="url(#clip_0)">
		<path fill="none" stroke="rgb(0,123,31)" stroke-width="2" stroke-miterlimit="4" transform="matrix(0.9998 0 0 0.9998 1.80957 27.9812)" d="M0 0L20 0L20 1.66956L18.6102 1.66956C18.6102 1.66956 17.4232 0.485107 16.1021 0.485107C14.7809 0.485107 13.3344 1.66956 13.3344 1.66956L0 1.66956L0 0Z"/>
	</g>
	<path fill="rgb(0,189,45)" stroke="none" transform="matrix(0.9998 0 0 0.9998 45.7451 15.1868)" d="M1.21646 -0.000199951L10.0591 0.71622Q10.1614 0.724515 10.2663 0.749914Q10.3713 0.775313 10.4753 0.816989Q10.5793 0.858665 10.6791 0.915261Q10.7788 0.971857 10.871 1.04153Q10.9633 1.1112 11.045 1.19169Q11.1267 1.27217 11.1952 1.36084Q11.2637 1.44951 11.3168 1.54349Q11.37 1.63746 11.4059 1.73367L12.8818 5.68205Q12.9178 5.77827 12.9337 5.87074Q12.9497 5.96321 12.9451 6.04893Q12.9406 6.13464 12.9156 6.21081Q12.8907 6.28698 12.8462 6.35112Q12.8017 6.41527 12.7391 6.4653Q12.6764 6.51533 12.5978 6.54961Q12.5191 6.5839 12.4269 6.60132Q12.3347 6.61875 12.2319 6.61875L0.960571 6.61875Q0.857853 6.61875 0.759852 6.60016Q0.661852 6.58157 0.571758 6.54499Q0.481665 6.50842 0.402413 6.45505Q0.32316 6.40168 0.257328 6.33325Q0.191497 6.26482 0.14123 6.18357Q0.0909627 6.10231 0.0578965 6.01087Q0.0248303 5.91943 0.0100416 5.82079Q-0.00474707 5.72214 -0.000776757 5.6195L0.181073 0.918298Q0.185043 0.815657 0.207403 0.718514Q0.229762 0.62137 0.269783 0.532886Q0.309804 0.444402 0.366183 0.367459Q0.422562 0.290516 0.493463 0.227619Q0.564365 0.164722 0.647481 0.117918Q0.730597 0.0711144 0.823221 0.0419283Q0.915845 0.0127421 1.01496 0.00212361Q1.11408 -0.00849487 1.21646 -0.000199951Z"/>
	<path fill="rgb(247,247,247)" stroke="none" transform="matrix(0.9998 0 0 0.9998 44.5273 6.9854)" d="M2.25978e-16 0L14.2737 0L16.2834 15L1.81982 10.9521L0 9.54053L2.25978e-16 0Z"/>
	<path fill="rgb(216,216,216)" stroke="none" transform="matrix(0.9998 0 0 0.9998 43.8008 15.7114)" d="M0 0C0 0 14.4476 4.38076 15.2126 4.68066C15.9777 4.98057 16 6.27222 16 6.27222L0 1.51208L0 0Z"/>
	<defs>
		<clipPath id="clip_1">
			<path d="M59.0104 20.3912C58.2455 20.0913 43.8008 15.7114 43.8008 15.7114L43.8008 17.2232L59.7976 21.9824C59.7976 21.9824 59.7753 20.691 59.0104 20.3912Z" clip-rule="evenodd"/>
		</clipPath>
	</defs>
	<g clip-path="url(#clip_1)">
		<path fill="none" stroke="rgb(0,123,31)" stroke-width="2" stroke-miterlimit="4" transform="matrix(0.9998 0 0 0.9998 43.8008 15.7114)" d="M0 0C0 0 14.4476 4.38076 15.2126 4.68066C15.9777 4.98057 16 6.27222 16 6.27222L0 1.51208L0 0Z"/>
	</g>
	<path fill="rgb(255,255,255)" stroke="none" transform="matrix(0.9998 0 0 0.9998 42.8232 4.9858)" d="M1 -1.00834e-13L10.9775 8.57445e-15Q11.0803 9.7008e-15 11.179 0.0186045Q11.2777 0.037209 11.3692 0.0738122Q11.4607 0.110415 11.542 0.163826Q11.6233 0.217236 11.6918 0.285714Q11.7603 0.354193 11.8137 0.43551Q11.8671 0.516827 11.9037 0.608335Q11.9403 0.699843 11.9589 0.798563Q11.9775 0.897283 11.9775 1L11.9775 14.4722Q11.9775 14.5749 11.9597 14.6682Q11.9419 14.7615 11.9069 14.8424Q11.8719 14.9233 11.8208 14.9891Q11.7696 15.055 11.7041 15.1036Q11.6386 15.1522 11.5608 15.182Q11.4829 15.2118 11.3954 15.2219Q11.3078 15.232 11.2133 15.2219Q11.1188 15.2119 11.0205 15.1821L0.957006 12.1319Q0.858705 12.1021 0.76423 12.0548Q0.669754 12.0076 0.58218 11.9444Q0.494606 11.8813 0.416786 11.8043Q0.338965 11.7273 0.27343 11.639Q0.207896 11.5506 0.156782 11.4538Q0.105668 11.357 0.0706387 11.2549Q0.0356092 11.1527 0.0178046 11.0486Q5.55112e-16 10.9445 5.55112e-16 10.8418L5.55112e-16 1Q5.55112e-16 0.897283 0.0186045 0.798563Q0.037209 0.699843 0.0738122 0.608335Q0.110415 0.516827 0.163826 0.43551Q0.217236 0.354193 0.285714 0.285714Q0.354193 0.217236 0.43551 0.163826Q0.516827 0.110415 0.608335 0.0738122Q0.699843 0.037209 0.798563 0.0186045Q0.897283 -1.0196e-13 1 -1.00834e-13Z"/>
	<defs>
		<clipPath id="clip_2">
			<path d="M53.7986 4.9858L43.823 4.9858Q43.7203 4.9858 43.6216 5.0044Q43.5229 5.023 43.4315 5.0596Q43.34 5.0962 43.2587 5.14959Q43.1774 5.20299 43.1089 5.27146Q43.0404 5.33992 42.987 5.42122Q42.9336 5.50253 42.897 5.59402Q42.8605 5.6855 42.8418 5.7842Q42.8232 5.8829 42.8232 5.9856L42.8232 15.8254Q42.8232 15.9281 42.841 16.0322Q42.8588 16.1363 42.8939 16.2384Q42.9289 16.3405 42.98 16.4373Q43.0311 16.5341 43.0966 16.6224Q43.1621 16.7108 43.24 16.7877Q43.3178 16.8647 43.4053 16.9279Q43.4929 16.991 43.5873 17.0382Q43.6818 17.0855 43.7801 17.1152L53.8416 20.1649Q54.0398 20.2249 54.2163 20.2047Q54.3929 20.1844 54.525 20.0864Q54.6571 19.9883 54.7278 19.8253Q54.7984 19.6622 54.7984 19.4551L54.7984 5.9856Q54.7984 5.8829 54.7798 5.7842Q54.7612 5.6855 54.7246 5.59402Q54.688 5.50253 54.6346 5.42123Q54.5812 5.33992 54.5127 5.27146Q54.4443 5.20299 54.363 5.1496Q54.2817 5.0962 54.1902 5.0596Q54.0987 5.023 54 5.0044Q53.9013 4.9858 53.7986 4.9858Z" clip-rule="evenodd"/>
		</clipPath>
	</defs>
	<g clip-path="url(#clip_2)">
		<path fill="none" stroke="rgb(0,123,31)" stroke-width="2.8" stroke-miterlimit="4" transform="matrix(0.9998 0 0 0.9998 42.8232 4.9858)" d="M1 -1.00834e-13L10.9775 8.57445e-15Q11.0803 9.7008e-15 11.179 0.0186045Q11.2777 0.037209 11.3692 0.0738122Q11.4607 0.110415 11.542 0.163826Q11.6233 0.217236 11.6918 0.285714Q11.7603 0.354193 11.8137 0.43551Q11.8671 0.516827 11.9037 0.608335Q11.9403 0.699843 11.9589 0.798563Q11.9775 0.897283 11.9775 1L11.9775 14.4722Q11.9775 14.5749 11.9597 14.6682Q11.9419 14.7615 11.9069 14.8424Q11.8719 14.9233 11.8208 14.9891Q11.7696 15.055 11.7041 15.1036Q11.6386 15.1522 11.5608 15.182Q11.4829 15.2118 11.3954 15.2219Q11.3078 15.232 11.2133 15.2219Q11.1188 15.2119 11.0205 15.1821L0.957006 12.1319Q0.858705 12.1021 0.76423 12.0548Q0.669754 12.0076 0.58218 11.9444Q0.494606 11.8813 0.416786 11.8043Q0.338965 11.7273 0.27343 11.639Q0.207896 11.5506 0.156782 11.4538Q0.105668 11.357 0.0706387 11.2549Q0.0356092 11.1527 0.0178046 11.0486Q5.55112e-16 10.9445 5.55112e-16 10.8418L5.55112e-16 1Q5.55112e-16 0.897283 0.0186045 0.798563Q0.037209 0.699843 0.0738122 0.608335Q0.110415 0.516827 0.163826 0.43551Q0.217236 0.354193 0.285714 0.285714Q0.354193 0.217236 0.43551 0.163826Q0.516827 0.110415 0.608335 0.0738122Q0.699843 0.037209 0.798563 0.0186045Q0.897283 -1.0196e-13 1 -1.00834e-13Z"/>
	</g>

</svg>