<?xml version="1.0" encoding="utf-8" ?>
<svg xmlns="http://www.w3.org/2000/svg" xmlns:xlink="http://www.w3.org/1999/xlink" width="80" height="54">
	<path fill="rgb(251,141,74)" stroke="none" transform="translate(48 9.33334)" d="M28 32L0 32L0 0L14.3574 0C16.1237 0 17.6803 1.15885 18.1882 2.85091L21.3333 13.3333L26.1829 16.4922C27.3164 17.2305 28 18.4915 28 19.8438L28 32Z"/>
	<path fill="rgb(185,185,185)" stroke="none" transform="translate(49.3335 41.3333)" d="M0 0L29.3333 0L29.3333 5.33333L0 5.33333L0 0Z"/>
	<path fill="rgb(254,206,47)" stroke="none" transform="translate(66.6665 28)" d="M0 0L2.66666 0L2.66666 2.66667L0 2.66667L0 0Z"/>
	<path fill="rgb(228,228,226)" stroke="none" transform="translate(57.3335 14.6667)" d="M0 0L0 8L12 8L9.60026 0L0 0Z"/>
	<path fill="rgb(219,219,219)" stroke="none" transform="translate(57.3335 14.6667)" d="M0 0L0 8L9.33333 8L6.93359 0L0 0Z"/>
	<path fill="rgb(205,205,205)" stroke="none" transform="translate(58.6665 41.3333)" d="M10.6667 5.33333C10.6667 8.27865 8.27865 10.6667 5.33333 10.6667C2.38802 10.6667 0 8.27865 0 5.33333C0 2.38802 2.38802 0 5.33333 0C8.27865 0 10.6667 2.38802 10.6667 5.33333Z"/>
	<path fill="rgb(120,125,130)" stroke="none" transform="translate(57.3335 40)" d="M0 6.66667C0 10.3483 2.98503 13.3333 6.66667 13.3333C10.347 13.3288 13.3288 10.347 13.3333 6.66667C13.3333 2.98503 10.3483 0 6.66667 0C2.98503 0 0 2.98503 0 6.66667ZM2.66667 6.66667C2.66667 4.45768 4.45768 2.66667 6.66667 2.66667C8.87565 2.66667 10.6667 4.45768 10.6667 6.66667C10.6667 8.87565 8.87565 10.6667 6.66667 10.6667C4.45768 10.6667 2.66667 8.87565 2.66667 6.66667Z" fill-rule="evenodd"/>
	<path fill="rgb(168,168,168)" stroke="none" transform="translate(62 44.6667)" d="M2 4C0.895182 4 0 3.10482 0 2C0 0.895182 0.895182 0 2 0C3.10482 0 4 0.895182 4 2C4 3.10482 3.10482 4 2 4Z"/>
	<path fill="rgb(0,189,45)" stroke="none" transform="translate(1.3335 1.33334)" d="M0 0L48 0L48 45.3333L0 45.3333L0 0Z"/>
	<path fill="rgb(205,205,205)" stroke="none" transform="translate(1.3335 41.3333)" d="M0 0L48 0L48 5.33333L0 5.33333L0 0Z"/>
	<path fill="rgb(205,205,205)" stroke="none" transform="translate(10.6665 41.3333)" d="M10.6667 5.33333C10.6667 8.27865 8.27865 10.6667 5.33333 10.6667C2.38802 10.6667 0 8.27865 0 5.33333C0 2.38802 2.38802 0 5.33333 0C8.27865 0 10.6667 2.38802 10.6667 5.33333Z"/>
	<path fill="rgb(120,125,130)" stroke="none" transform="translate(9.3335 40)" d="M0 6.66667C0 10.3483 2.98503 13.3333 6.66667 13.3333C10.347 13.3288 13.3288 10.347 13.3333 6.66667C13.3333 2.98503 10.3483 0 6.66667 0C2.98503 0 0 2.98503 0 6.66667ZM2.66667 6.66667C2.66667 4.45768 4.45768 2.66667 6.66667 2.66667C8.87565 2.66667 10.6667 4.45768 10.6667 6.66667C10.6667 8.87565 8.87565 10.6667 6.66667 10.6667C4.45768 10.6667 2.66667 8.87565 2.66667 6.66667Z" fill-rule="evenodd"/>
	<path fill="rgb(168,168,168)" stroke="none" transform="translate(14 44.6667)" d="M2 4C0.895182 4 0 3.10482 0 2C0 0.895182 0.895182 0 2 0C3.10482 0 4 0.895182 4 2C4 3.10482 3.10482 4 2 4Z"/>
	<path fill="rgb(240,135,71)" stroke="none" transform="translate(49.3335 9.33334)" d="M0 0L2.66667 0L2.66667 37.3333L0 37.3333L0 0Z"/>
	<path fill="rgb(168,168,168)" stroke="none" transform="translate(49.3335 41.3333)" d="M0 0L2.66667 0L2.66667 5.33333L0 5.33333L0 0Z"/>
	<path fill="rgb(0,0,0)" stroke="none" transform="translate(62 44.6667)" d="M0 2C0 0.895182 0.895182 0 2 0C3.10482 0 4 0.895182 4 2C4 3.10482 3.10482 4 2 4C0.895182 4 0 3.10482 0 2ZM1.33333 2C1.33333 2.36849 1.63151 2.66667 2 2.66667C2.36849 2.66667 2.66667 2.36849 2.66667 2C2.66667 1.63151 2.36849 1.33333 2 1.33333C1.63151 1.33333 1.33333 1.63151 1.33333 2Z" fill-rule="evenodd"/>
	<path fill="rgb(0,0,0)" stroke="none" transform="translate(14 44.6667)" d="M0 2C0 0.895182 0.895182 0 2 0C3.10482 0 4 0.895182 4 2C4 3.10482 3.10482 4 2 4C0.895182 4 0 3.10482 0 2ZM1.33333 2C1.33333 2.36849 1.63151 2.66667 2 2.66667C2.36849 2.66667 2.66667 2.36849 2.66667 2C2.66667 1.63151 2.36849 1.33333 2 1.33333C1.63151 1.33333 1.33333 1.63151 1.33333 2Z" fill-rule="evenodd"/>
	<path fill="rgb(0,0,0)" stroke="none" d="M77.3333 40L78.6667 40C79.403 40 80 40.597 80 41.3333L80 46.6667C80 47.403 79.403 48 78.6667 48L70.5332 48C69.9023 51.1074 67.1706 53.3398 64 53.3398C60.8294 53.3398 58.0977 51.1074 57.4668 48L22.5332 48C21.9023 51.1074 19.1706 53.3398 16 53.3398C12.8294 53.3398 10.0977 51.1074 9.4668 48L1.33333 48C0.597005 48 0 47.403 0 46.6667L0 1.33333C0 0.597005 0.597005 0 1.33333 0L49.3333 0C50.0697 0 50.6667 0.597005 50.6667 1.33333L50.6667 8L62.3574 8C64.7161 7.98958 66.7988 9.53906 67.4668 11.8014L70.4707 21.8158L74.9108 24.7077C76.4245 25.6895 77.3366 27.3717 77.3333 29.1758L77.3333 40ZM48 2.66667L48 40L2.66667 40L2.66667 2.66667L48 2.66667ZM50.6667 40L50.6667 10.6667L62.3574 10.6667C63.5365 10.6615 64.5775 11.4355 64.9121 12.5664L65.1413 13.3333L57.3333 13.3333C56.597 13.3333 56 13.9303 56 14.6667L56 22.6667C56 23.403 56.597 24 57.3333 24L68.9336 24L73.4505 26.9427C74.209 27.4323 74.6673 28.2734 74.6667 29.1758L74.6667 40L50.6667 40ZM58.6667 21.3333L67.541 21.3333L65.9414 16L58.6667 16L58.6667 21.3333ZM2.66667 45.3333L9.4668 45.3333C9.67253 44.3633 10.0951 43.4518 10.7012 42.6667L2.66667 42.6667L2.66667 45.3333ZM16 50.6667C13.791 50.6667 12 48.8757 12 46.6667C12 44.4577 13.791 42.6667 16 42.6667C18.209 42.6667 20 44.4577 20 46.6667C20 48.8757 18.209 50.6667 16 50.6667ZM22.5332 45.3333L48 45.3333L48 42.6667L21.3001 42.6667C21.9063 43.4518 22.3275 44.3633 22.5332 45.3333ZM57.4668 45.3333L50.6667 45.3333L50.6667 42.6667L58.7012 42.6667C58.0951 43.4518 57.6725 44.3633 57.4668 45.3333ZM60 46.6667C60 48.8757 61.791 50.6667 64 50.6667C66.209 50.6667 68 48.8757 68 46.6667C68 44.4577 66.209 42.6667 64 42.6667C61.791 42.6667 60 44.4577 60 46.6667ZM70.5332 45.3333L77.3333 45.3333L77.3333 42.6667L69.3001 42.6667C69.9063 43.4518 70.3275 44.3633 70.5332 45.3333Z" fill-rule="evenodd"/>
	<path fill="rgb(0,0,0)" stroke="none" transform="translate(66.6665 28)" d="M0 0L2.66666 0L2.66666 2.66667L0 2.66667L0 0Z"/>

</svg>