<?xml version="1.0" encoding="utf-8"?>
<!-- Generator: Adobe Illustrator 22.1.0, SVG Export Plug-In . SVG Version: 6.00 Build 0)  -->
<svg version="1.1" id="Слой_1" xmlns="http://www.w3.org/2000/svg" xmlns:xlink="http://www.w3.org/1999/xlink" x="0px" y="0px"
	 viewBox="0 0 152.9 229.1" style="enable-background:new 0 0 152.9 229.1;" xml:space="preserve">
<style type="text/css">
	.st0{fill:#51976F;}
	.st1{fill:#78B563;}
	.st2{fill:#9EC650;}
	.st3{fill:#ACC807;}
</style>
<g>
	<polygon class="st0" points="98,137.7 43.9,229.1 98.3,229.1 152.9,229.1 	"/>
	<polygon class="st1" points="97.9,84.7 48.4,161.8 98.1,161.8 147.9,161.8 	"/>
	<polygon class="st2" points="97.7,39.4 52.1,105.2 97.9,105.2 143.8,105.2 	"/>
	<polygon class="st3" points="97.6,0 55.3,57 97.8,57 140.2,57 	"/>
</g>
<g>
	<polygon class="st0" points="30.7,177.3 0,229.1 30.8,229.1 61.7,229.1 	"/>
	<polygon class="st1" points="30.6,147.3 2.5,191 30.7,191 58.9,191 	"/>
	<polygon class="st2" points="30.5,121.7 4.7,159 30.6,159 56.6,159 	"/>
	<polygon class="st3" points="30.4,99.4 6.5,131.6 30.5,131.6 54.6,131.6 	"/>
</g>
</svg>
