<?xml version="1.0" encoding="utf-8" ?>
<svg xmlns="http://www.w3.org/2000/svg" xmlns:xlink="http://www.w3.org/1999/xlink" width="70" height="87">
	<path fill="rgb(44,62,80)" stroke="none" transform="translate(34.6563 68.6367)" d="M17.481 8.74017C17.481 13.5676 13.5676 17.481 8.74016 17.481C3.91337 17.481 0 13.5676 0 8.74017C0 3.91337 3.91337 0 8.74016 0C13.5676 0 17.481 3.91337 17.481 8.74017L17.481 8.74017Z"/>
	<path fill="rgb(209,212,209)" stroke="none" transform="translate(40.4834 74.4635)" d="M5.82743 2.91339C5.82743 4.52254 4.52254 5.82677 2.91339 5.82677C1.30489 5.82677 0 4.52254 0 2.91339C0 1.30489 1.30489 0 2.91339 0C4.52254 0 5.82743 1.30489 5.82743 2.91339L5.82743 2.91339Z"/>
	<path fill="rgb(0,123,31)" stroke="none" transform="translate(24.2607 37.1566)" d="M33.5473 26.5143C33.247 27.5064 32.4332 28.2585 31.4208 28.4808L8.68087 33.623C7.11368 33.9693 5.55961 32.9876 5.19962 31.4231L0.0718474 8.68383C-0.281589 7.11533 0.703311 5.55668 2.27115 5.20193L5.11175 4.56128L6.51041 4.24063L16.4892 1.9974L25.0111 0.0741562C25.7645 -0.099611 26.5566 0.0348128 27.2104 0.44792C27.8648 0.861027 28.3264 1.51872 28.4923 2.27411L29.1336 5.11472L29.7742 7.95532L30.7362 12.209L31.3768 15.064L32.3381 19.3177L33.6201 24.9989C33.7361 25.5012 33.7106 26.0258 33.5473 26.5143L33.5473 26.5143Z"/>
	<path fill="rgb(0,189,45)" stroke="none" transform="translate(22.105 7.77448)" d="M31.4208 28.4806L18.6453 31.3796L8.54972 33.6523C8.49202 33.6667 8.43366 33.6667 8.3753 33.6812C6.90057 33.8431 5.53928 32.8707 5.21404 31.4235L4.5734 28.5822L3.9321 25.7272L2.97081 21.4735L2.95638 21.4735L2.31508 18.6329L1.35379 14.3648L0.712489 11.5242L0.0718457 8.68359C-0.28159 7.1151 0.703309 5.55644 2.2718 5.20169L10.808 3.2791L22.1704 0.715217L25.011 0.0745734C25.7645 -0.0998495 26.5566 0.0345741 27.211 0.447681C27.8648 0.860788 28.3264 1.51848 28.493 2.27388L33.6201 24.9987C33.7945 25.7528 33.6601 26.5449 33.247 27.1987C32.8339 27.8524 32.1762 28.314 31.4208 28.4806Z"/>
	<path fill="rgb(255,251,27)" stroke="none" transform="translate(32.9082 8.48376)" d="M0 2.5652L3.2065 16.7741L7.92772 11.2286L14.5748 14.2089L11.367 0L0 2.5652Z"/>
	<path fill="rgb(255,251,27)" stroke="none" transform="translate(29.3745 39.1481)" d="M0 2.5652L3.20781 16.7754L7.92903 11.23L14.5761 14.2102L11.3683 0L0 2.5652Z"/>
	<path fill="rgb(0,123,31)" stroke="none" transform="translate(22.8174 18.2908)" d="M4.90942 2.88711L0.6413 3.84841L0 1.0078L4.26877 0.0465093C4.78286 -0.086603 5.32908 0.0707711 5.69366 0.457649C6.05759 0.843871 6.18284 1.39862 6.01956 1.90418C5.85694 2.40974 5.43137 2.78613 4.90942 2.88711Z"/>
	<path fill="rgb(0,123,31)" stroke="none" transform="translate(24.4199 25.3996)" d="M4.90942 2.88711L0.655725 3.8484L0.6413 3.8484L0 1.0078L4.26812 0.0465093C4.78286 -0.086603 5.32842 0.0707711 5.69301 0.457649C6.05759 0.843871 6.18284 1.39861 6.01956 1.90418C5.85628 2.40974 5.43072 2.78613 4.90942 2.88711Z"/>
	<path fill="rgb(0,123,31)" stroke="none" transform="translate(26.0371 32.5045)" d="M4.89499 2.89089L0.641299 3.85218L0 0.997155L4.25369 0.0358619C5.04187 -0.141184 5.82481 0.354545 6.00185 1.14273C6.1789 1.93156 5.68317 2.71384 4.89499 2.89089Z"/>
	<path fill="rgb(0,189,45)" stroke="none" transform="translate(48.022 42.2713)" d="M6.01297 2.8406L1.74486 3.8019C1.63929 3.8196 1.53175 3.82944 1.42486 3.83141C0.695042 3.81501 0.0898073 3.26158 0.00915309 2.53635C-0.0721568 1.81111 0.396031 1.13834 1.10421 0.961294L5.37233 0L6.01297 2.8406Z"/>
	<path fill="rgb(0,189,45)" stroke="none" transform="translate(49.6016 49.3656)" d="M6.03594 2.85503L1.76783 3.81632C1.6616 3.83403 1.55472 3.84386 1.44718 3.84583C0.769156 3.84189 0.183594 3.37108 0.0340883 2.70946C-0.1364 1.92718 0.348836 1.1508 1.12718 0.961293L5.3953 0L6.03594 2.85503Z"/>
	<path fill="rgb(0,189,45)" stroke="none" transform="translate(51.1626 56.4744)" d="M6.07774 2.8406L1.80962 3.8019C1.70536 3.83206 1.59717 3.84648 1.48897 3.84583C0.734234 3.86288 0.092279 3.30027 0.00900205 2.55012C-0.0742751 1.80062 0.428666 1.1108 1.16832 0.961293L5.43644 0L6.07774 2.8406Z"/>
	<path fill="rgb(165,165,164)" stroke="none" transform="translate(0.00146484 0.167694)" d="M27.7096 73.1319C24.9884 73.126 22.6343 71.2388 22.0369 68.5845L8.7808 9.05639C8.44835 7.5738 7.54541 6.28202 6.26806 5.46105L0.816357 2.77192C0.348169 2.54176 0.038011 2.07947 0.00325755 1.55883C-0.031496 1.03818 0.213745 0.538517 0.64718 0.247375C1.08061 -0.0431109 1.63601 -0.0804874 2.1042 0.149672L7.63131 2.87815C7.67656 2.90044 7.72115 2.92536 7.76377 2.95224C9.72963 4.18763 11.1191 6.15808 11.6227 8.42427L24.8789 67.9517C25.2349 69.5189 26.7929 70.5018 28.3608 70.1484L68.1495 61.1682C68.6577 61.0535 69.1875 61.2187 69.541 61.601C69.8938 61.9833 70.0157 62.5249 69.861 63.0219C69.7062 63.519 69.2984 63.8954 68.7908 64.0101L29.0014 72.9863C28.5771 73.0821 28.1444 73.1313 27.7096 73.1319Z"/>

</svg>