<?xml version="1.0" encoding="utf-8" ?>
<svg xmlns="http://www.w3.org/2000/svg" xmlns:xlink="http://www.w3.org/1999/xlink" width="50" height="37">
	<path fill="rgb(0,189,45)" stroke="none" transform="translate(0.806396 0.584717)" d="M36.2903 6.0927L33.0645 6.0927L33.0645 26.254L33.0645 0L0 0L0 30.2863L2.41935 30.2863C2.41935 27.6141 4.58591 25.4475 7.25806 25.4475C9.93022 25.4475 12.0968 27.6141 12.0968 30.2863L36.2903 30.2863C36.2903 27.6141 38.4569 25.4475 41.129 25.4475C43.8012 25.4475 45.9677 27.6141 45.9677 30.2863L48.3871 30.2863L48.3871 18.1895L36.2903 18.1895L36.2903 6.0927Z"/>
	<path fill="rgb(0,189,45)" stroke="none" transform="translate(37.0967 26.0323)" d="M0 4.83871C0 2.16655 2.16655 0 4.83871 0C7.51087 0 9.67742 2.16655 9.67742 4.83871C9.67742 7.51087 7.51087 9.67742 4.83871 9.67742C2.16655 9.67742 0 7.51087 0 4.83871ZM3.22581 4.83871C3.22581 5.72943 3.94799 6.45161 4.83871 6.45161C5.72943 6.45161 6.45161 5.72943 6.45161 4.83871C6.45161 3.94799 5.72943 3.22581 4.83871 3.22581C3.94799 3.22581 3.22581 3.94799 3.22581 4.83871Z" fill-rule="evenodd"/>
	<path fill="rgb(0,189,45)" stroke="none" transform="translate(3.22583 26.0323)" d="M0 4.83871C0 2.16655 2.16655 0 4.83871 0C7.51087 0 9.67742 2.16655 9.67742 4.83871C9.67742 7.51087 7.51087 9.67742 4.83871 9.67742C2.16655 9.67742 0 7.51087 0 4.83871ZM3.22581 4.83871C3.22581 5.72943 3.94799 6.45161 4.83871 6.45161C5.72943 6.45161 6.45161 5.72943 6.45161 4.83871C6.45161 3.94799 5.72943 3.22581 4.83871 3.22581C3.94799 3.22581 3.22581 3.94799 3.22581 4.83871Z" fill-rule="evenodd"/>
	<path fill="rgb(0,189,45)" stroke="none" transform="translate(6.45166 29.2581)" d="M3.22581 1.6129C3.22581 2.50362 2.50362 3.22581 1.6129 3.22581C0.722184 3.22581 0 2.50362 0 1.6129C0 0.722184 0.722184 0 1.6129 0C2.50362 0 3.22581 0.722184 3.22581 1.6129Z"/>
	<path fill="rgb(0,189,45)" stroke="none" transform="translate(40.3225 29.2581)" d="M3.22581 1.6129C3.22581 2.50362 2.50362 3.22581 1.6129 3.22581C0.722184 3.22581 0 2.50362 0 1.6129C0 0.722184 0.722184 0 1.6129 0C2.50362 0 3.22581 0.722184 3.22581 1.6129Z"/>
	<path fill="rgb(0,123,31)" stroke="none" transform="translate(0 0.0302124)" d="M49.8386 15.8407L42.5805 6.16325C42.4285 5.96046 42.1895 5.84075 41.9355 5.84075L34.6774 5.84075L34.6774 0.806452C34.6774 0.361092 34.3163 0 33.871 0L0.806452 0C0.361092 0 0 0.361092 0 0.806452L0 30.8407C0 31.2861 0.361092 31.6472 0.806452 31.6472L2.48393 31.6472C2.88243 34.4229 5.26044 36.4835 8.06452 36.4835C10.8686 36.4835 13.2466 34.4229 13.6451 31.6472L36.3549 31.6472C36.7534 34.4229 39.1314 36.4835 41.9355 36.4835C44.7396 36.4835 47.1176 34.4229 47.5161 31.6472L49.1936 31.6472C49.6389 31.6472 50 31.2861 50 30.8407L50 16.3246C50 16.1502 49.9433 15.9805 49.8386 15.8407ZM33.0645 26.002L33.0645 1.67999L1.6129 1.67999L1.6129 26.002L4.83871 26.002C4.92416 26.0052 5.00882 26.0225 5.08876 26.0528C6.908 24.9097 9.22103 24.9097 11.0403 26.0528C11.1202 26.0225 11.2049 26.0052 11.2903 26.002L33.0645 26.002ZM36.2903 18.744L36.2903 7.45365L34.6774 7.45365L34.6774 26.002L38.7097 26.002C38.7951 26.0052 38.8798 26.0225 38.9597 26.0528C40.779 24.9097 43.092 24.9097 44.9112 26.0528C44.9912 26.0225 45.0758 26.0052 45.1613 26.002L48.3871 26.002L48.3871 19.5504L37.0968 19.5504C36.6514 19.5504 36.2903 19.1893 36.2903 18.744ZM48.3871 16.5932L48.3871 17.9375L37.9032 17.9375L37.9032 7.45365L41.5323 7.45365L48.3871 16.5932ZM4.03226 30.8407C4.03226 33.0676 5.83772 34.873 8.06452 34.873C10.2905 34.8703 12.094 33.0668 12.0968 30.8407C12.0968 28.614 10.2913 26.8085 8.06452 26.8085C5.83772 26.8085 4.03226 28.614 4.03226 30.8407ZM41.9355 34.873C39.7087 34.873 37.9032 33.0676 37.9032 30.8407C37.9032 28.614 39.7087 26.8085 41.9355 26.8085C44.1623 26.8085 45.9677 28.614 45.9677 30.8407C45.965 33.0668 44.1615 34.8703 41.9355 34.873ZM1.6129 27.6149L3.43884 27.6149C2.93481 28.3352 2.60797 29.1641 2.48393 30.0343L1.6129 30.0343L1.6129 27.6149ZM36.3549 30.0343L13.6451 30.0343C13.5211 29.1641 13.1942 28.3352 12.6902 27.6149L37.3098 27.6149C36.8058 28.3352 36.4789 29.1641 36.3549 30.0343ZM46.5612 27.6149C47.0652 28.3352 47.392 29.1641 47.5161 30.0343L48.3871 30.0343L48.3871 27.6149L46.5612 27.6149Z" fill-rule="evenodd"/>
	<path fill="rgb(0,123,31)" stroke="none" transform="translate(5.64526 28.4516)" d="M0 2.41935C0 1.08328 1.08328 0 2.41935 0C3.75543 0 4.83871 1.08328 4.83871 2.41935C4.83871 3.75543 3.75543 4.83871 2.41935 4.83871C1.08328 4.83871 0 3.75543 0 2.41935ZM1.6129 2.41935C1.6129 2.86471 1.974 3.22581 2.41935 3.22581C2.86471 3.22581 3.22581 2.86471 3.22581 2.41935C3.22581 1.974 2.86471 1.6129 2.41935 1.6129C1.974 1.6129 1.6129 1.974 1.6129 2.41935Z" fill-rule="evenodd"/>
	<path fill="rgb(0,123,31)" stroke="none" transform="translate(39.5161 28.4516)" d="M0 2.41935C0 1.08328 1.08328 0 2.41935 0C3.75543 0 4.83871 1.08328 4.83871 2.41935C4.83871 3.75543 3.75543 4.83871 2.41935 4.83871C1.08328 4.83871 0 3.75543 0 2.41935ZM1.6129 2.41935C1.6129 2.86471 1.974 3.22581 2.41935 3.22581C2.86471 3.22581 3.22581 2.86471 3.22581 2.41935C3.22581 1.974 2.86471 1.6129 2.41935 1.6129C1.974 1.6129 1.6129 1.974 1.6129 2.41935Z" fill-rule="evenodd"/>
	<path fill="rgb(0,123,31)" stroke="none" transform="translate(36.2903 21.1935)" d="M0.806452 1.6129L4.03226 1.6129C4.47762 1.6129 4.83871 1.25181 4.83871 0.806452C4.83871 0.361092 4.47762 0 4.03226 0L0.806452 0C0.361092 0 0 0.361092 0 0.806452C0 1.25181 0.361092 1.6129 0.806452 1.6129Z"/>
	<path fill="rgb(0,123,31)" stroke="none" transform="translate(5 5)" d="M0.75 1.6129L8.25 1.6129C8.66418 1.6129 9 1.25181 9 0.806452C9 0.361092 8.66418 0 8.25 0L0.75 0C0.335815 0 0 0.361092 0 0.806452C0 1.25181 0.335815 1.6129 0.75 1.6129Z"/>
	<path fill="rgb(0,123,31)" stroke="none" transform="translate(7 8)" d="M6.22222 0L0.777778 0C0.348253 0 0 0.361092 0 0.806452C0 1.25181 0.348253 1.6129 0.777778 1.6129L6.22222 1.6129C6.65175 1.6129 7 1.25181 7 0.806452C7 0.361092 6.65175 0 6.22222 0Z"/>
	<path fill="rgb(0,123,31)" stroke="none" transform="translate(11 11)" d="M2.25 0L0.75 0C0.335815 0 0 0.361092 0 0.806452C0 1.25181 0.335815 1.6129 0.75 1.6129L2.25 1.6129C2.66418 1.6129 3 1.25181 3 0.806452C3 0.361092 2.66418 0 2.25 0Z"/>
	<path fill="rgb(0,123,31)" stroke="none" transform="translate(36.2903 21.1935)" d="M0.806452 1.6129L4.03226 1.6129C4.47762 1.6129 4.83871 1.25181 4.83871 0.806452C4.83871 0.361092 4.47762 0 4.03226 0L0.806452 0C0.361092 0 0 0.361092 0 0.806452C0 1.25181 0.361092 1.6129 0.806452 1.6129Z"/>

</svg>