<?xml version="1.0" encoding="utf-8" ?>
<svg xmlns="http://www.w3.org/2000/svg" xmlns:xlink="http://www.w3.org/1999/xlink" width="35" height="35">
	<defs>
		<clipPath id="clip_0">
			<path d="M270 -31L-28 -31Q-28.1538 -31 -28.3052 -30.986Q-28.4565 -30.972 -28.6043 -30.9442Q-28.7521 -30.9163 -28.8951 -30.8748Q-29.038 -30.8334 -29.175 -30.7786Q-29.312 -30.7238 -29.4419 -30.6561Q-29.5717 -30.5885 -29.6935 -30.5085Q-29.8152 -30.4286 -29.9278 -30.337Q-30.0404 -30.2454 -30.1429 -30.1429Q-30.2454 -30.0404 -30.337 -29.9278Q-30.4286 -29.8152 -30.5085 -29.6935Q-30.5885 -29.5717 -30.6561 -29.4419Q-30.7238 -29.312 -30.7786 -29.175Q-30.8334 -29.038 -30.8749 -28.8951Q-30.9163 -28.7521 -30.9442 -28.6043Q-30.972 -28.4565 -30.986 -28.3052Q-31 -28.1538 -31 -28L-31 143Q-31 143.154 -30.986 143.305Q-30.972 143.457 -30.9442 143.604Q-30.9163 143.752 -30.8749 143.895Q-30.8334 144.038 -30.7786 144.175Q-30.7238 144.312 -30.6561 144.442Q-30.5885 144.572 -30.5085 144.693Q-30.4286 144.815 -30.337 144.928Q-30.2454 145.04 -30.1429 145.143Q-30.0404 145.245 -29.9278 145.337Q-29.8152 145.429 -29.6935 145.509Q-29.5717 145.588 -29.4419 145.656Q-29.312 145.724 -29.175 145.779Q-29.038 145.833 -28.8951 145.875Q-28.7521 145.916 -28.6043 145.944Q-28.4565 145.972 -28.3052 145.986Q-28.1538 146 -28 146L270 146Q270.154 146 270.305 145.986Q270.457 145.972 270.604 145.944Q270.752 145.916 270.895 145.875Q271.038 145.833 271.175 145.779Q271.312 145.724 271.442 145.656Q271.572 145.588 271.693 145.509Q271.815 145.429 271.928 145.337Q272.04 145.245 272.143 145.143Q272.245 145.04 272.337 144.928Q272.429 144.815 272.509 144.693Q272.588 144.572 272.656 144.442Q272.724 144.312 272.779 144.175Q272.833 144.038 272.875 143.895Q272.916 143.752 272.944 143.604Q272.972 143.457 272.986 143.305Q273 143.154 273 143L273 -28Q273 -28.1538 272.986 -28.3052Q272.972 -28.4565 272.944 -28.6043Q272.916 -28.7521 272.875 -28.8951Q272.833 -29.038 272.779 -29.175Q272.724 -29.312 272.656 -29.4419Q272.588 -29.5717 272.509 -29.6935Q272.429 -29.8152 272.337 -29.9278Q272.245 -30.0404 272.143 -30.1429Q272.04 -30.2454 271.928 -30.337Q271.815 -30.4286 271.693 -30.5085Q271.572 -30.5885 271.442 -30.6561Q271.312 -30.7238 271.175 -30.7786Q271.038 -30.8334 270.895 -30.8748Q270.752 -30.9163 270.604 -30.9442Q270.457 -30.972 270.305 -30.986Q270.154 -31 270 -31Z" clip-rule="evenodd"/>
		</clipPath>
	</defs>
	<g clip-path="url(#clip_0)">
		<path fill="rgb(0,123,31)" stroke="none" transform="translate(0.0332031 0)" d="M34.5895 5.6929L17.6656 0.0540123C17.5144 -0.0180041 17.3704 -0.0180041 17.2191 0.0540123L0.518519 5.54887C0.100823 5.72171 0 6.08179 0 6.29064L0 28.8534C0 29.2279 0.223251 29.5231 0.518519 29.5952L17.0103 34.8668C17.2623 34.9604 17.536 34.9964 17.8817 34.8668L34.3663 29.5952C34.6615 29.4439 34.8848 29.1487 34.8848 28.8534L34.8848 6.29064C34.8848 6.06739 34.8128 5.84414 34.5895 5.6929ZM17.4424 1.60957L31.7665 6.21142L26.358 7.94702L12.2428 3.30195L17.4424 1.60957ZM17.4424 10.8133L3.11831 6.29064L9.86625 4.08693L23.9311 8.732L17.4424 10.8133ZM1.48354 28.3277L16.7006 33.1528L16.7006 12.2104L1.48354 7.34208L1.48354 28.3277ZM18.1842 12.1528L18.1842 33.1528L33.4012 28.2557L33.394 28.2557L33.394 7.34208L27.2366 9.28652L27.2366 11.447L25.7531 12.0808L25.7531 9.75463L18.1842 12.1528Z" fill-rule="evenodd"/>
	</g>

</svg>