<?xml version="1.0" encoding="utf-8" ?>
<svg xmlns="http://www.w3.org/2000/svg" xmlns:xlink="http://www.w3.org/1999/xlink" width="18" height="27">
	<defs>
		<clipPath id="clip_0">
			<rect x="-932" y="-262" width="1366" height="6477" clip-rule="evenodd"/>
		</clipPath>
	</defs>
	<g clip-path="url(#clip_0)">
		<path fill="rgb(0,189,45)" stroke="none" d="M0 9.49219C0 4.2582 4.0374 0 9 0C13.9626 0 18 4.2582 18 9.49219C18 11.2081 17.5611 12.8898 16.7306 14.3554L9.7684 26.6155C9.63405 26.8521 9.39245 26.9978 9.1309 27L9.12495 27C8.86565 27 8.62455 26.8587 8.4877 26.6261L1.34345 14.4836C0.46445 12.9864 0 11.2606 0 9.49219ZM9.1136 24.6895L15.4433 13.5431C16.1345 12.3234 16.505 10.9224 16.505 9.49219C16.505 5.13053 13.1355 1.57148 9 1.57148C4.8645 1.57148 1.49 5.13053 1.49 9.49219C1.49 10.9661 1.8867 12.4039 2.61835 13.6501L9.1136 24.6895Z" fill-rule="evenodd"/>
	</g>
	<defs>
		<clipPath id="clip_1">
			<rect x="-932" y="-262" width="1366" height="6477" clip-rule="evenodd"/>
		</clipPath>
	</defs>
	<g clip-path="url(#clip_1)">
		<path fill="rgb(0,189,45)" stroke="none" transform="translate(4 4)" d="M0 5C0 2.243 2.243 0 5 0C7.757 0 10 2.243 10 5C10 7.70928 7.82794 10 5 10C2.2065 10 0 7.73939 0 5ZM1.65556 5C1.65556 6.84261 3.15239 8.34444 5 8.34444C6.87689 8.34444 8.33889 6.81572 8.33889 5C8.33889 3.162 6.838 1.65556 5 1.65556C3.162 1.65556 1.65556 3.162 1.65556 5Z" fill-rule="evenodd"/>
	</g>

</svg>