<?xml version="1.0" encoding="utf-8" ?>
<svg xmlns="http://www.w3.org/2000/svg" xmlns:xlink="http://www.w3.org/1999/xlink" width="50" height="40">
	<path fill="rgb(0,189,45)" stroke="none" transform="translate(0.806396 0.806458)" d="M36.2903 8.87097L33.0645 8.87097L33.0645 29.0323L33.0645 0L0 0L0 33.0645L2.41935 33.0645C2.41935 30.3924 4.58591 28.2258 7.25806 28.2258C9.93022 28.2258 12.0968 30.3924 12.0968 33.0645L36.2903 33.0645C36.2903 30.3924 38.4569 28.2258 41.129 28.2258C43.8012 28.2258 45.9677 30.3924 45.9677 33.0645L48.3871 33.0645L48.3871 20.9677L36.2903 20.9677L36.2903 8.87097Z"/>
	<path fill="rgb(0,189,45)" stroke="none" transform="translate(37.0967 29.0323)" d="M0 4.83871C0 2.16655 2.16655 0 4.83871 0C7.51087 0 9.67742 2.16655 9.67742 4.83871C9.67742 7.51087 7.51087 9.67742 4.83871 9.67742C2.16655 9.67742 0 7.51087 0 4.83871ZM3.22581 4.83871C3.22581 5.72943 3.94799 6.45161 4.83871 6.45161C5.72943 6.45161 6.45161 5.72943 6.45161 4.83871C6.45161 3.94799 5.72943 3.22581 4.83871 3.22581C3.94799 3.22581 3.22581 3.94799 3.22581 4.83871Z" fill-rule="evenodd"/>
	<path fill="rgb(0,189,45)" stroke="none" transform="translate(3.22583 29.0323)" d="M0 4.83871C0 2.16655 2.16655 0 4.83871 0C7.51087 0 9.67742 2.16655 9.67742 4.83871C9.67742 7.51087 7.51087 9.67742 4.83871 9.67742C2.16655 9.67742 0 7.51087 0 4.83871ZM3.22581 4.83871C3.22581 5.72943 3.94799 6.45161 4.83871 6.45161C5.72943 6.45161 6.45161 5.72943 6.45161 4.83871C6.45161 3.94799 5.72943 3.22581 4.83871 3.22581C3.94799 3.22581 3.22581 3.94799 3.22581 4.83871Z" fill-rule="evenodd"/>
	<path fill="rgb(0,189,45)" stroke="none" transform="translate(6.45166 32.2581)" d="M3.22581 1.6129C3.22581 2.50362 2.50362 3.22581 1.6129 3.22581C0.722184 3.22581 0 2.50362 0 1.6129C0 0.722184 0.722184 0 1.6129 0C2.50362 0 3.22581 0.722184 3.22581 1.6129Z"/>
	<path fill="rgb(0,189,45)" stroke="none" transform="translate(40.3225 32.2581)" d="M3.22581 1.6129C3.22581 2.50362 2.50362 3.22581 1.6129 3.22581C0.722184 3.22581 0 2.50362 0 1.6129C0 0.722184 0.722184 0 1.6129 0C2.50362 0 3.22581 0.722184 3.22581 1.6129Z"/>
	<path fill="rgb(0,123,31)" stroke="none" d="M49.8386 18.8709L42.5805 9.19347C42.4285 8.99068 42.1895 8.87097 41.9355 8.87097L34.6774 8.87097L34.6774 0.806452C34.6774 0.361092 34.3163 0 33.871 0L0.806452 0C0.361092 0 0 0.361092 0 0.806452L0 33.871C0 34.3163 0.361092 34.6774 0.806452 34.6774L2.48393 34.6774C2.88243 37.4531 5.26044 39.5138 8.06452 39.5138C10.8686 39.5138 13.2466 37.4531 13.6451 34.6774L36.3549 34.6774C36.7534 37.4531 39.1314 39.5138 41.9355 39.5138C44.7396 39.5138 47.1176 37.4531 47.5161 34.6774L49.1936 34.6774C49.6389 34.6774 50 34.3163 50 33.871L50 19.3548C50 19.1804 49.9433 19.0107 49.8386 18.8709ZM33.0645 29.0323L33.0645 1.6129L1.6129 1.6129L1.6129 29.0323L4.83871 29.0323C4.92416 29.0354 5.00882 29.0527 5.08876 29.0831C6.908 27.9399 9.22103 27.9399 11.0403 29.0831C11.1202 29.0527 11.2049 29.0354 11.2903 29.0323L33.0645 29.0323ZM36.2903 21.7742L36.2903 10.4839L34.6774 10.4839L34.6774 29.0323L38.7097 29.0323C38.7951 29.0354 38.8798 29.0527 38.9597 29.0831C40.779 27.9399 43.092 27.9399 44.9112 29.0831C44.9912 29.0527 45.0758 29.0354 45.1613 29.0323L48.3871 29.0323L48.3871 22.5806L37.0968 22.5806C36.6514 22.5806 36.2903 22.2196 36.2903 21.7742ZM48.3871 19.6234L48.3871 20.9677L37.9032 20.9677L37.9032 10.4839L41.5323 10.4839L48.3871 19.6234ZM4.03226 33.871C4.03226 36.0978 5.83772 37.9032 8.06452 37.9032C10.2905 37.9005 12.094 36.097 12.0968 33.871C12.0968 31.6442 10.2913 29.8387 8.06452 29.8387C5.83772 29.8387 4.03226 31.6442 4.03226 33.871ZM41.9355 37.9032C39.7087 37.9032 37.9032 36.0978 37.9032 33.871C37.9032 31.6442 39.7087 29.8387 41.9355 29.8387C44.1623 29.8387 45.9677 31.6442 45.9677 33.871C45.965 36.097 44.1615 37.9005 41.9355 37.9032ZM1.6129 30.6452L3.43884 30.6452C2.93481 31.3654 2.60797 32.1943 2.48393 33.0645L1.6129 33.0645L1.6129 30.6452ZM36.3549 33.0645L13.6451 33.0645C13.5211 32.1943 13.1942 31.3654 12.6902 30.6452L37.3098 30.6452C36.8058 31.3654 36.4789 32.1943 36.3549 33.0645ZM46.5612 30.6452C47.0652 31.3654 47.392 32.1943 47.5161 33.0645L48.3871 33.0645L48.3871 30.6452L46.5612 30.6452Z" fill-rule="evenodd"/>
	<path fill="rgb(0,123,31)" stroke="none" transform="translate(5.64526 31.4516)" d="M0 2.41935C0 1.08328 1.08328 0 2.41935 0C3.75543 0 4.83871 1.08328 4.83871 2.41935C4.83871 3.75543 3.75543 4.83871 2.41935 4.83871C1.08328 4.83871 0 3.75543 0 2.41935ZM1.6129 2.41935C1.6129 2.86471 1.974 3.22581 2.41935 3.22581C2.86471 3.22581 3.22581 2.86471 3.22581 2.41935C3.22581 1.974 2.86471 1.6129 2.41935 1.6129C1.974 1.6129 1.6129 1.974 1.6129 2.41935Z" fill-rule="evenodd"/>
	<path fill="rgb(0,123,31)" stroke="none" transform="translate(39.5161 31.4516)" d="M0 2.41935C0 1.08328 1.08328 0 2.41935 0C3.75543 0 4.83871 1.08328 4.83871 2.41935C4.83871 3.75543 3.75543 4.83871 2.41935 4.83871C1.08328 4.83871 0 3.75543 0 2.41935ZM1.6129 2.41935C1.6129 2.86471 1.974 3.22581 2.41935 3.22581C2.86471 3.22581 3.22581 2.86471 3.22581 2.41935C3.22581 1.974 2.86471 1.6129 2.41935 1.6129C1.974 1.6129 1.6129 1.974 1.6129 2.41935Z" fill-rule="evenodd"/>
	<path fill="rgb(0,123,31)" stroke="none" transform="translate(36.2903 24.1935)" d="M0.806452 1.6129L4.03226 1.6129C4.47762 1.6129 4.83871 1.25181 4.83871 0.806452C4.83871 0.361092 4.47762 0 4.03226 0L0.806452 0C0.361092 0 0 0.361092 0 0.806452C0 1.25181 0.361092 1.6129 0.806452 1.6129Z"/>
	<path fill="rgb(0,123,31)" stroke="none" transform="translate(3 3)" d="M0.806452 1.6129L8.87097 1.6129C9.31633 1.6129 9.67742 1.25181 9.67742 0.806452C9.67742 0.361092 9.31633 0 8.87097 0L0.806452 0C0.361092 0 0 0.361092 0 0.806452C0 1.25181 0.361092 1.6129 0.806452 1.6129Z"/>
	<path fill="rgb(0,123,31)" stroke="none" transform="translate(6 6)" d="M6.45161 0L0.806452 0C0.361092 0 0 0.361092 0 0.806452C0 1.25181 0.361092 1.6129 0.806452 1.6129L6.45161 1.6129C6.89697 1.6129 7.25806 1.25181 7.25806 0.806452C7.25806 0.361092 6.89697 0 6.45161 0Z"/>
	<path fill="rgb(0,123,31)" stroke="none" transform="translate(10 10)" d="M2.41935 0L0.806452 0C0.361092 0 0 0.361092 0 0.806452C0 1.25181 0.361092 1.6129 0.806452 1.6129L2.41935 1.6129C2.86471 1.6129 3.22581 1.25181 3.22581 0.806452C3.22581 0.361092 2.86471 0 2.41935 0Z"/>

</svg>