<?xml version="1.0" encoding="utf-8" ?>
<svg xmlns="http://www.w3.org/2000/svg" xmlns:xlink="http://www.w3.org/1999/xlink" width="32" height="32">
	<defs>
		<clipPath id="clip_0">
			<path d="M271 -31L-27 -31Q-27.1538 -31 -27.3052 -30.986Q-27.4565 -30.972 -27.6043 -30.9442Q-27.7521 -30.9163 -27.8951 -30.8748Q-28.038 -30.8334 -28.175 -30.7786Q-28.312 -30.7238 -28.4419 -30.6561Q-28.5717 -30.5885 -28.6935 -30.5085Q-28.8152 -30.4286 -28.9278 -30.337Q-29.0404 -30.2454 -29.1429 -30.1429Q-29.2454 -30.0404 -29.337 -29.9278Q-29.4286 -29.8152 -29.5085 -29.6935Q-29.5885 -29.5717 -29.6561 -29.4419Q-29.7238 -29.312 -29.7786 -29.175Q-29.8334 -29.038 -29.8748 -28.8951Q-29.9163 -28.7521 -29.9442 -28.6043Q-29.972 -28.4565 -29.986 -28.3052Q-30 -28.1538 -30 -28L-30 143Q-30 143.154 -29.986 143.305Q-29.972 143.457 -29.9442 143.604Q-29.9163 143.752 -29.8748 143.895Q-29.8334 144.038 -29.7786 144.175Q-29.7238 144.312 -29.6561 144.442Q-29.5885 144.572 -29.5085 144.693Q-29.4286 144.815 -29.337 144.928Q-29.2454 145.04 -29.1429 145.143Q-29.0404 145.245 -28.9278 145.337Q-28.8152 145.429 -28.6935 145.509Q-28.5717 145.588 -28.4419 145.656Q-28.312 145.724 -28.175 145.779Q-28.038 145.833 -27.8951 145.875Q-27.7521 145.916 -27.6043 145.944Q-27.4565 145.972 -27.3052 145.986Q-27.1538 146 -27 146L271 146Q271.154 146 271.305 145.986Q271.457 145.972 271.604 145.944Q271.752 145.916 271.895 145.875Q272.038 145.833 272.175 145.779Q272.312 145.724 272.442 145.656Q272.572 145.588 272.694 145.509Q272.815 145.429 272.928 145.337Q273.04 145.245 273.143 145.143Q273.245 145.04 273.337 144.928Q273.429 144.815 273.509 144.693Q273.589 144.572 273.656 144.442Q273.724 144.312 273.779 144.175Q273.833 144.038 273.875 143.895Q273.916 143.752 273.944 143.604Q273.972 143.457 273.986 143.305Q274 143.154 274 143L274 -28Q274 -28.1538 273.986 -28.3052Q273.972 -28.4565 273.944 -28.6043Q273.916 -28.7521 273.875 -28.8951Q273.833 -29.038 273.779 -29.175Q273.724 -29.312 273.656 -29.4419Q273.589 -29.5717 273.509 -29.6935Q273.429 -29.8152 273.337 -29.9278Q273.245 -30.0404 273.143 -30.1429Q273.04 -30.2454 272.928 -30.337Q272.815 -30.4286 272.694 -30.5085Q272.572 -30.5885 272.442 -30.6561Q272.312 -30.7238 272.175 -30.7786Q272.038 -30.8334 271.895 -30.8748Q271.752 -30.9163 271.604 -30.9442Q271.457 -30.972 271.305 -30.986Q271.154 -31 271 -31Z" clip-rule="evenodd"/>
		</clipPath>
	</defs>
	<g clip-path="url(#clip_0)">
		<path fill="rgb(0,123,31)" stroke="none" transform="translate(0.000244141 0)" d="M31.4052 30.8735L26.0824 30.8735L26.0824 1.06503C26.0629 0.459034 25.5573 -0.016843 24.9513 0.000457133L6.98635 0.000457133C6.38036 -0.016843 5.87451 0.459034 5.85526 1.06503L5.85526 30.8735L0.532164 30.8735C0.238304 30.8735 0 31.1118 0 31.4057C0 31.6998 0.238304 31.9381 0.532164 31.9381L31.4052 31.9381C31.6993 31.9381 31.9376 31.6998 31.9376 31.4057C31.9376 31.1118 31.6993 30.8735 31.4052 30.8735ZM23.9532 2.66201L23.9532 30.8735L25.0178 30.8735L25.0178 1.06917C25.0166 1.07512 25.0096 1.07358 24.9971 1.07083C24.986 1.0684 24.9707 1.06503 24.9513 1.06503L6.98635 1.06503C6.95979 1.06308 6.93348 1.07185 6.9135 1.08939L6.91983 30.8735L7.98441 30.8735L7.98441 2.66201C7.98441 2.3679 8.22271 2.1296 8.51657 2.1296L23.4208 2.1296C23.7149 2.1296 23.9532 2.3679 23.9532 2.66201ZM9.04898 30.8735L9.04898 3.19417L22.8886 3.19417L22.8886 30.8735L9.04898 30.8735Z" fill-rule="evenodd"/>
	</g>
	<defs>
		<clipPath id="clip_1">
			<path d="M271 -31L-27 -31Q-27.1538 -31 -27.3052 -30.986Q-27.4565 -30.972 -27.6043 -30.9442Q-27.7521 -30.9163 -27.8951 -30.8748Q-28.038 -30.8334 -28.175 -30.7786Q-28.312 -30.7238 -28.4419 -30.6561Q-28.5717 -30.5885 -28.6935 -30.5085Q-28.8152 -30.4286 -28.9278 -30.337Q-29.0404 -30.2454 -29.1429 -30.1429Q-29.2454 -30.0404 -29.337 -29.9278Q-29.4286 -29.8152 -29.5085 -29.6935Q-29.5885 -29.5717 -29.6561 -29.4419Q-29.7238 -29.312 -29.7786 -29.175Q-29.8334 -29.038 -29.8748 -28.8951Q-29.9163 -28.7521 -29.9442 -28.6043Q-29.972 -28.4565 -29.986 -28.3052Q-30 -28.1538 -30 -28L-30 143Q-30 143.154 -29.986 143.305Q-29.972 143.457 -29.9442 143.604Q-29.9163 143.752 -29.8748 143.895Q-29.8334 144.038 -29.7786 144.175Q-29.7238 144.312 -29.6561 144.442Q-29.5885 144.572 -29.5085 144.693Q-29.4286 144.815 -29.337 144.928Q-29.2454 145.04 -29.1429 145.143Q-29.0404 145.245 -28.9278 145.337Q-28.8152 145.429 -28.6935 145.509Q-28.5717 145.588 -28.4419 145.656Q-28.312 145.724 -28.175 145.779Q-28.038 145.833 -27.8951 145.875Q-27.7521 145.916 -27.6043 145.944Q-27.4565 145.972 -27.3052 145.986Q-27.1538 146 -27 146L271 146Q271.154 146 271.305 145.986Q271.457 145.972 271.604 145.944Q271.752 145.916 271.895 145.875Q272.038 145.833 272.175 145.779Q272.312 145.724 272.442 145.656Q272.572 145.588 272.694 145.509Q272.815 145.429 272.928 145.337Q273.04 145.245 273.143 145.143Q273.245 145.04 273.337 144.928Q273.429 144.815 273.509 144.693Q273.589 144.572 273.656 144.442Q273.724 144.312 273.779 144.175Q273.833 144.038 273.875 143.895Q273.916 143.752 273.944 143.604Q273.972 143.457 273.986 143.305Q274 143.154 274 143L274 -28Q274 -28.1538 273.986 -28.3052Q273.972 -28.4565 273.944 -28.6043Q273.916 -28.7521 273.875 -28.8951Q273.833 -29.038 273.779 -29.175Q273.724 -29.312 273.656 -29.4419Q273.589 -29.5717 273.509 -29.6935Q273.429 -29.8152 273.337 -29.9278Q273.245 -30.0404 273.143 -30.1429Q273.04 -30.2454 272.928 -30.337Q272.815 -30.4286 272.694 -30.5085Q272.572 -30.5885 272.442 -30.6561Q272.312 -30.7238 272.175 -30.7786Q272.038 -30.8334 271.895 -30.8748Q271.752 -30.9163 271.604 -30.9442Q271.457 -30.972 271.305 -30.986Q271.154 -31 271 -31Z" clip-rule="evenodd"/>
		</clipPath>
	</defs>
	<g clip-path="url(#clip_1)">
		<path fill="rgb(0,123,31)" stroke="none" transform="translate(11.7106 4.27393)" d="M7.89516 5.60331L6.04477 8.37866L8.44438 12.4895C8.54112 12.6555 8.54112 12.8604 8.44438 13.0261L6.04477 17.1435L7.89516 19.9189C8.01431 20.0977 8.01431 20.3307 7.89516 20.5097L4.70121 25.3002C4.60252 25.4483 4.43634 25.5373 4.25847 25.5373C4.08059 25.5373 3.91441 25.4483 3.81548 25.3002L0.621771 20.5097C0.502376 20.3307 0.502376 20.0977 0.621771 19.9189L2.47216 17.1435L0.0725512 13.0305C-0.0241837 12.8645 -0.0241837 12.6596 0.0725512 12.4939L2.47216 8.37866L0.621771 5.60331C0.502376 5.42446 0.502376 5.19128 0.621771 5.01243L3.81548 0.221735C3.92002 0.082115 4.084 0 4.25847 0C4.43269 0 4.59692 0.082115 4.70121 0.221735L7.89516 5.01243C8.01431 5.19128 8.01431 5.42446 7.89516 5.60331ZM4.25847 1.47539L1.7034 5.30775L3.07036 7.35502L3.79965 6.10429C3.90247 5.95102 4.07499 5.85916 4.25944 5.85916C4.44414 5.85916 4.61641 5.95102 4.71948 6.10429L5.44877 7.35502L6.81354 5.30775L4.25847 1.47539ZM4.79063 8.34186L4.25847 9.14035L3.72606 8.34186L4.25847 7.43007L4.79063 8.34186ZM4.70072 15.125L5.38688 16.1545L7.36812 12.76L5.38737 9.36452L4.70121 10.394C4.60252 10.5419 4.43634 10.6308 4.25847 10.6308C4.08059 10.6308 3.91441 10.5419 3.81549 10.394L3.12957 9.36452L1.14882 12.76L3.12884 16.1545L3.815 15.125C3.91953 14.9854 4.08352 14.9033 4.25798 14.9033C4.4322 14.9033 4.59643 14.9854 4.70072 15.125ZM3.72606 17.1781L4.25847 16.3796L4.79063 17.1781L4.25847 18.0899L3.72606 17.1781ZM4.25847 24.0446L6.81354 20.212L5.44658 18.165L4.71729 19.4157C4.62201 19.5794 4.44682 19.6801 4.25749 19.6801C4.06792 19.6801 3.89297 19.5794 3.79745 19.4157L3.06817 18.165L1.7034 20.212L4.25847 24.0446Z" fill-rule="evenodd"/>
	</g>
	<defs>
		<clipPath id="clip_2">
			<path d="M271 -31L-27 -31Q-27.1538 -31 -27.3052 -30.986Q-27.4565 -30.972 -27.6043 -30.9442Q-27.7521 -30.9163 -27.8951 -30.8748Q-28.038 -30.8334 -28.175 -30.7786Q-28.312 -30.7238 -28.4419 -30.6561Q-28.5717 -30.5885 -28.6935 -30.5085Q-28.8152 -30.4286 -28.9278 -30.337Q-29.0404 -30.2454 -29.1429 -30.1429Q-29.2454 -30.0404 -29.337 -29.9278Q-29.4286 -29.8152 -29.5085 -29.6935Q-29.5885 -29.5717 -29.6561 -29.4419Q-29.7238 -29.312 -29.7786 -29.175Q-29.8334 -29.038 -29.8748 -28.8951Q-29.9163 -28.7521 -29.9442 -28.6043Q-29.972 -28.4565 -29.986 -28.3052Q-30 -28.1538 -30 -28L-30 143Q-30 143.154 -29.986 143.305Q-29.972 143.457 -29.9442 143.604Q-29.9163 143.752 -29.8748 143.895Q-29.8334 144.038 -29.7786 144.175Q-29.7238 144.312 -29.6561 144.442Q-29.5885 144.572 -29.5085 144.693Q-29.4286 144.815 -29.337 144.928Q-29.2454 145.04 -29.1429 145.143Q-29.0404 145.245 -28.9278 145.337Q-28.8152 145.429 -28.6935 145.509Q-28.5717 145.588 -28.4419 145.656Q-28.312 145.724 -28.175 145.779Q-28.038 145.833 -27.8951 145.875Q-27.7521 145.916 -27.6043 145.944Q-27.4565 145.972 -27.3052 145.986Q-27.1538 146 -27 146L271 146Q271.154 146 271.305 145.986Q271.457 145.972 271.604 145.944Q271.752 145.916 271.895 145.875Q272.038 145.833 272.175 145.779Q272.312 145.724 272.442 145.656Q272.572 145.588 272.694 145.509Q272.815 145.429 272.928 145.337Q273.04 145.245 273.143 145.143Q273.245 145.04 273.337 144.928Q273.429 144.815 273.509 144.693Q273.589 144.572 273.656 144.442Q273.724 144.312 273.779 144.175Q273.833 144.038 273.875 143.895Q273.916 143.752 273.944 143.604Q273.972 143.457 273.986 143.305Q274 143.154 274 143L274 -28Q274 -28.1538 273.986 -28.3052Q273.972 -28.4565 273.944 -28.6043Q273.916 -28.7521 273.875 -28.8951Q273.833 -29.038 273.779 -29.175Q273.724 -29.312 273.656 -29.4419Q273.589 -29.5717 273.509 -29.6935Q273.429 -29.8152 273.337 -29.9278Q273.245 -30.0404 273.143 -30.1429Q273.04 -30.2454 272.928 -30.337Q272.815 -30.4286 272.694 -30.5085Q272.572 -30.5885 272.442 -30.6561Q272.312 -30.7238 272.175 -30.7786Q272.038 -30.8334 271.895 -30.8748Q271.752 -30.9163 271.604 -30.9442Q271.457 -30.972 271.305 -30.986Q271.154 -31 271 -31Z" clip-rule="evenodd"/>
		</clipPath>
	</defs>
	<g clip-path="url(#clip_2)">
		<path fill="rgb(0,123,31)" stroke="none" transform="translate(21.2919 16.5024)" d="M0.330166 0.0416151C0.265595 0.0686619 0.20614 0.10643 0.154483 0.153457C0.0572612 0.255553 0.00219297 0.390543 0 0.531381C0.000974597 0.600826 0.0153508 0.669539 0.0426413 0.733623C0.0911306 0.867395 0.196394 0.972658 0.330166 1.02115C0.394006 1.04844 0.462719 1.06281 0.532408 1.06355C0.673246 1.0616 0.808236 1.00653 0.910332 0.909305C0.957359 0.857405 0.995127 0.798194 1.02217 0.733623C1.04946 0.669539 1.06384 0.600826 1.06457 0.531381C1.06262 0.390543 1.00755 0.255553 0.910332 0.153457C0.75731 0.00238512 0.528265 -0.0417182 0.330166 0.0416151Z"/>
	</g>

</svg>