<?xml version="1.0" encoding="utf-8" ?>
<svg xmlns="http://www.w3.org/2000/svg" xmlns:xlink="http://www.w3.org/1999/xlink" width="27" height="17">
	<path fill="rgb(255,255,255)" stroke="none" transform="matrix(0.99 0 0 0.99 0.390015 0.320007)" d="M23.9078 10.4273C24.5495 11.0526 25.213 11.6992 25.8003 12.4234C26.1238 12.8245 26.4916 13.3093 26.7751 13.8726C27.0468 14.4143 27.0508 15.0254 26.786 15.5078C26.5661 15.9085 26.1917 16.1552 25.7586 16.1849C25.7466 16.1857 25.7347 16.1861 25.7228 16.1861L25.7226 16.1861L21.9676 16.1843C20.9226 16.2668 19.9777 15.8726 19.158 15.013C18.7956 14.6332 18.4498 14.235 18.1153 13.8499C17.9581 13.6691 17.7956 13.4821 17.6349 13.301C17.4763 13.1229 17.2835 12.92 17.0595 12.7703C16.937 12.6885 16.8268 12.6493 16.7647 12.6653C16.7063 12.6804 16.6321 12.7631 16.5664 12.8864C16.3315 13.327 16.2638 13.8341 16.2344 14.46C16.1819 15.6444 15.701 16.1281 14.5191 16.1835C14.2945 16.1945 14.0728 16.2 13.855 16.2C11.9392 16.2001 10.2879 15.7777 8.82368 14.9158C7.43006 14.0954 6.22202 12.9342 5.02193 11.2614C3.31755 8.88528 1.82379 6.14728 0.17868 2.38349C-0.051454 1.85645 -0.0593115 1.41295 0.155266 1.06511C0.369579 0.717924 0.761609 0.536869 1.32065 0.526886C2.50591 0.503176 3.72171 0.502633 5.03628 0.52515C5.72626 0.535567 6.26447 0.938097 6.55076 1.65879C7.24597 3.41752 8.04627 4.94397 8.9977 6.32605C9.23591 6.67188 9.48223 7.0296 9.80908 7.2597C9.86203 7.29698 9.90026 7.31651 9.92483 7.32671C9.94023 7.30441 9.96227 7.26654 9.98737 7.20539C10.0781 6.98457 10.1343 6.71903 10.1645 6.36967C10.2729 5.06844 10.2548 3.99367 10.1077 2.989C10.0332 2.47193 9.79268 2.20146 9.32756 2.11064C9.19551 2.08492 8.79325 2.00652 8.65825 1.61376C8.52489 1.22576 8.7865 0.908349 8.88515 0.788656L8.88527 0.788512C9.22578 0.378332 9.65051 0 10.4535 0L14.7216 0C14.7565 0 14.7914 0.00347242 14.8257 0.0104715C15.8962 0.227824 16.0756 0.925455 16.1677 1.62135C16.1709 1.64593 16.1726 1.67072 16.1726 1.69552L16.1762 6.57335C16.1762 6.57867 16.1762 6.58399 16.176 6.58936C16.1701 6.80655 16.2994 7.22112 16.4116 7.29361C16.4707 7.26458 16.5858 7.13806 16.6563 7.06069L16.7022 7.01034C17.7371 5.88033 18.4511 4.52408 19.013 3.34655C19.3066 2.7366 19.5601 2.0936 19.7748 1.53877C20.043 0.84407 20.5351 0.49813 21.2445 0.510284L25.3476 0.514027C25.4889 0.514027 25.6408 0.51636 25.8008 0.544574C26.1285 0.601977 26.5935 0.72731 26.8443 1.15019C27.095 1.57295 26.991 2.05454 26.8909 2.37997C26.5405 3.51502 25.8864 4.44644 25.2539 5.34721L25.1811 5.45084C24.8569 5.9124 24.5187 6.37136 24.1915 6.81518C23.8234 7.31445 23.4429 7.83075 23.086 8.34619C22.8472 8.68887 22.7435 8.92071 22.7586 9.07697C22.7741 9.23594 22.922 9.45118 23.2242 9.75442L23.2243 9.75458C23.449 9.98024 23.6823 10.2075 23.9078 10.4273ZM25.7008 15.0794C25.7338 15.0753 25.7976 15.0581 25.8494 14.9637C25.9127 14.8484 25.9429 14.6264 25.8197 14.3808C25.5836 13.9116 25.2596 13.4859 24.9738 13.1314C24.4278 12.4582 23.816 11.8621 23.1684 11.231C22.9399 11.0084 22.7038 10.7782 22.4734 10.5468C21.4985 9.56848 21.4298 8.8243 22.2111 7.70287C22.5765 7.17517 22.9618 6.6523 23.3347 6.14657C23.6581 5.70769 23.9926 5.25394 24.3094 4.80296L24.3822 4.69917C24.9919 3.83095 25.5678 3.01092 25.8658 2.04575C25.9249 1.85324 25.9256 1.76101 25.9228 1.72894C25.8963 1.71163 25.8156 1.66986 25.6199 1.63557C25.5425 1.62195 25.4428 1.62081 25.3472 1.62081L21.2389 1.61706L21.229 1.61696C20.9871 1.61169 20.8858 1.65922 20.7744 1.94781C20.5518 2.52326 20.2886 3.19083 19.9777 3.83622C19.3814 5.08602 18.618 6.53239 17.4844 7.77026L17.4415 7.81724C17.2006 8.08196 16.7519 8.57467 16.0735 8.34657C16.0674 8.34451 16.0612 8.34234 16.0551 8.34C15.3099 8.05825 15.0911 7.03074 15.1006 6.56744L15.097 1.73458C15.0732 1.56199 15.0341 1.34112 14.9659 1.24774C14.9498 1.22577 14.9029 1.16153 14.6659 1.10684L10.4536 1.10684C10.2818 1.10684 10.1581 1.13136 10.0483 1.19017C10.6665 1.47866 11.0589 2.04358 11.1716 2.82558C11.3315 3.91706 11.3521 5.07424 11.2362 6.46609C11.1957 6.93519 11.1138 7.30647 10.9783 7.63619C10.7683 8.14772 10.4566 8.33599 10.2319 8.40376C10.0074 8.47147 9.64639 8.48644 9.20158 8.17306C8.71594 7.83119 8.38551 7.35134 8.12004 6.96585C7.12019 5.5135 6.28113 3.91429 5.55476 2.07667C5.40099 1.68955 5.19791 1.63448 5.01956 1.63177C3.71686 1.60941 2.51377 1.61007 1.34053 1.63345C1.19962 1.63611 1.11925 1.65439 1.07812 1.66828C1.08334 1.71294 1.10138 1.79633 1.15981 1.92996C2.77217 5.61887 4.23028 8.29416 5.88747 10.6044C6.99569 12.1491 8.09847 13.214 9.35788 13.9553C10.8056 14.8076 12.4774 15.1746 14.4695 15.0782C14.884 15.0588 15.0083 14.9949 15.0455 14.9585C15.0738 14.9308 15.1418 14.8216 15.1601 14.4084C15.1919 13.7327 15.2699 13.0175 15.6234 12.3546C15.8963 11.8422 16.2518 11.6571 16.5019 11.5923C16.7547 11.5268 17.1583 11.5169 17.6454 11.8422C17.9707 12.0596 18.2239 12.3241 18.4287 12.5542C18.5939 12.7402 18.7583 12.9295 18.9172 13.1125C19.2435 13.4881 19.5809 13.8764 19.9257 14.2379C20.5337 14.8754 21.1623 15.1429 21.9019 15.0795C21.9166 15.0782 21.9315 15.0776 21.9463 15.0776L21.9466 15.0776L25.7008 15.0794Z" fill-rule="evenodd"/>

</svg>